<?xml version="1.0" encoding="UTF-8" standalone="no"?>
<!-- Created with Inkscape (http://www.inkscape.org/) -->

<svg
   xmlns:dc="http://purl.org/dc/elements/1.1/"
   xmlns:cc="http://creativecommons.org/ns#"
   xmlns:rdf="http://www.w3.org/1999/02/22-rdf-syntax-ns#"
   xmlns:svg="http://www.w3.org/2000/svg"
   xmlns="http://www.w3.org/2000/svg"
   xmlns:xlink="http://www.w3.org/1999/xlink"
   version="1.0"
   width="48"
   height="48"
   id="svg4908">
  <defs
     id="defs4910">
    <linearGradient
       id="linearGradient2378">
      <stop
         id="stop2380"
         style="stop-color:#ffffff;stop-opacity:1"
         offset="0" />
      <stop
         id="stop4146"
         style="stop-color:#fefede;stop-opacity:0.91836733"
         offset="0.25" />
      <stop
         id="stop2386"
         style="stop-color:#f5f328;stop-opacity:1"
         offset="0.5" />
      <stop
         id="stop2382"
         style="stop-color:#f5f32d;stop-opacity:0.12234043"
         offset="1" />
    </linearGradient>
    <linearGradient
       id="linearGradient6881">
      <stop
         id="stop6883"
         style="stop-color:#ffffff;stop-opacity:1"
         offset="0" />
      <stop
         id="stop6885"
         style="stop-color:#ffffff;stop-opacity:0"
         offset="1" />
    </linearGradient>
    <linearGradient
       id="linearGradient6859">
      <stop
         id="stop6861"
         style="stop-color:#9ee757;stop-opacity:1"
         offset="0" />
      <stop
         id="stop6863"
         style="stop-color:#8ae234;stop-opacity:1"
         offset="1" />
    </linearGradient>
    <linearGradient
       id="linearGradient6851">
      <stop
         id="stop6853"
         style="stop-color:#fdee77;stop-opacity:1"
         offset="0" />
      <stop
         id="stop6855"
         style="stop-color:#fce94f;stop-opacity:1"
         offset="1" />
    </linearGradient>
    <linearGradient
       id="linearGradient6843">
      <stop
         id="stop6845"
         style="stop-color:#fec065;stop-opacity:1"
         offset="0" />
      <stop
         id="stop6847"
         style="stop-color:#fcaf3e;stop-opacity:1"
         offset="1" />
    </linearGradient>
    <linearGradient
       id="linearGradient6820">
      <stop
         id="stop6822"
         style="stop-color:#729fcf;stop-opacity:1"
         offset="0" />
      <stop
         id="stop6824"
         style="stop-color:#729fcf;stop-opacity:0"
         offset="1" />
    </linearGradient>
    <linearGradient
       id="linearGradient6794">
      <stop
         id="stop6796"
         style="stop-color:#ffffff;stop-opacity:1"
         offset="0" />
      <stop
         id="stop6798"
         style="stop-color:#ffffff;stop-opacity:0"
         offset="1" />
    </linearGradient>
    <linearGradient
       id="linearGradient6642">
      <stop
         id="stop6644"
         style="stop-color:#d3d7cf;stop-opacity:1"
         offset="0" />
      <stop
         id="stop6646"
         style="stop-color:#888a85;stop-opacity:1"
         offset="1" />
    </linearGradient>
    <linearGradient
       id="linearGradient6499">
      <stop
         id="stop6501"
         style="stop-color:#729fcf;stop-opacity:1"
         offset="0" />
      <stop
         id="stop6503"
         style="stop-color:#3465a4;stop-opacity:1"
         offset="1" />
    </linearGradient>
    <linearGradient
       id="linearGradient5060">
      <stop
         id="stop5062"
         style="stop-color:#000000;stop-opacity:1"
         offset="0" />
      <stop
         id="stop5064"
         style="stop-color:#000000;stop-opacity:0"
         offset="1" />
    </linearGradient>
    <linearGradient
       id="linearGradient5048">
      <stop
         id="stop5050"
         style="stop-color:#000000;stop-opacity:0"
         offset="0" />
      <stop
         id="stop5056"
         style="stop-color:#000000;stop-opacity:1"
         offset="0.5" />
      <stop
         id="stop5052"
         style="stop-color:#000000;stop-opacity:0"
         offset="1" />
    </linearGradient>
    <linearGradient
       x1="302.85715"
       y1="366.64789"
       x2="302.85715"
       y2="609.50507"
       id="linearGradient6208"
       xlink:href="#linearGradient5048"
       gradientUnits="userSpaceOnUse"
       gradientTransform="matrix(2.774389,0,0,1.969706,-1892.179,-872.8854)" />
    <radialGradient
       cx="605.71429"
       cy="486.64789"
       r="117.14286"
       fx="605.71429"
       fy="486.64789"
       id="radialGradient6210"
       xlink:href="#linearGradient5060"
       gradientUnits="userSpaceOnUse"
       gradientTransform="matrix(2.774389,0,0,1.969706,-1891.633,-872.8854)" />
    <radialGradient
       cx="605.71429"
       cy="486.64789"
       r="117.14286"
       fx="605.71429"
       fy="486.64789"
       id="radialGradient6212"
       xlink:href="#linearGradient5060"
       gradientUnits="userSpaceOnUse"
       gradientTransform="matrix(-2.774389,0,0,1.969706,112.7623,-872.8854)" />
    <radialGradient
       cx="4.4339509"
       cy="8.3226004"
       r="6"
       fx="4.4339509"
       fy="8.3226004"
       id="radialGradient6214"
       xlink:href="#linearGradient6642"
       gradientUnits="userSpaceOnUse"
       gradientTransform="matrix(1.3279654,0,-0.4677714,1.6070078,3.489273,-5.7538092)" />
    <radialGradient
       cx="4.4339509"
       cy="8.3226004"
       r="6"
       fx="4.4339509"
       fy="8.3226004"
       id="radialGradient6216"
       xlink:href="#linearGradient6642"
       gradientUnits="userSpaceOnUse"
       gradientTransform="matrix(1.3279654,0,-0.4677714,1.6070078,3.489273,-5.7538092)" />
    <radialGradient
       cx="4.4339509"
       cy="8.3226004"
       r="6"
       fx="4.4339509"
       fy="8.3226004"
       id="radialGradient6218"
       xlink:href="#linearGradient6642"
       gradientUnits="userSpaceOnUse"
       gradientTransform="matrix(1.3279654,0,-0.4677714,1.6070078,3.489273,-5.7538092)" />
    <radialGradient
       cx="4.4339509"
       cy="8.3226004"
       r="6"
       fx="4.4339509"
       fy="8.3226004"
       id="radialGradient6220"
       xlink:href="#linearGradient6642"
       gradientUnits="userSpaceOnUse"
       gradientTransform="matrix(1.3279654,0,-0.4677714,1.6070078,3.489273,-5.7538092)" />
    <radialGradient
       cx="4.4339509"
       cy="8.3226004"
       r="6"
       fx="4.4339509"
       fy="8.3226004"
       id="radialGradient6222"
       xlink:href="#linearGradient6642"
       gradientUnits="userSpaceOnUse"
       gradientTransform="matrix(1.3279654,0,-0.4677714,1.6070078,3.489273,-5.7538092)" />
    <radialGradient
       cx="4.4339509"
       cy="8.3226004"
       r="6"
       fx="4.4339509"
       fy="8.3226004"
       id="radialGradient6224"
       xlink:href="#linearGradient6642"
       gradientUnits="userSpaceOnUse"
       gradientTransform="matrix(1.3279654,0,-0.4677714,1.6070078,3.489273,-5.7538092)" />
    <radialGradient
       cx="42"
       cy="15.814279"
       r="3"
       fx="42"
       fy="15.814279"
       id="radialGradient6226"
       xlink:href="#linearGradient6859"
       gradientUnits="userSpaceOnUse"
       gradientTransform="matrix(0.7867179,0,0,1.4423161,-51.042152,-5.8996785)" />
    <linearGradient
       x1="42.875"
       y1="30.9375"
       x2="39.919209"
       y2="51.062393"
       id="linearGradient6228"
       xlink:href="#linearGradient6794"
       gradientUnits="userSpaceOnUse" />
    <radialGradient
       cx="42.8125"
       cy="25.727272"
       r="4.5"
       fx="42.8125"
       fy="25.727272"
       id="radialGradient6230"
       xlink:href="#linearGradient6851"
       gradientUnits="userSpaceOnUse"
       gradientTransform="matrix(0.8213255,0,0,1.0038423,-52.350499,0.173875)" />
    <radialGradient
       cx="42.5"
       cy="36.307945"
       r="4.5"
       fx="42.5"
       fy="36.307945"
       id="radialGradient6232"
       xlink:href="#linearGradient6843"
       gradientUnits="userSpaceOnUse"
       gradientTransform="matrix(0.7452385,0,0,0.9108471,-49.172637,3.6387251)" />
    <linearGradient
       x1="42.875"
       y1="30.9375"
       x2="39.919209"
       y2="51.062393"
       id="linearGradient6234"
       xlink:href="#linearGradient6794"
       gradientUnits="userSpaceOnUse" />
    <linearGradient
       x1="42.875"
       y1="30.9375"
       x2="39.919209"
       y2="51.062393"
       id="linearGradient6236"
       xlink:href="#linearGradient6794"
       gradientUnits="userSpaceOnUse" />
    <linearGradient
       x1="17.077137"
       y1="14.375"
       x2="41.06271"
       y2="56.9375"
       id="linearGradient6238"
       xlink:href="#linearGradient6499"
       gradientUnits="userSpaceOnUse"
       gradientTransform="matrix(0.8885602,0,0,1,-55.486688,0)" />
    <linearGradient
       x1="24.75"
       y1="43.927441"
       x2="24.75"
       y2="35.790096"
       id="linearGradient6240"
       xlink:href="#linearGradient6820"
       gradientUnits="userSpaceOnUse" />
    <linearGradient
       x1="17.353554"
       y1="7.9356604"
       x2="28.035534"
       y2="81.759773"
       id="linearGradient6242"
       xlink:href="#linearGradient6881"
       gradientUnits="userSpaceOnUse" />
    <radialGradient
       cx="5.312501"
       cy="8.1713457"
       r="6"
       fx="5.312501"
       fy="8.1713457"
       id="radialGradient6244"
       xlink:href="#linearGradient6642"
       gradientUnits="userSpaceOnUse"
       gradientTransform="matrix(1.5261839,0,0,1.400538,-2.7953523,-3.4069917)" />
    <radialGradient
       cx="5.312501"
       cy="8.1713457"
       r="6"
       fx="5.312501"
       fy="8.1713457"
       id="radialGradient6246"
       xlink:href="#linearGradient6642"
       gradientUnits="userSpaceOnUse"
       gradientTransform="matrix(1.5261839,0,0,1.400538,-2.7953523,-3.4069917)" />
    <radialGradient
       cx="5.312501"
       cy="8.1713457"
       r="6"
       fx="5.312501"
       fy="8.1713457"
       id="radialGradient6248"
       xlink:href="#linearGradient6642"
       gradientUnits="userSpaceOnUse"
       gradientTransform="matrix(1.5261839,0,0,1.400538,-2.7953523,-3.4069917)" />
    <radialGradient
       cx="5.312501"
       cy="8.1713457"
       r="6"
       fx="5.312501"
       fy="8.1713457"
       id="radialGradient6250"
       xlink:href="#linearGradient6642"
       gradientUnits="userSpaceOnUse"
       gradientTransform="matrix(1.5261839,0,0,1.400538,-2.7953523,-3.4069917)" />
    <radialGradient
       cx="5.312501"
       cy="8.1713457"
       r="6"
       fx="5.312501"
       fy="8.1713457"
       id="radialGradient6252"
       xlink:href="#linearGradient6642"
       gradientUnits="userSpaceOnUse"
       gradientTransform="matrix(1.5261839,0,0,1.400538,-2.7953523,-3.4069917)" />
    <radialGradient
       cx="5.312501"
       cy="8.1713457"
       r="6"
       fx="5.312501"
       fy="8.1713457"
       id="radialGradient6254"
       xlink:href="#linearGradient6642"
       gradientUnits="userSpaceOnUse"
       gradientTransform="matrix(1.5261839,0,0,1.400538,-2.7953523,-3.4069917)" />
    <radialGradient
       cx="38.658855"
       cy="9.3411446"
       r="8.341651"
       fx="38.658855"
       fy="9.3411446"
       id="radialGradient6308"
       xlink:href="#linearGradient2378"
       gradientUnits="userSpaceOnUse" />
  </defs>
  <metadata
     id="metadata4913">
    <rdf:RDF>
      <cc:Work
         rdf:about="">
        <dc:format>image/svg+xml</dc:format>
        <dc:type
           rdf:resource="http://purl.org/dc/dcmitype/StillImage" />
        <dc:title></dc:title>
        <dc:date>2007-06-23</dc:date>
        <dc:creator>
          <cc:Agent>
            <dc:title>Lapo Calamandrei</dc:title>
          </cc:Agent>
        </dc:creator>
        <dc:subject>
          <rdf:Bag>
            <rdf:li>address</rdf:li>
            <rdf:li>book</rdf:li>
            <rdf:li>contact</rdf:li>
          </rdf:Bag>
        </dc:subject>
        <cc:license
           rdf:resource="http://creativecommons.org/licenses/GPL/2.0/" />
        <dc:source />
        <dc:contributor>
          <cc:Agent>
            <dc:title>Andreas Nilsson</dc:title>
          </cc:Agent>
        </dc:contributor>
      </cc:Work>
      <cc:License
         rdf:about="http://creativecommons.org/licenses/GPL/2.0/">
        <cc:permits
           rdf:resource="http://web.resource.org/cc/Reproduction" />
        <cc:permits
           rdf:resource="http://web.resource.org/cc/Distribution" />
        <cc:requires
           rdf:resource="http://web.resource.org/cc/Notice" />
        <cc:permits
           rdf:resource="http://web.resource.org/cc/DerivativeWorks" />
        <cc:requires
           rdf:resource="http://web.resource.org/cc/ShareAlike" />
        <cc:requires
           rdf:resource="http://web.resource.org/cc/SourceCode" />
      </cc:License>
    </rdf:RDF>
  </metadata>
  <g
     id="layer1">
    <g
       transform="translate(60,0)"
       id="g6053">
      <g
         transform="matrix(0.02019273,0,0,0.01708318,-17.539869,42.402519)"
         id="g6055"
         style="display:inline">
        <rect
           width="1339.6335"
           height="478.35718"
           x="-1559.2523"
           y="-150.69685"
           id="rect6057"
           style="opacity:0.39195981;color:#000000;fill:url(#linearGradient6208);fill-opacity:1;fill-rule:nonzero;stroke:none;stroke-width:1;marker:none;visibility:visible;display:inline;overflow:visible" />
        <path
           d="M -219.61876,-150.68038 C -219.61876,-150.68038 -219.61876,327.65041 -219.61876,327.65041 -76.744594,328.55086 125.78146,220.48075 125.78138,88.454235 125.78138,-43.572302 -33.655436,-150.68036 -219.61876,-150.68038 z"
           id="path6059"
           style="opacity:0.40206185;color:#000000;fill:url(#radialGradient6210);fill-opacity:1;fill-rule:nonzero;stroke:none;stroke-width:1;marker:none;visibility:visible;display:inline;overflow:visible" />
        <path
           d="M -1559.2523,-150.68038 C -1559.2523,-150.68038 -1559.2523,327.65041 -1559.2523,327.65041 -1702.1265,328.55086 -1904.6525,220.48075 -1904.6525,88.454235 -1904.6525,-43.572302 -1745.2157,-150.68036 -1559.2523,-150.68038 z"
           id="path6061"
           style="opacity:0.40206185;color:#000000;fill:url(#radialGradient6212);fill-opacity:1;fill-rule:nonzero;stroke:none;stroke-width:1;marker:none;visibility:visible;display:inline;overflow:visible" />
      </g>
      <g
         transform="translate(-60,30)"
         id="g6063">
        <path
           d="M 14.345337,8.5060394 C 13.701657,10.717373 11.23254,12.512078 8.8339139,12.512078 6.4352883,12.512078 5.0109846,10.717373 5.6546645,8.5060394 6.2983445,6.2947058 8.7674619,4.5000001 11.166088,4.5000001 13.564713,4.5000001 14.989017,6.2947058 14.345337,8.5060394 z"
           id="path6065"
           style="fill:none;stroke:url(#radialGradient6214);stroke-width:3;stroke-linecap:round;stroke-linejoin:miter;stroke-miterlimit:4;stroke-opacity:1;stroke-dashoffset:0" />
        <path
           d="M 14.451495,9.0207386 A 4.9939418,3.4913397 0 1 1 4.4636111,9.0207386 4.9939418,3.4913397 0 1 1 14.451495,9.0207386 z"
           transform="matrix(0.8701215,0,-0.3339941,1.1474218,4.7836537,-1.8445527)"
           id="path6067"
           style="fill:none;stroke:#eeeeec;stroke-width:1.00080287;stroke-linecap:round;stroke-linejoin:miter;stroke-miterlimit:4;stroke-opacity:1;stroke-dasharray:none;stroke-dashoffset:0" />
      </g>
      <g
         transform="translate(-60,24)"
         id="g6070">
        <path
           d="M 14.345337,8.5060394 C 13.701657,10.717373 11.23254,12.512078 8.8339139,12.512078 6.4352883,12.512078 5.0109846,10.717373 5.6546645,8.5060394 6.2983445,6.2947058 8.7674619,4.5000001 11.166088,4.5000001 13.564713,4.5000001 14.989017,6.2947058 14.345337,8.5060394 z"
           id="path6072"
           style="fill:none;stroke:url(#radialGradient6216);stroke-width:3;stroke-linecap:round;stroke-linejoin:miter;stroke-miterlimit:4;stroke-opacity:1;stroke-dashoffset:0" />
        <path
           d="M 14.451495,9.0207386 A 4.9939418,3.4913397 0 1 1 4.4636111,9.0207386 4.9939418,3.4913397 0 1 1 14.451495,9.0207386 z"
           transform="matrix(0.8701215,0,-0.3339941,1.1474218,4.7836537,-1.8445527)"
           id="path6074"
           style="fill:none;stroke:#eeeeec;stroke-width:1.00080287;stroke-linecap:round;stroke-linejoin:miter;stroke-miterlimit:4;stroke-opacity:1;stroke-dasharray:none;stroke-dashoffset:0" />
      </g>
      <g
         transform="translate(-60,18)"
         id="g6076">
        <path
           d="M 14.345337,8.5060394 C 13.701657,10.717373 11.23254,12.512078 8.8339139,12.512078 6.4352883,12.512078 5.0109846,10.717373 5.6546645,8.5060394 6.2983445,6.2947058 8.7674619,4.5000001 11.166088,4.5000001 13.564713,4.5000001 14.989017,6.2947058 14.345337,8.5060394 z"
           id="path6078"
           style="fill:none;stroke:url(#radialGradient6218);stroke-width:3;stroke-linecap:round;stroke-linejoin:miter;stroke-miterlimit:4;stroke-opacity:1;stroke-dashoffset:0" />
        <path
           d="M 14.451495,9.0207386 A 4.9939418,3.4913397 0 1 1 4.4636111,9.0207386 4.9939418,3.4913397 0 1 1 14.451495,9.0207386 z"
           transform="matrix(0.8701215,0,-0.3339941,1.1474218,4.7836537,-1.8445527)"
           id="path6080"
           style="fill:none;stroke:#eeeeec;stroke-width:1.00080287;stroke-linecap:round;stroke-linejoin:miter;stroke-miterlimit:4;stroke-opacity:1;stroke-dasharray:none;stroke-dashoffset:0" />
      </g>
      <g
         transform="translate(-60,12)"
         id="g6082">
        <path
           d="M 14.345337,8.5060394 C 13.701657,10.717373 11.23254,12.512078 8.8339139,12.512078 6.4352883,12.512078 5.0109846,10.717373 5.6546645,8.5060394 6.2983445,6.2947058 8.7674619,4.5000001 11.166088,4.5000001 13.564713,4.5000001 14.989017,6.2947058 14.345337,8.5060394 z"
           id="path6084"
           style="fill:none;stroke:url(#radialGradient6220);stroke-width:3;stroke-linecap:round;stroke-linejoin:miter;stroke-miterlimit:4;stroke-opacity:1;stroke-dashoffset:0" />
        <path
           d="M 14.451495,9.0207386 A 4.9939418,3.4913397 0 1 1 4.4636111,9.0207386 4.9939418,3.4913397 0 1 1 14.451495,9.0207386 z"
           transform="matrix(0.8701215,0,-0.3339941,1.1474218,4.7836537,-1.8445527)"
           id="path6086"
           style="fill:none;stroke:#eeeeec;stroke-width:1.00080287;stroke-linecap:round;stroke-linejoin:miter;stroke-miterlimit:4;stroke-opacity:1;stroke-dasharray:none;stroke-dashoffset:0" />
      </g>
      <g
         transform="translate(-60,6)"
         id="g6088">
        <path
           d="M 14.345337,8.5060394 C 13.701657,10.717373 11.23254,12.512078 8.8339139,12.512078 6.4352883,12.512078 5.0109846,10.717373 5.6546645,8.5060394 6.2983445,6.2947058 8.7674619,4.5000001 11.166088,4.5000001 13.564713,4.5000001 14.989017,6.2947058 14.345337,8.5060394 z"
           id="path6090"
           style="fill:none;stroke:url(#radialGradient6222);stroke-width:3;stroke-linecap:round;stroke-linejoin:miter;stroke-miterlimit:4;stroke-opacity:1;stroke-dashoffset:0" />
        <path
           d="M 14.451495,9.0207386 A 4.9939418,3.4913397 0 1 1 4.4636111,9.0207386 4.9939418,3.4913397 0 1 1 14.451495,9.0207386 z"
           transform="matrix(0.8701215,0,-0.3339941,1.1474218,4.7836537,-1.8445527)"
           id="path6092"
           style="fill:none;stroke:#eeeeec;stroke-width:1.00080287;stroke-linecap:round;stroke-linejoin:miter;stroke-miterlimit:4;stroke-opacity:1;stroke-dasharray:none;stroke-dashoffset:0" />
      </g>
      <g
         transform="translate(-60,0)"
         id="g6094">
        <path
           d="M 14.345337,8.5060394 C 13.701657,10.717373 11.23254,12.512078 8.8339139,12.512078 6.4352883,12.512078 5.0109846,10.717373 5.6546645,8.5060394 6.2983445,6.2947058 8.7674619,4.5000001 11.166088,4.5000001 13.564713,4.5000001 14.989017,6.2947058 14.345337,8.5060394 z"
           id="path6096"
           style="fill:none;stroke:url(#radialGradient6224);stroke-width:3;stroke-linecap:round;stroke-linejoin:miter;stroke-miterlimit:4;stroke-opacity:1;stroke-dashoffset:0" />
        <path
           d="M 14.451495,9.0207386 A 4.9939418,3.4913397 0 1 1 4.4636111,9.0207386 4.9939418,3.4913397 0 1 1 14.451495,9.0207386 z"
           transform="matrix(0.8701215,0,-0.3339941,1.1474218,4.7836537,-1.8445527)"
           id="path6098"
           style="fill:none;stroke:#eeeeec;stroke-width:1.00080287;stroke-linecap:round;stroke-linejoin:miter;stroke-miterlimit:4;stroke-opacity:1;stroke-dasharray:none;stroke-dashoffset:0" />
      </g>
      <rect
         width="29.999998"
         height="39.999996"
         rx="2.3950391"
         ry="2.4748738"
         x="-50.5"
         y="1.5"
         id="rect6100"
         style="fill:#3465a4;fill-opacity:1;stroke:#204a87;stroke-width:1;stroke-linecap:round;stroke-linejoin:miter;stroke-miterlimit:0;stroke-opacity:1;stroke-dasharray:none;stroke-dashoffset:0" />
      <g
         transform="translate(-62,1)"
         id="g6102">
        <path
           d="M 14,3 39.182408,3 40,3.6961651 40,25 14,25 14,3 z"
           id="path6104"
           style="fill:#d3d7cf;fill-opacity:1;stroke:none" />
        <path
           d="M 14,3 39.65625,3 C 40.711932,4.0277742 39.16614,5.0151389 37.65625,5 L 12.625,5 C 14.126385,5 15.015732,3.4971845 14,3 z"
           id="path6106"
           style="fill:#ffffff;fill-opacity:1;stroke:none" />
      </g>
      <rect
         width="5"
         height="10"
         rx="1.2374369"
         ry="1.1136932"
         x="-20.5"
         y="9.5"
         id="rect6108"
         style="fill:url(#radialGradient6226);fill-opacity:1;stroke:#4e9a06;stroke-width:1.00000012;stroke-linecap:butt;stroke-linejoin:miter;stroke-miterlimit:4;stroke-opacity:1;stroke-dasharray:none;stroke-dashoffset:0" />
      <path
         d="M -48.079373,2.53125 C -48.880201,2.53125 -49.46875,3.1401838 -49.46875,3.96875 L -49.46875,39.03125 C -49.46875,39.859816 -48.880201,40.46875 -48.079373,40.46875 L -22.889376,40.46875 C -22.088548,40.46875 -21.499999,39.859815 -21.499999,39.03125 L -21.499999,3.96875 C -21.499999,3.1401839 -22.088549,2.53125 -22.889376,2.53125 L -48.079373,2.53125 z"
         id="path6110"
         style="opacity:0.2;fill:none;stroke:#ffffff;stroke-width:1;stroke-linecap:round;stroke-linejoin:miter;stroke-miterlimit:0;stroke-opacity:1;stroke-dashoffset:0" />
      <path
         d="M 39.75,30.5 C 39.609554,30.5 39.5,30.609555 39.5,30.75 L 39.5,38.25 C 39.5,38.390448 39.609551,38.5 39.75,38.5 L 45.25,38.5 C 45.390448,38.5 45.5,38.390449 45.5,38.25 L 45.5,30.75 C 45.5,30.609552 45.390449,30.5 45.25,30.5 L 39.75,30.5 z"
         transform="translate(-62,-20)"
         id="path6112"
         style="opacity:0.5;fill:none;stroke:url(#linearGradient6228);stroke-width:1.00000012;stroke-linecap:butt;stroke-linejoin:miter;stroke-miterlimit:4;stroke-opacity:1;stroke-dasharray:none;stroke-dashoffset:0" />
      <rect
         width="8"
         height="10"
         rx="1.2374369"
         ry="1.2374369"
         x="-22.5"
         y="19.5"
         id="rect6114"
         style="fill:url(#radialGradient6230);fill-opacity:1;stroke:#c4a000;stroke-width:1.00000012;stroke-linecap:butt;stroke-linejoin:miter;stroke-miterlimit:4;stroke-opacity:1;stroke-dasharray:none;stroke-dashoffset:0" />
      <rect
         width="8"
         height="10"
         rx="1.2374369"
         ry="1.2374369"
         x="-21.5"
         y="29.5"
         id="rect6116"
         style="fill:url(#radialGradient6232);fill-opacity:1;stroke:#ce5c00;stroke-width:1.00000012;stroke-linecap:butt;stroke-linejoin:miter;stroke-miterlimit:4;stroke-opacity:1;stroke-dasharray:none;stroke-dashoffset:0" />
      <path
         d="M 39.75,30.5 C 39.609554,30.5 39.5,30.609555 39.5,30.75 L 39.5,38.25 C 39.5,38.390448 39.609551,38.5 39.75,38.5 L 45.25,38.5 C 45.390448,38.5 45.5,38.390449 45.5,38.25 L 45.5,30.75 C 45.5,30.609552 45.390449,30.5 45.25,30.5 L 39.75,30.5 z"
         transform="translate(-61,-10)"
         id="path6118"
         style="opacity:0.5;fill:none;stroke:url(#linearGradient6234);stroke-width:1.00000012;stroke-linecap:butt;stroke-linejoin:miter;stroke-miterlimit:4;stroke-opacity:1;stroke-dasharray:none;stroke-dashoffset:0" />
      <rect
         width="6.8125"
         height="10"
         x="-24.8125"
         y="19"
         id="rect6120"
         style="opacity:0.25;fill:#000000;fill-opacity:1;stroke:none" />
      <path
         d="M 39.75,30.5 C 39.609554,30.5 39.5,30.609555 39.5,30.75 L 39.5,38.25 C 39.5,38.390448 39.609551,38.5 39.75,38.5 L 45.25,38.5 C 45.390448,38.5 45.5,38.390449 45.5,38.25 L 45.5,30.75 C 45.5,30.609552 45.390449,30.5 45.25,30.5 L 39.75,30.5 z"
         transform="translate(-60,0)"
         id="path6122"
         style="opacity:0.5;fill:none;stroke:url(#linearGradient6236);stroke-width:1.00000012;stroke-linecap:butt;stroke-linejoin:miter;stroke-miterlimit:4;stroke-opacity:1;stroke-dasharray:none;stroke-dashoffset:0" />
      <rect
         width="6.8125"
         height="11"
         x="-24.8125"
         y="29"
         id="rect6124"
         style="opacity:0.1;fill:#000000;fill-opacity:1;stroke:none" />
      <rect
         width="7"
         height="10"
         x="-25"
         y="9"
         id="rect6126"
         style="opacity:0.15517243;fill:#000000;fill-opacity:1;stroke:none" />
      <path
         d="M -49.025126,6.5 -21.974874,6.5 C -20.603794,6.5 -19.5,7.6037937 -19.5,8.9748738 L -19.5,43.025122 C -19.5,44.396202 -20.603794,45.499996 -21.974874,45.499996 L -49.025126,45.499996 C -50.396206,45.499996 -51.5,44.396202 -51.5,43.025122 L -51.5,8.9748738 C -51.5,7.6037937 -50.396206,6.5 -49.025126,6.5 z"
         id="rect6128"
         style="fill:url(#linearGradient6238);fill-opacity:1;stroke:#204a87;stroke-width:1;stroke-linecap:round;stroke-linejoin:miter;stroke-miterlimit:0;stroke-opacity:1;stroke-dashoffset:0" />
      <path
         d="M 10.96875,7 C 9.866556,7 9,7.8665563 9,8.96875 L 9,43.03125 C 9,44.133444 9.8665564,45 10.96875,45 L 38.03125,45 C 39.133444,45 40,44.133443 40,43.03125 L 40,8.96875 C 40,7.8665562 39.133443,7 38.03125,7 L 10.96875,7 z"
         transform="translate(-60,0)"
         id="path6130"
         style="fill:url(#linearGradient6240);fill-opacity:1;stroke:none" />
      <path
         d="M 10.96875,7.53125 C 10.140184,7.53125 9.53125,8.1401838 9.53125,8.96875 L 9.53125,43.03125 C 9.53125,43.859816 10.140184,44.46875 10.96875,44.46875 L 38.03125,44.46875 C 38.859816,44.46875 39.46875,43.859815 39.46875,43.03125 L 39.46875,8.96875 C 39.46875,8.1401839 38.859815,7.53125 38.03125,7.53125 L 10.96875,7.53125 z"
         transform="translate(-60,0)"
         id="path6132"
         style="opacity:0.46120689;fill:none;stroke:url(#linearGradient6242);stroke-width:1;stroke-linecap:round;stroke-linejoin:miter;stroke-miterlimit:0;stroke-opacity:1;stroke-dashoffset:0" />
      <path
         d="M 13.435029,11.959651 A 1.524699,1.6130873 0 1 1 10.385631,11.959651 1.524699,1.6130873 0 1 1 13.435029,11.959651 z"
         transform="matrix(0.9838006,0,0,0.9524402,-59.717389,30.145517)"
         id="path6134"
         style="fill:none;stroke:#204a87;stroke-width:1.03306484;stroke-linecap:round;stroke-linejoin:miter;stroke-miterlimit:4;stroke-opacity:1;stroke-dasharray:none;stroke-dashoffset:0" />
      <path
         d="M 13.435029,11.959651 A 1.524699,1.6130873 0 1 1 10.385631,11.959651 1.524699,1.6130873 0 1 1 13.435029,11.959651 z"
         transform="matrix(0.9838006,0,0,0.9524402,-59.717389,24.145517)"
         id="path6136"
         style="fill:none;stroke:#204a87;stroke-width:1.03306484;stroke-linecap:round;stroke-linejoin:miter;stroke-miterlimit:4;stroke-opacity:1;stroke-dasharray:none;stroke-dashoffset:0" />
      <path
         d="M 13.435029,11.959651 A 1.524699,1.6130873 0 1 1 10.385631,11.959651 1.524699,1.6130873 0 1 1 13.435029,11.959651 z"
         transform="matrix(0.9838006,0,0,0.9524402,-59.717389,18.145517)"
         id="path6138"
         style="fill:none;stroke:#204a87;stroke-width:1.03306484;stroke-linecap:round;stroke-linejoin:miter;stroke-miterlimit:4;stroke-opacity:1;stroke-dasharray:none;stroke-dashoffset:0" />
      <path
         d="M 13.435029,11.959651 A 1.524699,1.6130873 0 1 1 10.385631,11.959651 1.524699,1.6130873 0 1 1 13.435029,11.959651 z"
         transform="matrix(0.9838006,0,0,0.9524402,-59.717389,6.1455167)"
         id="path6140"
         style="fill:none;stroke:#204a87;stroke-width:1.03306484;stroke-linecap:round;stroke-linejoin:miter;stroke-miterlimit:4;stroke-opacity:1;stroke-dasharray:none;stroke-dashoffset:0" />
      <path
         d="M 13.435029,11.959651 A 1.524699,1.6130873 0 1 1 10.385631,11.959651 1.524699,1.6130873 0 1 1 13.435029,11.959651 z"
         transform="matrix(0.9838006,0,0,0.9524402,-59.717389,12.145517)"
         id="path6142"
         style="fill:none;stroke:#204a87;stroke-width:1.03306484;stroke-linecap:round;stroke-linejoin:miter;stroke-miterlimit:4;stroke-opacity:1;stroke-dasharray:none;stroke-dashoffset:0" />
      <path
         d="M 13.435029,11.959651 A 1.524699,1.6130873 0 1 1 10.385631,11.959651 1.524699,1.6130873 0 1 1 13.435029,11.959651 z"
         transform="matrix(0.9838006,0,0,0.9524402,-59.717389,0.1455168)"
         id="path6144"
         style="fill:none;stroke:#204a87;stroke-width:1.03306484;stroke-linecap:round;stroke-linejoin:miter;stroke-miterlimit:4;stroke-opacity:1;stroke-dasharray:none;stroke-dashoffset:0" />
      <g
         transform="translate(-60,30)"
         id="g6146">
        <path
           d="M 5.65625,8.5 C 5.0125701,10.711334 6.4451242,12.5 8.84375,12.5 9.757344,12.5 10.672765,12.22474 11.5,11.78125"
           id="path6148"
           style="fill:none;stroke:url(#radialGradient6244);stroke-width:3;stroke-linecap:round;stroke-linejoin:miter;stroke-miterlimit:4;stroke-opacity:1;stroke-dasharray:none;stroke-dashoffset:0" />
        <path
           d="M 6.84375,6.5 C 6.2961784,7.0922996 5.8701722,7.7650799 5.65625,8.5 5.0125701,10.711334 6.4451242,12.5 8.84375,12.5 9.757344,12.5 10.672765,12.22474 11.5,11.78125"
           id="path6150"
           style="fill:none;stroke:#eeeeec;stroke-width:1;stroke-linecap:round;stroke-linejoin:miter;stroke-miterlimit:4;stroke-opacity:1;stroke-dasharray:none;stroke-dashoffset:0" />
        <path
           d="M 5.8125,8.2578125 A 0.546875,0.8046875 0 1 1 4.71875,8.2578125 0.546875,0.8046875 0 1 1 5.8125,8.2578125 z"
           transform="matrix(1.3714287,0,0,0.9320388,-1.7365942,0.3133592)"
           id="path6152"
           style="fill:#ffffff;fill-opacity:1;stroke:none" />
        <path
           d="M 5.8125,8.2578125 A 0.546875,0.8046875 0 1 1 4.71875,8.2578125 0.546875,0.8046875 0 1 1 5.8125,8.2578125 z"
           transform="matrix(1.3714287,0,0,0.9320388,4.0970367,3.7163106)"
           id="path6154"
           style="opacity:0.7;fill:#ffffff;fill-opacity:1;stroke:none" />
      </g>
      <g
         transform="translate(-60,24)"
         id="g6156">
        <path
           d="M 5.65625,8.5 C 5.0125701,10.711334 6.4451242,12.5 8.84375,12.5 9.757344,12.5 10.672765,12.22474 11.5,11.78125"
           id="path6158"
           style="fill:none;stroke:url(#radialGradient6246);stroke-width:3;stroke-linecap:round;stroke-linejoin:miter;stroke-miterlimit:4;stroke-opacity:1;stroke-dasharray:none;stroke-dashoffset:0" />
        <path
           d="M 6.84375,6.5 C 6.2961784,7.0922996 5.8701722,7.7650799 5.65625,8.5 5.0125701,10.711334 6.4451242,12.5 8.84375,12.5 9.757344,12.5 10.672765,12.22474 11.5,11.78125"
           id="path6160"
           style="fill:none;stroke:#eeeeec;stroke-width:1;stroke-linecap:round;stroke-linejoin:miter;stroke-miterlimit:4;stroke-opacity:1;stroke-dasharray:none;stroke-dashoffset:0" />
        <path
           d="M 5.8125,8.2578125 A 0.546875,0.8046875 0 1 1 4.71875,8.2578125 0.546875,0.8046875 0 1 1 5.8125,8.2578125 z"
           transform="matrix(1.3714287,0,0,0.9320388,-1.7365942,0.3133592)"
           id="path6162"
           style="fill:#ffffff;fill-opacity:1;stroke:none" />
        <path
           d="M 5.8125,8.2578125 A 0.546875,0.8046875 0 1 1 4.71875,8.2578125 0.546875,0.8046875 0 1 1 5.8125,8.2578125 z"
           transform="matrix(1.3714287,0,0,0.9320388,4.0970367,3.7163106)"
           id="path6164"
           style="opacity:0.7;fill:#ffffff;fill-opacity:1;stroke:none" />
      </g>
      <g
         transform="translate(-60,18)"
         id="g6166">
        <path
           d="M 5.65625,8.5 C 5.0125701,10.711334 6.4451242,12.5 8.84375,12.5 9.757344,12.5 10.672765,12.22474 11.5,11.78125"
           id="path6168"
           style="fill:none;stroke:url(#radialGradient6248);stroke-width:3;stroke-linecap:round;stroke-linejoin:miter;stroke-miterlimit:4;stroke-opacity:1;stroke-dasharray:none;stroke-dashoffset:0" />
        <path
           d="M 6.84375,6.5 C 6.2961784,7.0922996 5.8701722,7.7650799 5.65625,8.5 5.0125701,10.711334 6.4451242,12.5 8.84375,12.5 9.757344,12.5 10.672765,12.22474 11.5,11.78125"
           id="path6170"
           style="fill:none;stroke:#eeeeec;stroke-width:1;stroke-linecap:round;stroke-linejoin:miter;stroke-miterlimit:4;stroke-opacity:1;stroke-dasharray:none;stroke-dashoffset:0" />
        <path
           d="M 5.8125,8.2578125 A 0.546875,0.8046875 0 1 1 4.71875,8.2578125 0.546875,0.8046875 0 1 1 5.8125,8.2578125 z"
           transform="matrix(1.3714287,0,0,0.9320388,-1.7365942,0.3133592)"
           id="path6172"
           style="fill:#ffffff;fill-opacity:1;stroke:none" />
        <path
           d="M 5.8125,8.2578125 A 0.546875,0.8046875 0 1 1 4.71875,8.2578125 0.546875,0.8046875 0 1 1 5.8125,8.2578125 z"
           transform="matrix(1.3714287,0,0,0.9320388,4.0970367,3.7163106)"
           id="path6174"
           style="opacity:0.7;fill:#ffffff;fill-opacity:1;stroke:none" />
      </g>
      <g
         transform="translate(-60,12)"
         id="g6176">
        <path
           d="M 5.65625,8.5 C 5.0125701,10.711334 6.4451242,12.5 8.84375,12.5 9.757344,12.5 10.672765,12.22474 11.5,11.78125"
           id="path6178"
           style="fill:none;stroke:url(#radialGradient6250);stroke-width:3;stroke-linecap:round;stroke-linejoin:miter;stroke-miterlimit:4;stroke-opacity:1;stroke-dasharray:none;stroke-dashoffset:0" />
        <path
           d="M 6.84375,6.5 C 6.2961784,7.0922996 5.8701722,7.7650799 5.65625,8.5 5.0125701,10.711334 6.4451242,12.5 8.84375,12.5 9.757344,12.5 10.672765,12.22474 11.5,11.78125"
           id="path6180"
           style="fill:none;stroke:#eeeeec;stroke-width:1;stroke-linecap:round;stroke-linejoin:miter;stroke-miterlimit:4;stroke-opacity:1;stroke-dasharray:none;stroke-dashoffset:0" />
        <path
           d="M 5.8125,8.2578125 A 0.546875,0.8046875 0 1 1 4.71875,8.2578125 0.546875,0.8046875 0 1 1 5.8125,8.2578125 z"
           transform="matrix(1.3714287,0,0,0.9320388,-1.7365942,0.3133592)"
           id="path6182"
           style="fill:#ffffff;fill-opacity:1;stroke:none" />
        <path
           d="M 5.8125,8.2578125 A 0.546875,0.8046875 0 1 1 4.71875,8.2578125 0.546875,0.8046875 0 1 1 5.8125,8.2578125 z"
           transform="matrix(1.3714287,0,0,0.9320388,4.0970367,3.7163106)"
           id="path6184"
           style="opacity:0.7;fill:#ffffff;fill-opacity:1;stroke:none" />
      </g>
      <g
         transform="translate(-60,6)"
         id="g6186">
        <path
           d="M 5.65625,8.5 C 5.0125701,10.711334 6.4451242,12.5 8.84375,12.5 9.757344,12.5 10.672765,12.22474 11.5,11.78125"
           id="path6188"
           style="fill:none;stroke:url(#radialGradient6252);stroke-width:3;stroke-linecap:round;stroke-linejoin:miter;stroke-miterlimit:4;stroke-opacity:1;stroke-dasharray:none;stroke-dashoffset:0" />
        <path
           d="M 6.84375,6.5 C 6.2961784,7.0922996 5.8701722,7.7650799 5.65625,8.5 5.0125701,10.711334 6.4451242,12.5 8.84375,12.5 9.757344,12.5 10.672765,12.22474 11.5,11.78125"
           id="path6190"
           style="fill:none;stroke:#eeeeec;stroke-width:1;stroke-linecap:round;stroke-linejoin:miter;stroke-miterlimit:4;stroke-opacity:1;stroke-dasharray:none;stroke-dashoffset:0" />
        <path
           d="M 5.8125,8.2578125 A 0.546875,0.8046875 0 1 1 4.71875,8.2578125 0.546875,0.8046875 0 1 1 5.8125,8.2578125 z"
           transform="matrix(1.3714287,0,0,0.9320388,-1.7365942,0.3133592)"
           id="path6192"
           style="fill:#ffffff;fill-opacity:1;stroke:none" />
        <path
           d="M 5.8125,8.2578125 A 0.546875,0.8046875 0 1 1 4.71875,8.2578125 0.546875,0.8046875 0 1 1 5.8125,8.2578125 z"
           transform="matrix(1.3714287,0,0,0.9320388,4.0970367,3.7163106)"
           id="path6194"
           style="opacity:0.7;fill:#ffffff;fill-opacity:1;stroke:none" />
      </g>
      <path
         d="M -36.126698,24.53508 C -36.126707,25.493883 -35.930629,26.250007 -35.538462,26.803454 -35.138775,27.35691 -34.599559,27.633635 -33.920815,27.633632 -33.249636,27.633635 -32.714192,27.35691 -32.314481,26.803454 -31.914796,26.242212 -31.714946,25.486088 -31.714933,24.53508 -31.714946,23.591881 -31.918567,22.84745 -32.325793,22.301784 -32.725504,21.748342 -33.264719,21.471616 -33.94344,21.471606 -34.607101,21.471616 -35.138775,21.748342 -35.538462,22.301784 -35.930629,22.84745 -36.126707,23.591881 -36.126698,24.53508 M -31.488688,28.054567 C -31.714946,28.608021 -32.080708,29.040649 -32.585974,29.352452 -33.083724,29.656461 -33.668188,29.808466 -34.339367,29.808465 -35.636511,29.808466 -36.692318,29.32517 -37.506788,28.358577 -38.313733,27.384192 -38.717202,26.11749 -38.717195,24.558466 -38.717202,22.999454 -38.309963,21.732752 -37.495476,20.758355 -36.681005,19.783979 -35.62897,19.296786 -34.339367,19.296774 -33.668188,19.296786 -33.083724,19.452687 -32.585974,19.76448 -32.080708,20.076295 -31.714946,20.508922 -31.488688,21.062364 L -31.488688,19.530628 -29.124436,19.530628 -29.124436,27.633632 C -28.189309,27.485529 -27.454016,27.021721 -26.918553,26.242207 -26.383127,25.454907 -26.115405,24.449341 -26.115386,23.225504 -26.115405,22.446002 -26.224756,21.717161 -26.44344,21.038978 -26.662162,20.353021 -26.993986,19.725515 -27.438915,19.156462 -28.155373,18.205473 -29.052807,17.472734 -30.131223,16.958244 -31.202127,16.443783 -32.363513,16.186544 -33.615386,16.18653 -34.490208,16.186544 -35.327311,16.307368 -36.126698,16.549002 -36.926103,16.782869 -37.665167,17.12975 -38.343892,17.589648 -39.460037,18.35358 -40.331077,19.343556 -40.957014,20.55958 -41.575419,21.767829 -41.88462,23.077404 -41.884616,24.48831 -41.88462,25.649785 -41.68477,26.741097 -41.285069,27.762252 -40.877833,28.775616 -40.293369,29.672052 -39.531674,30.45156 -38.777533,31.21548 -37.914035,31.796214 -36.941178,32.193765 -35.960794,32.599108 -34.9163,32.80178 -33.807693,32.801782 -32.857479,32.80178 -31.907254,32.618596 -30.957015,32.252228 -30.006803,31.885858 -29.196096,31.390869 -28.524888,30.767262 L -27.314481,32.661471 C -28.257182,33.417593 -29.286594,33.99443 -30.402716,34.391983 -31.511327,34.797324 -32.638777,34.999996 -33.785069,35.000001 -35.180253,34.999996 -36.496239,34.742758 -37.733033,34.228286 -38.969842,33.721602 -40.070896,32.981068 -41.0362,32.006683 -42.001512,31.032295 -42.736806,29.905905 -43.242082,28.627507 -43.747362,27.341319 -44.000001,25.961588 -44,24.48831 -44.000001,23.06961 -43.743592,21.717161 -43.230769,20.430961 -42.717952,19.144782 -41.98643,18.014493 -41.0362,17.040093 -40.085979,16.073515 -38.981154,15.325187 -37.72172,14.795104 -36.454761,14.265054 -35.142545,14.000022 -33.785069,14.000005 -32.095791,14.000022 -30.561102,14.33521 -29.180997,15.005572 -27.800924,15.668171 -26.647078,16.626967 -25.719458,17.881963 -25.153867,18.645896 -24.727775,19.476073 -24.441178,20.372497 -24.147081,21.261148 -24.000023,22.196559 -24.000001,23.178734 -24.000023,25.29121 -24.614652,26.932078 -25.843892,28.101338 -27.073172,29.270604 -28.80771,29.855237 -31.047513,29.855236 L -31.488688,29.855236 -31.488688,28.054567"
         id="path6196"
         style="font-size:23.55376053px;font-style:normal;font-weight:normal;fill:#ffffff;fill-opacity:1;stroke:none;font-family:Bitstream Vera Sans" />
      <g
         transform="translate(-60,0)"
         id="g6198">
        <path
           d="M 5.65625,8.5 C 5.0125701,10.711334 6.4451242,12.5 8.84375,12.5 9.757344,12.5 10.672765,12.22474 11.5,11.78125"
           id="path6200"
           style="fill:none;stroke:url(#radialGradient6254);stroke-width:3;stroke-linecap:round;stroke-linejoin:miter;stroke-miterlimit:4;stroke-opacity:1;stroke-dasharray:none;stroke-dashoffset:0" />
        <path
           d="M 6.84375,6.5 C 6.2961784,7.0922996 5.8701722,7.7650799 5.65625,8.5 5.0125701,10.711334 6.4451242,12.5 8.84375,12.5 9.757344,12.5 10.672765,12.22474 11.5,11.78125"
           id="path6202"
           style="fill:none;stroke:#eeeeec;stroke-width:1;stroke-linecap:round;stroke-linejoin:miter;stroke-miterlimit:4;stroke-opacity:1;stroke-dasharray:none;stroke-dashoffset:0" />
        <path
           d="M 5.8125,8.2578125 A 0.546875,0.8046875 0 1 1 4.71875,8.2578125 0.546875,0.8046875 0 1 1 5.8125,8.2578125 z"
           transform="matrix(1.3714287,0,0,0.9320388,-1.7365942,0.3133592)"
           id="path6204"
           style="fill:#ffffff;fill-opacity:1;stroke:none" />
        <path
           d="M 5.8125,8.2578125 A 0.546875,0.8046875 0 1 1 4.71875,8.2578125 0.546875,0.8046875 0 1 1 5.8125,8.2578125 z"
           transform="matrix(1.3714287,0,0,0.9320388,4.0970367,3.7163106)"
           id="path6206"
           style="opacity:0.7;fill:#ffffff;fill-opacity:1;stroke:none" />
      </g>
    </g>
    <g
       transform="matrix(0.9904451,0,0,0.9904451,-1.511305,-1.687672)"
       id="g2029"
       style="display:inline">
      <path
         d="M 47.000506,9.3411446 A 8.341651,8.341651 0 1 1 30.317204,9.3411446 8.341651,8.341651 0 1 1 47.000506,9.3411446 z"
         transform="matrix(1.14985,0,0,1.14985,-6.073881,0.554685)"
         id="path2388"
         style="fill:url(#radialGradient6308);fill-opacity:1;fill-rule:evenodd;stroke:none;display:inline" />
      <path
         d="M 44.520054,15.50279 C 44.012883,16.381236 39.925351,15.341967 38.998703,15.754538 38.072055,16.167108 36.109289,19.900142 35.117113,19.689249 34.124936,19.478355 33.850222,15.26973 33.171495,14.515926 32.492767,13.762123 28.335913,13.048993 28.229885,12.040207 28.123857,11.031421 32.041607,9.4696164 32.548778,8.5911701 33.055949,7.7127238 32.449637,3.5389508 33.376285,3.1263806 34.302933,2.7138103 36.998949,5.957187 37.991126,6.1680807 38.983302,6.3789743 42.765436,4.5125708 43.444163,5.2663741 44.122891,6.0201775 41.871371,9.5864995 41.977399,10.595285 42.083426,11.604071 45.027225,14.624343 44.520054,15.50279 z"
         transform="matrix(0.674116,0.299577,-0.299577,0.674116,16.98558,-7.128679)"
         id="path1345"
         style="color:#000000;fill:#ffffff;fill-opacity:1;fill-rule:evenodd;stroke:none;stroke-width:0.5;marker:none;visibility:visible;display:inline;overflow:visible" />
    </g>
  </g>
</svg>
