<?xml version="1.0" encoding="UTF-8" standalone="no"?>
<!-- Created with Inkscape (http://www.inkscape.org/) -->

<svg
   xmlns:dc="http://purl.org/dc/elements/1.1/"
   xmlns:cc="http://creativecommons.org/ns#"
   xmlns:rdf="http://www.w3.org/1999/02/22-rdf-syntax-ns#"
   xmlns:svg="http://www.w3.org/2000/svg"
   xmlns="http://www.w3.org/2000/svg"
   xmlns:sodipodi="http://sodipodi.sourceforge.net/DTD/sodipodi-0.dtd"
   xmlns:inkscape="http://www.inkscape.org/namespaces/inkscape"
   width="744.09448819"
   height="1052.3622047"
   id="svg2"
   version="1.1"
   inkscape:version="0.48.2 r9819"
   sodipodi:docname="swirl.svg">
  <defs
     id="defs4" />
  <sodipodi:namedview
     id="base"
     pagecolor="#ffffff"
     bordercolor="#666666"
     borderopacity="1.0"
     inkscape:pageopacity="0.0"
     inkscape:pageshadow="2"
     inkscape:zoom="0.24748737"
     inkscape:cx="843.32838"
     inkscape:cy="933.7677"
     inkscape:document-units="px"
     inkscape:current-layer="layer1"
     showgrid="false">
    <inkscape:grid
       type="xygrid"
       id="grid3385" />
  </sodipodi:namedview>
  <metadata
     id="metadata7">
    <rdf:RDF>
      <cc:Work
         rdf:about="">
        <dc:format>image/svg+xml</dc:format>
        <dc:type
           rdf:resource="http://purl.org/dc/dcmitype/StillImage" />
        <dc:title></dc:title>
      </cc:Work>
    </rdf:RDF>
  </metadata>
  <g
     inkscape:label="Layer 1"
     inkscape:groupmode="layer"
     id="layer1">
    <path
       style="fill:none;stroke:none;stroke-width:1px;stroke-linecap:butt;stroke-linejoin:miter;stroke-opacity:1"
       d="M 125.71429,523.79076 C 167.66373,402.60457 305.10981,248.17059 400,172.36218 325.7435,309.27715 286.46335,366.34833 260,589.50504 221.96026,578.86234 142.7489,597.44882 125.71429,523.79076 z"
       id="path2985"
       inkscape:connector-curvature="0"
       sodipodi:nodetypes="cccc"
       inkscape:tile-cx="194.28571"
       inkscape:tile-cy="520.93361"
       inkscape:tile-w="274.28571"
       inkscape:tile-h="417.14286"
       inkscape:tile-x0="57.142856"
       inkscape:tile-y0="312.36218" />
    <path
       inkscape:tile-y0="312.36218"
       inkscape:tile-x0="57.142856"
       sodipodi:nodetypes="cccc"
       inkscape:connector-curvature="0"
       id="use3253"
       d="M 125.71429,523.79076 C 167.66373,402.60457 305.10981,248.17059 400,172.36218 325.7435,309.27715 286.46335,366.34833 260,589.50504 221.96026,578.86234 142.7489,597.44882 125.71429,523.79076 z"
       style="fill:#ddff55;stroke:none;stroke-width:1px;stroke-linecap:butt;stroke-linejoin:miter;stroke-opacity:1" />
    <path
       inkscape:tile-y0="312.36218"
       inkscape:tile-x0="57.142856"
       sodipodi:nodetypes="cccc"
       inkscape:connector-curvature="0"
       id="use3255"
       d="M 96.129011,498.5479 C 148.48089,381.47899 298.86376,239.61189 400,172.36218 314.09314,302.28427 269.98838,355.71479 224.17635,575.71588 187.20893,561.7983 106.67908,573.41033 96.129011,498.5479 z"
       style="fill:none;stroke:none;stroke-width:1px;stroke-linecap:butt;stroke-linejoin:miter;stroke-opacity:1" />
    <path
       inkscape:tile-y0="312.36218"
       inkscape:tile-x0="57.142856"
       sodipodi:nodetypes="cccc"
       inkscape:connector-curvature="0"
       id="use3257"
       d="M 68.856374,470.82256 C 131.21227,358.7619 293.38741,230.54138 400,172.36218 303.09659,294.3026 254.50289,343.68581 189.69082,558.85696 154.07707,541.77041 72.841602,546.31961 68.856374,470.82256 z"
       style="fill:#808000;stroke:none;stroke-width:1px;stroke-linecap:butt;stroke-linejoin:miter;stroke-opacity:1" />
    <path
       inkscape:tile-y0="312.36218"
       inkscape:tile-x0="57.142856"
       sodipodi:nodetypes="cccc"
       inkscape:connector-curvature="0"
       id="use3259"
       d="M 44.103937,440.82576 C 115.98928,334.6262 288.72245,221.0281 400,172.36218 292.83753,285.39289 240.12471,330.35297 156.80587,539.05658 122.81683,518.93111 41.493998,516.38286 44.103937,440.82576 z"
       style="fill:none;stroke:none;stroke-width:1px;stroke-linecap:butt;stroke-linejoin:miter;stroke-opacity:1" />
    <path
       inkscape:tile-y0="312.36218"
       inkscape:tile-x0="57.142856"
       sodipodi:nodetypes="cccc"
       inkscape:connector-curvature="0"
       id="use3261"
       d="M 22.06009,408.78579 C 102.92779,309.25558 284.90439,211.14443 400,172.36218 283.39404,275.62295 226.96328,315.81772 125.77177,516.46543 93.666129,493.45421 12.874848,483.82791 22.06009,408.78579 z"
       style="fill:none;stroke:none;stroke-width:1px;stroke-linecap:butt;stroke-linejoin:miter;stroke-opacity:1" />
    <path
       inkscape:tile-y0="312.36218"
       inkscape:tile-x0="57.142856"
       sodipodi:nodetypes="cccc"
       inkscape:connector-curvature="0"
       id="use3263"
       d="M 2.8925907,374.94649 C 92.127192,282.8431 281.96226,200.96561 400,172.36218 274.83799,265.06713 215.11876,300.19068 96.824721,491.25545 66.846808,465.5336 -12.798051,448.9025 2.8925907,374.94649 z"
       style="fill:none;stroke:none;stroke-width:1px;stroke-linecap:butt;stroke-linejoin:miter;stroke-opacity:1" />
    <path
       inkscape:tile-y0="312.36218"
       inkscape:tile-x0="57.142856"
       sodipodi:nodetypes="cccc"
       inkscape:connector-curvature="0"
       id="use3265"
       d="M -13.252682,339.56541 C 83.669694,255.58981 279.91848,190.5691 400,172.36219 267.2345,253.80578 204.6813,283.59079 70.185014,463.6185 42.562983,435.38178 -35.329307,411.87246 -13.252682,339.56541 z"
       style="fill:#ff6600;stroke:none;stroke-width:1px;stroke-linecap:butt;stroke-linejoin:miter;stroke-opacity:1" />
    <path
       inkscape:tile-y0="312.36218"
       inkscape:tile-x0="57.142856"
       sodipodi:nodetypes="cccc"
       inkscape:connector-curvature="0"
       id="use3267"
       d="M -26.252852,302.9118 C 77.61966,227.7031 278.78859,180.03402 400,172.36219 260.64144,241.92459 195.73034,266.14439 46.055398,433.76491 20.99947,403.22822 -54.547445,373.01961 -26.252852,302.9118 z"
       style="fill:none;stroke:none;stroke-width:1px;stroke-linecap:butt;stroke-linejoin:miter;stroke-opacity:1" />
    <path
       inkscape:tile-y0="312.36218"
       inkscape:tile-x0="57.142856"
       sodipodi:nodetypes="cccc"
       inkscape:connector-curvature="0"
       id="use3269"
       d="M -36.008978,265.26464 C 74.023139,199.39521 278.58119,169.44056 400,172.36218 255.10898,229.51398 188.33399,247.98424 24.619519,401.92189 2.320383,369.31763 -70.306198,332.63962 -36.008978,265.26464 z"
       style="fill:#ccff00;stroke:none;stroke-width:1px;stroke-linecap:butt;stroke-linejoin:miter;stroke-opacity:1" />
    <path
       inkscape:tile-y0="312.36218"
       inkscape:tile-x0="57.142856"
       sodipodi:nodetypes="cccc"
       inkscape:connector-curvature="0"
       id="use3271"
       d="M -42.446821,226.91042 C 72.907489,170.88158 279.29786,158.86932 400,172.36218 250.67922,216.66841 182.54854,229.24856 6.0405022,368.33177 -13.332131,333.90809 -82.485646,291.03983 -42.446821,226.91042 z"
       style="fill:none;stroke:none;stroke-width:1px;stroke-linecap:butt;stroke-linejoin:miter;stroke-opacity:1" />
    <path
       inkscape:tile-y0="312.36218"
       inkscape:tile-x0="57.142856"
       sodipodi:nodetypes="cccc"
       inkscape:connector-curvature="0"
       id="use3273"
       d="M -45.517361,188.14107 C 74.281226,142.37923 280.93315,148.40078 400,172.36218 247.38589,203.48565 178.41804,210.07995 -9.5402296,333.25022 -25.838922,297.26909 -90.993072,248.53683 -45.517361,188.14107 z"
       style="fill:#ff00cc;stroke:none;stroke-width:1px;stroke-linecap:butt;stroke-linejoin:miter;stroke-opacity:1" />
    <path
       inkscape:tile-y0="312.36218"
       inkscape:tile-x0="57.142856"
       sodipodi:nodetypes="cccc"
       inkscape:connector-curvature="0"
       id="use3275"
       d="M -45.197255,149.25164 C 78.133871,114.10506 283.47461,138.11461 400,172.36218 245.25405,190.06602 175.97391,190.62429 -22.004122,296.94421 -35.104831,259.67948 -95.763754,205.4541 -45.197255,149.25164 z"
       style="fill:none;stroke:none;stroke-width:1px;stroke-linecap:butt;stroke-linejoin:miter;stroke-opacity:1" />
    <path
       inkscape:tile-y0="312.36218"
       inkscape:tile-x0="57.142856"
       sodipodi:nodetypes="cccc"
       inkscape:connector-curvature="0"
       id="use3277"
       d="M -41.488927,110.53808 C 84.436111,86.274264 286.9029,128.08907 400,172.36218 244.29991,176.51165 175.23475,171.02963 -31.256308,259.69005 -41.05933,221.42532 -96.761373,162.11951 -41.488927,110.53808 z"
       style="fill:none;stroke:none;stroke-width:1px;stroke-linecap:butt;stroke-linejoin:miter;stroke-opacity:1" />
    <path
       inkscape:tile-y0="312.36218"
       inkscape:tile-x0="57.142856"
       sodipodi:nodetypes="cccc"
       inkscape:connector-curvature="0"
       id="use3279"
       d="M -34.420612,72.29504 C 93.139976,59.098647 291.19192,118.40048 400,172.36218 244.53074,162.9257 176.20618,151.44512 -37.226382,221.77128 -43.657109,182.79777 -93.978348,118.86288 -34.420612,72.29504 z"
       style="fill:#008080;stroke:none;stroke-width:1px;stroke-linecap:butt;stroke-linejoin:miter;stroke-opacity:1" />
    <path
       inkscape:tile-y0="312.36218"
       inkscape:tile-x0="57.142856"
       sodipodi:nodetypes="cccc"
       inkscape:connector-curvature="0"
       id="use3281"
       d="M -24.046083,34.81358 C 104.17924,32.785041 296.30904,109.12258 400,172.36218 245.94479,149.41158 178.88082,132.0198 -39.868889,183.47648 -42.87838,144.0908 -87.435838,76.013417 -24.046083,34.81358 z"
       style="fill:none;stroke:none;stroke-width:1px;stroke-linecap:butt;stroke-linejoin:miter;stroke-opacity:1" />
    <path
       inkscape:tile-y0="312.36218"
       inkscape:tile-x0="57.142856"
       sodipodi:nodetypes="cccc"
       inkscape:connector-curvature="0"
       id="use3283"
       d="M -10.444311,-1.6210632 C 117.46987,7.5336899 302.21531,100.32595 400,172.36218 248.5313,136.07211 183.23832,112.90151 -39.163732,145.09708 -38.729083,105.59898 -77.183653,33.897216 -10.444311,-1.6210632 z"
       style="fill:none;stroke:none;stroke-width:1px;stroke-linecap:butt;stroke-linejoin:miter;stroke-opacity:1" />
    <path
       inkscape:tile-y0="312.36218"
       inkscape:tile-x0="57.142856"
       sodipodi:nodetypes="cccc"
       inkscape:connector-curvature="0"
       id="use3285"
       d="M 6.2811978,-36.731581 C 132.91074,-16.463208 308.86578,92.077577 400,172.36218 252.27057,123.00884 189.2455,94.235748 -35.116265,106.92519 -31.240783,67.615276 -63.299801,-7.1651767 6.2811978,-36.731581 z"
       style="fill:#44aa00;stroke:none;stroke-width:1px;stroke-linecap:butt;stroke-linejoin:miter;stroke-opacity:1" />
    <path
       inkscape:tile-y0="312.36218"
       inkscape:tile-x0="57.142856"
       sodipodi:nodetypes="cccc"
       inkscape:connector-curvature="0"
       id="use3287"
       d="M 26.003133,-70.250769 C 150.38431,-39.023032 316.20983,84.440217 400,172.36218 257.13415,110.32118 196.85665,76.164581 -27.757314,69.25132 -20.470494,30.42876 -45.889972,-46.861258 26.003133,-70.250769 z"
       style="fill:none;stroke:none;stroke-width:1px;stroke-linecap:butt;stroke-linejoin:miter;stroke-opacity:1" />
    <path
       inkscape:tile-y0="312.36218"
       inkscape:tile-x0="57.142856"
       sodipodi:nodetypes="cccc"
       inkscape:connector-curvature="0"
       id="use3289"
       d="M 48.57142,-101.92353 C 169.75761,-59.97409 324.19159,77.47199 400,172.36218 263.08503,98.10568 206.01385,58.82553 -17.14286,32.36218 -6.50016,-5.67756 -25.08664,-84.88892 48.57142,-101.92353 z"
       style="fill:#ffd42a;stroke:none;stroke-width:1px;stroke-linecap:butt;stroke-linejoin:miter;stroke-opacity:1" />
    <path
       inkscape:tile-y0="312.36218"
       inkscape:tile-x0="57.142856"
       sodipodi:nodetypes="cccc"
       inkscape:connector-curvature="0"
       id="use3291"
       d="M 73.814289,-131.5088 C 190.88319,-79.15692 332.75029,71.225944 400,172.36219 270.07792,86.455329 216.6474,42.350571 -3.3536989,-3.461466 10.563884,-40.428881 -1.048144,-120.95874 73.814289,-131.5088 z"
       style="fill:none;stroke:none;stroke-width:1px;stroke-linecap:butt;stroke-linejoin:miter;stroke-opacity:1" />
    <path
       inkscape:tile-y0="312.36218"
       inkscape:tile-x0="57.142856"
       sodipodi:nodetypes="cccc"
       inkscape:connector-curvature="0"
       id="use3293"
       d="M 101.53962,-158.78145 C 213.60028,-96.42555 341.8208,65.749594 400,172.36218 278.05958,75.458769 228.67637,26.865066 13.505221,-37.947002 30.591766,-73.560748 26.042565,-154.79622 101.53962,-158.78145 z"
       style="fill:#0000aa;stroke:none;stroke-width:1px;stroke-linecap:butt;stroke-linejoin:miter;stroke-opacity:1" />
    <path
       inkscape:tile-y0="312.36218"
       inkscape:tile-x0="57.142856"
       sodipodi:nodetypes="cccc"
       inkscape:connector-curvature="0"
       id="use3295"
       d="M 131.53642,-183.53388 C 237.73598,-111.64853 351.33409,61.08464 400,172.36219 286.96929,65.199712 242.00921,12.486892 33.305602,-70.831949 53.43107,-104.82098 55.979318,-186.14382 131.53642,-183.53388 z"
       style="fill:none;stroke:none;stroke-width:1px;stroke-linecap:butt;stroke-linejoin:miter;stroke-opacity:1" />
    <path
       inkscape:tile-y0="312.36218"
       inkscape:tile-x0="57.142856"
       sodipodi:nodetypes="cccc"
       inkscape:connector-curvature="0"
       id="use3297"
       d="M 163.57639,-205.57773 C 263.1066,-124.71003 361.21775,57.266567 400,172.36218 296.73923,55.756219 256.54446,-0.67454122 55.896748,-101.86605 78.907972,-133.97169 88.534274,-214.76297 163.57639,-205.57773 z"
       style="fill:none;stroke:none;stroke-width:1px;stroke-linecap:butt;stroke-linejoin:miter;stroke-opacity:1" />
    <path
       inkscape:tile-y0="312.36218"
       inkscape:tile-x0="57.142856"
       sodipodi:nodetypes="cccc"
       inkscape:connector-curvature="0"
       id="use3299"
       d="M 197.41569,-224.74523 C 289.51908,-135.51063 371.39657,54.324445 400,172.36218 307.29505,47.200171 272.1715,-12.519058 81.106732,-130.8131 106.82858,-160.79101 123.45968,-240.43587 197.41569,-224.74523 z"
       style="fill:none;stroke:none;stroke-width:1px;stroke-linecap:butt;stroke-linejoin:miter;stroke-opacity:1" />
    <path
       inkscape:tile-y0="312.36218"
       inkscape:tile-x0="57.142856"
       sodipodi:nodetypes="cccc"
       inkscape:connector-curvature="0"
       id="use3301"
       d="M 232.79678,-240.8905 C 316.77238,-143.96812 381.79309,52.280663 400,172.36218 318.55641,39.596683 288.7714,-22.956515 108.74369,-157.4528 136.98041,-185.07483 160.48973,-262.96712 232.79678,-240.8905 z"
       style="fill:#ff00ff;stroke:none;stroke-width:1px;stroke-linecap:butt;stroke-linejoin:miter;stroke-opacity:1" />
    <path
       inkscape:tile-y0="312.36218"
       inkscape:tile-x0="57.142856"
       sodipodi:nodetypes="cccc"
       inkscape:connector-curvature="0"
       id="use3303"
       d="M 269.45039,-253.89067 C 344.65909,-150.01816 392.32817,51.150772 400,172.36218 330.4376,33.003618 306.2178,-31.907481 138.59728,-181.58242 169.13397,-206.63835 199.34258,-282.18526 269.45039,-253.89067 z"
       style="fill:none;stroke:none;stroke-width:1px;stroke-linecap:butt;stroke-linejoin:miter;stroke-opacity:1" />
    <path
       inkscape:tile-y0="312.36218"
       inkscape:tile-x0="57.142856"
       sodipodi:nodetypes="cccc"
       inkscape:connector-curvature="0"
       id="use3305"
       d="M 307.09754,-263.6468 C 372.96697,-153.61468 402.92162,50.943373 400,172.36218 342.8482,27.471157 324.37794,-39.303831 170.44029,-203.0183 203.04455,-225.31744 239.72256,-297.94402 307.09754,-263.6468 z"
       style="fill:#3737c8;stroke:none;stroke-width:1px;stroke-linecap:butt;stroke-linejoin:miter;stroke-opacity:1" />
    <path
       inkscape:tile-y0="312.36218"
       inkscape:tile-x0="57.142856"
       sodipodi:nodetypes="cccc"
       inkscape:connector-curvature="0"
       id="use3307"
       d="M 345.45176,-270.08463 C 401.4806,-154.73032 413.49286,51.660046 400,172.36218 355.69377,23.041405 343.11362,-45.089274 204.03041,-221.59731 238.45409,-240.96994 281.32235,-310.12346 345.45176,-270.08463 z"
       style="fill:none;stroke:none;stroke-width:1px;stroke-linecap:butt;stroke-linejoin:miter;stroke-opacity:1" />
    <path
       inkscape:tile-y0="312.36218"
       inkscape:tile-x0="57.142856"
       sodipodi:nodetypes="cccc"
       inkscape:connector-curvature="0"
       id="use3309"
       d="M 384.22111,-273.15518 C 429.98295,-153.3566 423.9614,53.295333 400,172.36218 368.87653,19.748073 362.28223,-49.219781 239.11196,-237.17805 275.09309,-253.47674 323.82535,-318.63089 384.22111,-273.15518 z"
       style="fill:#165016;stroke:none;stroke-width:1px;stroke-linecap:butt;stroke-linejoin:miter;stroke-opacity:1" />
    <path
       inkscape:tile-y0="312.36218"
       inkscape:tile-x0="57.142856"
       sodipodi:nodetypes="cccc"
       inkscape:connector-curvature="0"
       id="use3311"
       d="M 423.11054,-272.83508 C 458.25712,-149.50395 434.24757,55.836792 400,172.36218 382.29616,17.616227 381.73789,-51.663915 275.41797,-249.64194 312.6827,-262.74265 366.90808,-323.40158 423.11054,-272.83508 z"
       style="fill:#800000;stroke:none;stroke-width:1px;stroke-linecap:butt;stroke-linejoin:miter;stroke-opacity:1" />
    <path
       inkscape:tile-y0="312.36218"
       inkscape:tile-x0="57.142856"
       sodipodi:nodetypes="cccc"
       inkscape:connector-curvature="0"
       id="use3313"
       d="M 461.8241,-269.12675 C 486.08792,-143.20171 444.27311,59.265081 400,172.36218 395.85053,16.662092 401.33255,-52.403074 312.67213,-258.89413 350.93686,-268.69715 410.24267,-324.39919 461.8241,-269.12675 z"
       style="fill:#2ad4ff;stroke:none;stroke-width:1px;stroke-linecap:butt;stroke-linejoin:miter;stroke-opacity:1" />
    <path
       inkscape:tile-y0="312.36218"
       inkscape:tile-x0="57.142856"
       sodipodi:nodetypes="cccc"
       inkscape:connector-curvature="0"
       id="use3315"
       d="M 500.06714,-262.05842 C 513.26353,-134.49783 453.9617,63.554108 400,172.36219 409.43648,16.892931 420.91706,-51.431633 350.5909,-264.86419 389.56441,-271.29492 453.4993,-321.61616 500.06714,-262.05842 z"
       style="fill:none;stroke:none;stroke-width:1px;stroke-linecap:butt;stroke-linejoin:miter;stroke-opacity:1" />
    <path
       inkscape:tile-y0="312.36218"
       inkscape:tile-x0="57.142856"
       sodipodi:nodetypes="cccc"
       inkscape:connector-curvature="0"
       id="use3317"
       d="M 537.5486,-251.68389 C 539.57714,-123.45857 463.2396,68.671228 400,172.36219 422.9506,18.306982 440.34238,-48.756987 388.8857,-267.5067 428.27138,-270.51619 496.34876,-315.07365 537.5486,-251.68389 z"
       style="fill:#ff0066;stroke:none;stroke-width:1px;stroke-linecap:butt;stroke-linejoin:miter;stroke-opacity:1" />
    <path
       inkscape:tile-y0="312.36218"
       inkscape:tile-x0="57.142856"
       sodipodi:nodetypes="cccc"
       inkscape:connector-curvature="0"
       id="use3319"
       d="M 573.98324,-238.08213 C 564.82849,-110.16795 472.03623,74.577488 400,172.36218 436.29007,20.893475 459.46067,-44.399503 427.2651,-266.80155 466.7632,-266.3669 538.46496,-304.82147 573.98324,-238.08213 z"
       style="fill:none;stroke:none;stroke-width:1px;stroke-linecap:butt;stroke-linejoin:miter;stroke-opacity:1" />
    <path
       inkscape:tile-y0="312.36218"
       inkscape:tile-x0="57.142856"
       sodipodi:nodetypes="cccc"
       inkscape:connector-curvature="0"
       id="use3321"
       d="M 609.09376,-221.35662 C 588.82539,-94.727079 480.2846,81.227963 400,172.36218 449.35334,24.632752 478.12643,-38.392315 465.43699,-262.75409 504.7469,-258.8786 579.52736,-290.93762 609.09376,-221.35662 z"
       style="fill:#7f2aff;stroke:none;stroke-width:1px;stroke-linecap:butt;stroke-linejoin:miter;stroke-opacity:1" />
    <path
       inkscape:tile-y0="312.36218"
       inkscape:tile-x0="57.142856"
       sodipodi:nodetypes="cccc"
       inkscape:connector-curvature="0"
       id="use3323"
       d="M 642.61295,-201.63468 C 611.38521,-77.253502 487.92196,88.572025 400,172.36219 462.041,29.496338 496.1976,-30.781159 503.11086,-255.39512 541.93342,-248.1083 619.22344,-273.52778 642.61295,-201.63468 z"
       style="fill:none;stroke:none;stroke-width:1px;stroke-linecap:butt;stroke-linejoin:miter;stroke-opacity:1" />
    <path
       inkscape:tile-y0="312.36218"
       inkscape:tile-x0="57.142856"
       sodipodi:nodetypes="cccc"
       inkscape:connector-curvature="0"
       id="use3325"
       d="M 674.28571,-179.0664 C 632.33627,-57.88021 494.89019,96.55377 400,172.36218 474.2565,35.44721 513.53665,-21.62397 540,-244.78068 578.03974,-234.13798 657.2511,-252.72446 674.28571,-179.0664 z"
       style="fill:#c83737;stroke:none;stroke-width:1px;stroke-linecap:butt;stroke-linejoin:miter;stroke-opacity:1" />
    <path
       inkscape:tile-y0="312.36218"
       inkscape:tile-x0="57.142856"
       sodipodi:nodetypes="cccc"
       inkscape:connector-curvature="0"
       id="use3327"
       d="M 703.87099,-153.82353 C 651.51911,-36.754625 501.13625,105.11247 400,172.36218 485.90686,42.440097 530.01162,-10.99042 575.82366,-230.99152 612.79107,-217.07394 693.32093,-228.68596 703.87099,-153.82353 z"
       style="fill:#ff2a2a;stroke:none;stroke-width:1px;stroke-linecap:butt;stroke-linejoin:miter;stroke-opacity:1" />
    <path
       inkscape:tile-y0="312.36218"
       inkscape:tile-x0="57.142856"
       sodipodi:nodetypes="cccc"
       inkscape:connector-curvature="0"
       id="use3329"
       d="M 731.14363,-126.09819 C 668.78773,-14.037532 506.61259,114.18299 400,172.36219 496.90341,50.42177 545.49711,1.0385561 610.30918,-214.13259 645.92293,-197.04604 727.1584,-201.59524 731.14363,-126.09819 z"
       style="fill:none;stroke:none;stroke-width:1px;stroke-linecap:butt;stroke-linejoin:miter;stroke-opacity:1" />
    <path
       inkscape:tile-y0="312.36218"
       inkscape:tile-x0="57.142856"
       sodipodi:nodetypes="cccc"
       inkscape:connector-curvature="0"
       id="use3331"
       d="M 755.89607,-96.101398 C 684.01072,10.098159 511.27755,123.69627 400,172.36218 507.16248,59.331469 559.8753,14.371393 643.19414,-194.33222 677.18317,-174.20675 758.50601,-171.6585 755.89607,-96.101398 z"
       style="fill:none;stroke:none;stroke-width:1px;stroke-linecap:butt;stroke-linejoin:miter;stroke-opacity:1" />
    <path
       inkscape:tile-y0="312.36218"
       inkscape:tile-x0="57.142856"
       sodipodi:nodetypes="cccc"
       inkscape:connector-curvature="0"
       id="use3333"
       d="M 777.93991,-64.061421 C 697.07221,35.468794 515.09561,133.57994 400,172.36219 516.60596,69.101417 573.03672,28.906653 674.22823,-171.74106 706.33387,-148.72984 787.12515,-139.10354 777.93991,-64.061421 z"
       style="fill:#00ffcc;stroke:none;stroke-width:1px;stroke-linecap:butt;stroke-linejoin:miter;stroke-opacity:1" />
    <path
       inkscape:tile-y0="312.36218"
       inkscape:tile-x0="57.142856"
       sodipodi:nodetypes="cccc"
       inkscape:connector-curvature="0"
       id="use3335"
       d="M 797.10741,-30.222131 C 707.87281,61.881258 518.03774,143.75875 400,172.36218 525.16201,79.657229 584.88124,44.533682 703.17528,-146.53109 733.15319,-120.80924 812.79805,-104.17814 797.10741,-30.222131 z"
       style="fill:none;stroke:none;stroke-width:1px;stroke-linecap:butt;stroke-linejoin:miter;stroke-opacity:1" />
    <path
       inkscape:tile-y0="312.36218"
       inkscape:tile-x0="57.142856"
       sodipodi:nodetypes="cccc"
       inkscape:connector-curvature="0"
       id="use3337"
       d="M 813.25268,5.1589626 C 716.33031,89.134561 520.08152,154.15527 400,172.36218 532.7655,90.918592 595.3187,61.133576 729.81499,-118.89413 757.43702,-90.65741 835.32931,-67.148093 813.25268,5.1589626 z"
       style="fill:#00ff00;stroke:none;stroke-width:1px;stroke-linecap:butt;stroke-linejoin:miter;stroke-opacity:1" />
    <path
       inkscape:tile-y0="312.36218"
       inkscape:tile-x0="57.142856"
       sodipodi:nodetypes="cccc"
       inkscape:connector-curvature="0"
       id="use3339"
       d="M 826.25285,41.812565 C 722.38034,117.02127 521.21141,164.69035 400,172.36218 539.35856,102.79978 604.26966,78.57998 753.9446,-89.040541 779.00053,-58.503852 854.54744,-28.295236 826.25285,41.812565 z"
       style="fill:none;stroke:none;stroke-width:1px;stroke-linecap:butt;stroke-linejoin:miter;stroke-opacity:1" />
    <path
       inkscape:tile-y0="312.36218"
       inkscape:tile-x0="57.142856"
       sodipodi:nodetypes="cccc"
       inkscape:connector-curvature="0"
       id="use3341"
       d="M 836.00898,79.459733 C 725.97686,145.32916 521.41881,175.28381 400,172.36219 544.89102,115.21039 611.66601,96.740127 775.38048,-57.197517 797.67962,-24.593262 870.3062,12.084749 836.00898,79.459733 z"
       style="fill:#660080;stroke:none;stroke-width:1px;stroke-linecap:butt;stroke-linejoin:miter;stroke-opacity:1" />
    <path
       inkscape:tile-y0="312.36218"
       inkscape:tile-x0="57.142856"
       sodipodi:nodetypes="cccc"
       inkscape:connector-curvature="0"
       id="use3343"
       d="M 227.23717,583.32166 C 236.01178,455.38084 328.25466,270.36049 400,172.36218 364.16018,323.93805 341.1837,389.29959 374.04,611.60498 334.54078,611.28771 262.95361,649.95517 227.23717,583.32166 z"
       style="fill:#ff0000;stroke:none;stroke-width:1px;stroke-linecap:butt;stroke-linejoin:miter;stroke-opacity:1" />
    <path
       inkscape:tile-y0="312.36218"
       inkscape:tile-x0="57.142856"
       sodipodi:nodetypes="cccc"
       inkscape:connector-curvature="0"
       id="use3345"
       d="M 845.51736,156.58329 C 725.71877,202.34513 519.06685,196.32358 400,172.36218 552.61411,141.23871 621.58196,134.64441 809.54023,11.47414 825.83892,47.455267 890.99307,96.18753 845.51736,156.58329 z"
       style="fill:none;stroke:none;stroke-width:1px;stroke-linecap:butt;stroke-linejoin:miter;stroke-opacity:1" />
    <path
       inkscape:tile-y0="312.36218"
       inkscape:tile-x0="57.142856"
       sodipodi:nodetypes="cccc"
       inkscape:connector-curvature="0"
       id="use3347"
       d="M 845.19725,195.47272 C 721.86613,230.6193 516.52539,206.60975 400,172.36218 554.74595,154.65834 624.02609,154.10007 822.00412,47.780147 835.10483,85.04488 895.76375,139.27026 845.19725,195.47272 z"
       style="fill:#ff6600;stroke:none;stroke-width:1px;stroke-linecap:butt;stroke-linejoin:miter;stroke-opacity:1" />
    <path
       inkscape:tile-y0="312.36218"
       inkscape:tile-x0="57.142856"
       sodipodi:nodetypes="cccc"
       inkscape:connector-curvature="0"
       id="use3349"
       d="M 841.48893,234.18628 C 715.56389,258.4501 513.0971,216.63529 400,172.36218 555.70009,168.21271 624.76525,173.69473 831.25631,85.034306 841.05933,123.29904 896.76137,182.60485 841.48893,234.18628 z"
       style="fill:none;stroke:none;stroke-width:1px;stroke-linecap:butt;stroke-linejoin:miter;stroke-opacity:1" />
    <path
       inkscape:tile-y0="312.36218"
       inkscape:tile-x0="57.142856"
       sodipodi:nodetypes="cccc"
       inkscape:connector-curvature="0"
       id="use3351"
       d="M 834.42061,272.42932 C 706.86002,285.62571 508.80808,226.32388 400,172.36218 555.46926,181.79866 623.79382,193.27924 837.22638,122.95308 843.65711,161.92659 893.97835,225.86148 834.42061,272.42932 z"
       style="fill:#ffff00;stroke:none;stroke-width:1px;stroke-linecap:butt;stroke-linejoin:miter;stroke-opacity:1" />
    <path
       inkscape:tile-y0="312.36218"
       inkscape:tile-x0="57.142856"
       sodipodi:nodetypes="cccc"
       inkscape:connector-curvature="0"
       id="use3353"
       d="M 824.04608,309.91079 C 695.82076,311.93933 503.69096,235.60179 400,172.36219 554.05521,195.31279 621.11918,212.70457 839.86889,161.24789 842.87838,200.63357 887.43584,268.71095 824.04608,309.91079 z"
       style="fill:none;stroke:none;stroke-width:1px;stroke-linecap:butt;stroke-linejoin:miter;stroke-opacity:1" />
    <path
       inkscape:tile-y0="312.36218"
       inkscape:tile-x0="57.142856"
       sodipodi:nodetypes="cccc"
       inkscape:connector-curvature="0"
       id="use3355"
       d="M 810.44431,346.34542 C 682.53013,337.19067 497.78469,244.39841 400,172.36218 551.4687,208.65225 616.76168,231.82285 839.16373,199.62728 838.72908,239.12538 877.18365,310.82714 810.44431,346.34542 z"
       style="fill:none;stroke:none;stroke-width:1px;stroke-linecap:butt;stroke-linejoin:miter;stroke-opacity:1" />
    <path
       inkscape:tile-y0="312.36218"
       inkscape:tile-x0="57.142856"
       sodipodi:nodetypes="cccc"
       inkscape:connector-curvature="0"
       id="use3357"
       d="M 793.7188,381.45594 C 667.08926,361.18757 491.13422,252.64678 400,172.36218 547.72943,221.71552 610.7545,250.48861 835.11627,237.79917 831.24078,277.10908 863.2998,351.88954 793.7188,381.45594 z"
       style="fill:#2aff2a;stroke:none;stroke-width:1px;stroke-linecap:butt;stroke-linejoin:miter;stroke-opacity:1" />
    <path
       inkscape:tile-y0="312.36218"
       inkscape:tile-x0="57.142856"
       sodipodi:nodetypes="cccc"
       inkscape:connector-curvature="0"
       id="use3359"
       d="M 773.99686,414.97513 C 649.61568,383.74739 483.79016,260.28414 399.99999,172.36218 542.86584,234.40318 603.14334,268.55978 827.7573,275.47304 820.47048,314.2956 845.88996,391.58562 773.99686,414.97513 z"
       style="fill:#abc837;stroke:none;stroke-width:1px;stroke-linecap:butt;stroke-linejoin:miter;stroke-opacity:1" />
    <path
       inkscape:tile-y0="312.36218"
       inkscape:tile-x0="57.142856"
       sodipodi:nodetypes="cccc"
       inkscape:connector-curvature="0"
       id="use3361"
       d="M 751.42858,446.64789 C 630.24239,404.69845 475.80841,267.25237 400,172.36218 536.91497,246.61868 593.98615,285.89883 817.14286,312.36218 806.50016,350.40192 825.08664,429.61328 751.42858,446.64789 z"
       style="fill:#37c837;stroke:none;stroke-width:1px;stroke-linecap:butt;stroke-linejoin:miter;stroke-opacity:1" />
    <path
       inkscape:tile-y0="312.36218"
       inkscape:tile-x0="57.142856"
       sodipodi:nodetypes="cccc"
       inkscape:connector-curvature="0"
       id="use3363"
       d="M 726.18571,476.23317 C 609.11681,423.88129 467.24971,273.49843 400,172.36218 529.92208,258.26904 583.3526,302.3738 803.3537,348.18584 789.43612,385.15325 801.04814,465.68311 726.18571,476.23317 z"
       style="fill:none;stroke:none;stroke-width:1px;stroke-linecap:butt;stroke-linejoin:miter;stroke-opacity:1" />
    <path
       inkscape:tile-y0="312.36218"
       inkscape:tile-x0="57.142856"
       sodipodi:nodetypes="cccc"
       inkscape:connector-curvature="0"
       id="use3365"
       d="M 698.46038,503.50581 C 586.39972,441.14991 458.1792,278.97477 400,172.36218 521.94042,269.26559 571.32363,317.85929 786.49478,382.67136 769.40823,418.28511 773.95743,499.52058 698.46038,503.50581 z"
       style="fill:#ff00cc;stroke:none;stroke-width:1px;stroke-linecap:butt;stroke-linejoin:miter;stroke-opacity:1" />
    <path
       inkscape:tile-y0="312.36218"
       inkscape:tile-x0="57.142856"
       sodipodi:nodetypes="cccc"
       inkscape:connector-curvature="0"
       id="use3367"
       d="M 668.46358,528.25825 C 562.26402,456.3729 448.66591,283.63973 400,172.36218 513.03071,279.52466 557.99079,332.23748 766.6944,415.55632 746.56893,449.54535 744.02068,530.86819 668.46358,528.25825 z"
       style="fill:#aa87de;stroke:none;stroke-width:1px;stroke-linecap:butt;stroke-linejoin:miter;stroke-opacity:1" />
    <path
       inkscape:tile-y0="312.36218"
       inkscape:tile-x0="57.142856"
       sodipodi:nodetypes="cccc"
       inkscape:connector-curvature="0"
       id="use3369"
       d="M 636.42361,550.30209 C 536.8934,469.43439 438.78225,287.45779 400,172.36218 503.26077,288.96814 543.45554,345.3989 744.10325,446.59041 721.09203,478.69605 711.46573,559.48733 636.42361,550.30209 z"
       style="fill:#5a2ca0;stroke:none;stroke-width:1px;stroke-linecap:butt;stroke-linejoin:miter;stroke-opacity:1" />
    <path
       inkscape:tile-y0="312.36218"
       inkscape:tile-x0="57.142856"
       sodipodi:nodetypes="cccc"
       inkscape:connector-curvature="0"
       id="use3371"
       d="M 603.28739,546.29431 C 510.86435,462.26747 428.70269,283.51121 400,172.36219 493.02669,290.21971 528.27213,346.45371 720,457.84409 694.18888,486.07248 677.50007,561.06925 603.28739,546.29431 z"
       style="fill:none;stroke:none;stroke-width:0.97206366000000000px;stroke-linecap:butt;stroke-linejoin:miter;stroke-opacity:1" />
    <path
       inkscape:tile-y0="312.36218"
       inkscape:tile-x0="57.142856"
       sodipodi:nodetypes="cccc"
       inkscape:connector-curvature="0"
       id="use3373"
       d="M 567.20322,585.61486 C 483.22762,488.69249 418.20691,292.4437 400,172.36218 481.44359,305.12768 511.22861,367.68088 691.25631,502.17717 663.01959,529.7992 639.51028,607.69149 567.20322,585.61486 z"
       style="fill:#ddff55;stroke:none;stroke-width:1px;stroke-linecap:butt;stroke-linejoin:miter;stroke-opacity:1" />
    <path
       inkscape:tile-y0="312.36218"
       inkscape:tile-x0="57.142856"
       sodipodi:nodetypes="cccc"
       inkscape:connector-curvature="0"
       id="use3375"
       d="M 529.14689,604.67043 C 453.93819,500.79792 406.26911,299.62899 398.59728,178.41758 468.15967,317.77614 492.37948,382.68724 660,532.36218 629.46331,557.41811 599.25469,632.96502 529.14689,604.67043 z"
       style="fill:none;stroke:none;stroke-width:1px;stroke-linecap:butt;stroke-linejoin:miter;stroke-opacity:1" />
    <path
       inkscape:tile-y0="312.36218"
       inkscape:tile-x0="57.142856"
       sodipodi:nodetypes="cccc"
       inkscape:connector-curvature="0"
       id="use3377"
       d="M 492.90245,608.37117 C 427.03302,498.33905 397.07837,293.781 400,172.36219 457.15179,317.25321 475.62206,384.0282 629.5597,547.74267 596.95545,570.04181 560.27744,642.66839 492.90245,608.37117 z"
       style="fill:#0066ff;stroke:none;stroke-width:1px;stroke-linecap:butt;stroke-linejoin:miter;stroke-opacity:1" />
    <path
       inkscape:tile-y0="312.36218"
       inkscape:tile-x0="57.142856"
       sodipodi:nodetypes="cccc"
       inkscape:connector-curvature="0"
       id="use3379"
       d="M 454.54824,614.809 C 398.5194,499.45469 386.50714,293.06432 400,172.36218 444.30623,321.68296 456.88639,389.81364 595.96959,566.32168 561.54591,585.69431 518.67765,654.84783 454.54824,614.809 z"
       style="fill:none;stroke:none;stroke-width:1px;stroke-linecap:butt;stroke-linejoin:miter;stroke-opacity:1" />
    <path
       inkscape:tile-y0="312.36218"
       inkscape:tile-x0="57.142856"
       sodipodi:nodetypes="cccc"
       inkscape:connector-curvature="0"
       id="use3381"
       d="M 415.77889,617.87955 C 370.01705,498.08096 376.0386,291.42904 400,172.36219 431.12347,324.9763 437.71777,393.94415 560.88804,581.90242 524.90691,598.20111 476.17465,663.35526 415.77889,617.87955 z"
       style="fill:#d42aff;stroke:none;stroke-width:1px;stroke-linecap:butt;stroke-linejoin:miter;stroke-opacity:1" />
    <path
       inkscape:tile-y0="312.36218"
       inkscape:tile-x0="57.142856"
       sodipodi:nodetypes="cccc"
       inkscape:connector-curvature="0"
       id="use3383"
       d="M 376.88945,617.55944 C 341.74288,494.22832 365.75243,288.88757 400,172.36218 417.70384,327.10814 418.26211,396.38828 524.58203,594.36631 487.3173,607.46702 433.09192,668.12594 376.88945,617.55944 z"
       style="fill:#00ff66;stroke:none;stroke-width:1px;stroke-linecap:butt;stroke-linejoin:miter;stroke-opacity:1" />
  </g>
</svg>
