<?xml version="1.0" encoding="UTF-8" standalone="no"?>
<!-- Created with Inkscape (http://www.inkscape.org/) -->

<svg
   xmlns:dc="http://purl.org/dc/elements/1.1/"
   xmlns:cc="http://creativecommons.org/ns#"
   xmlns:rdf="http://www.w3.org/1999/02/22-rdf-syntax-ns#"
   xmlns:svg="http://www.w3.org/2000/svg"
   xmlns="http://www.w3.org/2000/svg"
   xmlns:xlink="http://www.w3.org/1999/xlink"
   version="1.1"
   width="48"
   height="48"
   id="svg7631">
  <defs
     id="defs3">
    <radialGradient
       cx="605.71429"
       cy="486.64789"
       r="117.14286"
       fx="605.71429"
       fy="486.64789"
       id="radialGradient6719"
       xlink:href="#linearGradient5060"
       gradientUnits="userSpaceOnUse"
       gradientTransform="matrix(-2.774389,0,0,1.969706,112.7623,-872.8854)" />
    <linearGradient
       id="linearGradient5060">
      <stop
         id="stop5062"
         style="stop-color:#000000;stop-opacity:1"
         offset="0" />
      <stop
         id="stop5064"
         style="stop-color:#000000;stop-opacity:0"
         offset="1" />
    </linearGradient>
    <radialGradient
       cx="605.71429"
       cy="486.64789"
       r="117.14286"
       fx="605.71429"
       fy="486.64789"
       id="radialGradient6717"
       xlink:href="#linearGradient5060"
       gradientUnits="userSpaceOnUse"
       gradientTransform="matrix(2.774389,0,0,1.969706,-1891.633,-872.8854)" />
    <linearGradient
       id="linearGradient5048">
      <stop
         id="stop5050"
         style="stop-color:#000000;stop-opacity:0"
         offset="0" />
      <stop
         id="stop5056"
         style="stop-color:#000000;stop-opacity:1"
         offset="0.5" />
      <stop
         id="stop5052"
         style="stop-color:#000000;stop-opacity:0"
         offset="1" />
    </linearGradient>
    <linearGradient
       x1="302.85715"
       y1="366.64789"
       x2="302.85715"
       y2="609.50507"
       id="linearGradient6715"
       xlink:href="#linearGradient5048"
       gradientUnits="userSpaceOnUse"
       gradientTransform="matrix(2.774389,0,0,1.969706,-1892.179,-872.8854)" />
    <linearGradient
       id="linearGradient2818">
      <stop
         id="stop2820"
         style="stop-color:#ffffff;stop-opacity:1"
         offset="0" />
      <stop
         id="stop2822"
         style="stop-color:#ffffff;stop-opacity:0"
         offset="1" />
    </linearGradient>
    <linearGradient
       id="linearGradient2690">
      <stop
         id="stop2692"
         style="stop-color:#ffffff;stop-opacity:1"
         offset="0" />
      <stop
         id="stop2694"
         style="stop-color:#ffffff;stop-opacity:0"
         offset="1" />
    </linearGradient>
    <linearGradient
       id="linearGradient2673">
      <stop
         id="stop2675"
         style="stop-color:#8b8b8b;stop-opacity:1"
         offset="0" />
      <stop
         id="stop2681"
         style="stop-color:#d3d9da;stop-opacity:1"
         offset="0.5" />
      <stop
         id="stop2677"
         style="stop-color:#828282;stop-opacity:1"
         offset="1" />
    </linearGradient>
    <linearGradient
       id="linearGradient2656">
      <stop
         id="stop2658"
         style="stop-color:#000000;stop-opacity:1"
         offset="0" />
      <stop
         id="stop2660"
         style="stop-color:#000000;stop-opacity:0"
         offset="1" />
    </linearGradient>
    <linearGradient
       id="linearGradient2631">
      <stop
         id="stop2633"
         style="stop-color:#010101;stop-opacity:1"
         offset="0" />
      <stop
         id="stop2635"
         style="stop-color:#959595;stop-opacity:1"
         offset="1" />
    </linearGradient>
    <linearGradient
       id="linearGradient2615">
      <stop
         id="stop2617"
         style="stop-color:#363d40;stop-opacity:1"
         offset="0" />
      <stop
         id="stop2623"
         style="stop-color:#818f95;stop-opacity:1"
         offset="0.5" />
      <stop
         id="stop2619"
         style="stop-color:#31383b;stop-opacity:1"
         offset="1" />
    </linearGradient>
    <linearGradient
       id="linearGradient2304">
      <stop
         id="stop2306"
         style="stop-color:#353633;stop-opacity:1"
         offset="0" />
      <stop
         id="stop2308"
         style="stop-color:#676964;stop-opacity:1"
         offset="1" />
    </linearGradient>
    <linearGradient
       id="linearGradient2290">
      <stop
         id="stop2292"
         style="stop-color:#555753;stop-opacity:1"
         offset="0" />
      <stop
         id="stop2294"
         style="stop-color:#313330;stop-opacity:1"
         offset="1" />
    </linearGradient>
    <linearGradient
       id="linearGradient2268">
      <stop
         id="stop2270"
         style="stop-color:#555753;stop-opacity:1"
         offset="0" />
      <stop
         id="stop2272"
         style="stop-color:#141514;stop-opacity:1"
         offset="1" />
    </linearGradient>
    <linearGradient
       id="linearGradient2230">
      <stop
         id="stop2232"
         style="stop-color:#eeeeee;stop-opacity:1"
         offset="0" />
      <stop
         id="stop2234"
         style="stop-color:#a2a2a2;stop-opacity:1"
         offset="1" />
    </linearGradient>
    <linearGradient
       id="linearGradient3301">
      <stop
         id="stop3303"
         style="stop-color:#ffffff;stop-opacity:1"
         offset="0" />
      <stop
         id="stop3305"
         style="stop-color:#cbcbcb;stop-opacity:1"
         offset="1" />
    </linearGradient>
    <linearGradient
       id="linearGradient2591">
      <stop
         id="stop2593"
         style="stop-color:#7a7a7a;stop-opacity:1"
         offset="0" />
      <stop
         id="stop2595"
         style="stop-color:#000000;stop-opacity:1"
         offset="1" />
    </linearGradient>
    <radialGradient
       cx="25.375"
       cy="36.8125"
       r="17.5"
       fx="25.375"
       fy="36.8125"
       id="radialGradient1415"
       xlink:href="#linearGradient2656"
       gradientUnits="userSpaceOnUse"
       gradientTransform="matrix(1,0,0,0.453571,0,20.1154)" />
    <linearGradient
       x1="22.549892"
       y1="39.051506"
       x2="38.416191"
       y2="30.566227"
       id="linearGradient1423"
       xlink:href="#linearGradient2615"
       gradientUnits="userSpaceOnUse" />
    <linearGradient
       x1="23.660564"
       y1="35.302856"
       x2="33.904015"
       y2="30.916578"
       id="linearGradient1425"
       xlink:href="#linearGradient2673"
       gradientUnits="userSpaceOnUse" />
    <radialGradient
       cx="16.875"
       cy="23.672499"
       r="4.625"
       fx="16.875"
       fy="23.672499"
       id="radialGradient1431"
       xlink:href="#linearGradient2591"
       gradientUnits="userSpaceOnUse"
       gradientTransform="matrix(1,0,0,1.013514,0,-0.304899)" />
    <linearGradient
       x1="12.835793"
       y1="18.849401"
       x2="18.422049"
       y2="27.072878"
       id="linearGradient1433"
       xlink:href="#linearGradient2631"
       gradientUnits="userSpaceOnUse" />
    <linearGradient
       x1="6.5595827"
       y1="29.37381"
       x2="6.5595827"
       y2="30.191154"
       id="linearGradient1451"
       xlink:href="#linearGradient3301"
       gradientUnits="userSpaceOnUse"
       gradientTransform="matrix(0.655244,0,0,1.898477,14.94194,-35.5518)" />
    <linearGradient
       x1="6.5595827"
       y1="29.37381"
       x2="6.5595827"
       y2="30.191154"
       id="linearGradient1456"
       xlink:href="#linearGradient3301"
       gradientUnits="userSpaceOnUse"
       gradientTransform="matrix(1.477785,0,0,1.982181,18.56747,-51.60768)" />
    <linearGradient
       x1="7.9151335"
       y1="30.816841"
       x2="7.9151335"
       y2="24.700985"
       id="linearGradient1458"
       xlink:href="#linearGradient2230"
       gradientUnits="userSpaceOnUse"
       gradientTransform="matrix(1.318423,0,0,0.773191,18.70736,-14.22023)" />
    <linearGradient
       x1="29.395439"
       y1="9.4121714"
       x2="29.395439"
       y2="12.84669"
       id="linearGradient1461"
       xlink:href="#linearGradient2268"
       gradientUnits="userSpaceOnUse" />
    <linearGradient
       x1="16.66662"
       y1="16.12499"
       x2="35.888493"
       y2="57.124992"
       id="linearGradient1469"
       xlink:href="#linearGradient2690"
       gradientUnits="userSpaceOnUse" />
    <linearGradient
       x1="7.8705277"
       y1="29.71875"
       x2="14.84375"
       y2="29.71875"
       id="linearGradient1475"
       xlink:href="#linearGradient2290"
       gradientUnits="userSpaceOnUse"
       gradientTransform="matrix(1.024993,0,0,1,-0.06795098,0)" />
    <linearGradient
       x1="16.353432"
       y1="26.09341"
       x2="30.130077"
       y2="26.09341"
       id="linearGradient1482"
       xlink:href="#linearGradient2304"
       gradientUnits="userSpaceOnUse" />
    <linearGradient
       x1="7.8705277"
       y1="29.71875"
       x2="14.84375"
       y2="29.71875"
       id="linearGradient1485"
       xlink:href="#linearGradient2290"
       gradientUnits="userSpaceOnUse"
       gradientTransform="matrix(1.035758,0,0,1,-0.162473,0.20203)" />
    <radialGradient
       cx="14.75"
       cy="22.6875"
       r="1.75"
       fx="14.75"
       fy="22.6875"
       id="radialGradient2824"
       xlink:href="#linearGradient2818"
       gradientUnits="userSpaceOnUse"
       gradientTransform="matrix(1,0,0,1.035714,0,-0.810268)" />
  </defs>
  <metadata
     id="metadata4">
    <rdf:RDF>
      <cc:Work
         rdf:about="">
        <dc:format>image/svg+xml</dc:format>
        <dc:type
           rdf:resource="http://purl.org/dc/dcmitype/StillImage" />
        <dc:creator>
          <cc:Agent>
            <dc:title>Jakub Steiner</dc:title>
          </cc:Agent>
        </dc:creator>
        <dc:source>http://jimmac.musichall.cz</dc:source>
        <dc:title></dc:title>
        <dc:subject>
          <rdf:Bag>
            <rdf:li>camera</rdf:li>
            <rdf:li>photo</rdf:li>
            <rdf:li>SLR</rdf:li>
          </rdf:Bag>
        </dc:subject>
        <cc:license
           rdf:resource="http://creativecommons.org/licenses/publicdomain/" />
      </cc:Work>
      <cc:License
         rdf:about="http://creativecommons.org/licenses/publicdomain/">
        <cc:permits
           rdf:resource="http://creativecommons.org/ns#Reproduction" />
        <cc:permits
           rdf:resource="http://creativecommons.org/ns#Distribution" />
        <cc:permits
           rdf:resource="http://creativecommons.org/ns#DerivativeWorks" />
      </cc:License>
    </rdf:RDF>
  </metadata>
  <g
     id="layer1">
    <g
       transform="matrix(0.0245274,0,0,0.02086758,45.15006,37.31476)"
       id="g6707">
      <rect
         width="1339.6335"
         height="478.35718"
         x="-1559.2523"
         y="-150.69685"
         id="rect6709"
         style="opacity:0.40206185;color:#000000;fill:url(#linearGradient6715);fill-opacity:1;fill-rule:nonzero;stroke:none;stroke-width:1;marker:none;visibility:visible;display:inline;overflow:visible" />
      <path
         d="M -219.61876,-150.68038 C -219.61876,-150.68038 -219.61876,327.65041 -219.61876,327.65041 -76.744594,328.55086 125.78146,220.48075 125.78138,88.454235 125.78138,-43.572302 -33.655436,-150.68036 -219.61876,-150.68038 z"
         id="path6711"
         style="opacity:0.40206185;color:#000000;fill:url(#radialGradient6717);fill-opacity:1;fill-rule:nonzero;stroke:none;stroke-width:1;marker:none;visibility:visible;display:inline;overflow:visible" />
      <path
         d="M -1559.2523,-150.68038 C -1559.2523,-150.68038 -1559.2523,327.65041 -1559.2523,327.65041 -1702.1265,328.55086 -1904.6525,220.48075 -1904.6525,88.454235 -1904.6525,-43.572302 -1745.2157,-150.68036 -1559.2523,-150.68038 z"
         id="path6713"
         style="opacity:0.40206185;color:#000000;fill:url(#radialGradient6719);fill-opacity:1;fill-rule:nonzero;stroke:none;stroke-width:1;marker:none;visibility:visible;display:inline;overflow:visible" />
    </g>
    <path
       d="M 42.875,36.8125 A 17.5,7.9375 0 1 1 7.875,36.8125 17.5,7.9375 0 1 1 42.875,36.8125 z"
       transform="matrix(0.693194,0,0,0.811023,13.91019,9.95669)"
       id="path2664"
       style="opacity:0.39873418;color:#000000;fill:url(#radialGradient1415);fill-opacity:1;fill-rule:nonzero;stroke:none;stroke-width:1;marker:none;visibility:visible;display:block;overflow:visible" />
    <path
       d="M 8.9327762,18.92078 C 5.4615071,18.92078 2.6534933,20.04078 2.6534933,21.42078 2.6534933,21.577572 2.8105028,21.709462 2.8800654,21.85828 2.8698789,21.907712 2.7829631,21.89946 2.7829631,21.95203 2.7829631,21.95203 2.6534933,38.263988 2.6534933,38.42078 2.6534933,39.80078 5.4615071,40.92078 8.9327762,40.92078 12.404046,40.92078 15.212059,39.80078 15.212059,38.42078 L 15.08259,21.95203 C 15.08259,21.89946 14.995674,21.907712 14.985487,21.85828 15.05505,21.709462 15.212059,21.577572 15.212059,21.42078 15.212059,20.04078 12.404046,18.92078 8.9327762,18.92078 z"
       id="path2608"
       style="color:#000000;fill:url(#linearGradient1485);fill-opacity:1;fill-rule:nonzero;stroke:#282828;stroke-width:2.00000024;stroke-linecap:butt;stroke-linejoin:miter;stroke-miterlimit:4;stroke-opacity:1;stroke-dasharray:none;stroke-dashoffset:0;marker:none;visibility:visible;display:block;overflow:visible" />
    <path
       d="M 2.1428571,38.647933 42.285714,38.647933 C 43.396882,38.748948 44.505076,37.497897 44.505076,36.79079 L 44.505076,19.142857 C 44.404061,18.031689 40.536106,16.719102 39.626969,16.618087 L 37.194851,16.618087 34.271326,13.533125 23.714286,13.533125 20.278818,16.564532 C 20.278818,16.564532 13.552003,16.776186 8.3377087,17.731617 3.1234141,18.687048 2,20.318891 2,21.531074 L 2.1428571,38.647933 z"
       id="path8417"
       style="color:#000000;fill:url(#linearGradient1482);fill-opacity:1;fill-rule:nonzero;stroke:#282828;stroke-width:1;stroke-linecap:butt;stroke-linejoin:miter;stroke-miterlimit:4;stroke-opacity:1;stroke-dasharray:none;stroke-dashoffset:0;marker:none;visibility:visible;display:block;overflow:visible" />
    <path
       d="M 33.890618,13.907352 35.254324,17.695424 37.123106,17.240855 33.890618,13.907352 z"
       id="path2300"
       style="color:#000000;fill:#3f413e;fill-opacity:1;fill-rule:nonzero;stroke:none;stroke-width:1;marker:none;visibility:visible;display:block;overflow:visible" />
    <path
       d="M 43.133513,33.908371 A 1.9697975,1.9697975 0 1 1 39.193918,33.908371 1.9697975,1.9697975 0 1 1 43.133513,33.908371 z"
       transform="matrix(1.256914,0,0,1.256914,-11.68675,-10.02479)"
       id="path2302"
       style="color:#000000;fill:#585b57;fill-opacity:1;fill-rule:nonzero;stroke:#a7a7a7;stroke-width:0.79559946;stroke-linecap:butt;stroke-linejoin:miter;stroke-miterlimit:4;stroke-opacity:1;stroke-dasharray:none;stroke-dashoffset:0;marker:none;visibility:visible;display:block;overflow:visible" />
    <path
       d="M 40.714286,33.57143 A 10.142858,10.142858 0 1 1 20.428571,33.57143 10.142858,10.142858 0 1 1 40.714286,33.57143 z"
       transform="matrix(1.082923,0,0,1.082923,-3.320501,-4.385684)"
       id="path2280"
       style="color:#000000;fill:url(#linearGradient1423);fill-opacity:1;fill-rule:nonzero;stroke:none;stroke-width:1;marker:none;visibility:visible;display:block;overflow:visible" />
    <path
       d="M 40.714286,33.57143 A 10.142858,10.142858 0 1 1 20.428571,33.57143 10.142858,10.142858 0 1 1 40.714286,33.57143 z"
       transform="matrix(1.082923,0,0,1.082923,-3.155039,-2.49593)"
       id="path2278"
       style="color:#000000;fill:url(#linearGradient1425);fill-opacity:1;fill-rule:nonzero;stroke:none;stroke-width:1;marker:none;visibility:visible;display:block;overflow:visible" />
    <path
       d="M 8.9327729,18.71875 C 5.4975804,18.71875 2.71875,19.83875 2.71875,21.21875 2.71875,21.375542 2.8741277,21.507432 2.9429673,21.65625 2.9328867,21.705682 2.8468742,21.69743 2.8468742,21.75 2.8468742,21.75 2.71875,38.061958 2.71875,38.21875 2.71875,39.59875 5.4975804,40.71875 8.9327729,40.71875 12.367966,40.71875 15.146796,39.59875 15.146796,38.21875 L 15.018672,21.75 C 15.018672,21.69743 14.932659,21.705682 14.922578,21.65625 14.991418,21.507432 15.146796,21.375542 15.146796,21.21875 15.146796,19.83875 12.367966,18.71875 8.9327729,18.71875 z"
       id="path7949"
       style="color:#000000;fill:url(#linearGradient1475);fill-opacity:1;fill-rule:nonzero;stroke:none;stroke-width:1;marker:none;visibility:visible;display:block;overflow:visible" />
    <path
       d="M 24.243661,14.15989 23.486047,17.796439 23.132493,19.008622 20.354573,16.937809 24.243661,14.15989 z"
       id="path2298"
       style="color:#000000;fill:#7b7e79;fill-opacity:1;fill-rule:nonzero;stroke:none;stroke-width:1;marker:none;visibility:visible;display:block;overflow:visible" />
    <path
       d="M 19.030081,27.9953 23.940615,19.412683 35.153309,19.412683 39.991888,26.528041 35.254324,17.796439 23.435539,17.796439 19.030081,27.9953 z"
       id="path2276"
       style="color:#000000;fill:#a7aba7;fill-opacity:1;fill-rule:nonzero;stroke:none;stroke-width:1;marker:none;visibility:visible;display:block;overflow:visible" />
    <path
       d="M 20.3125,16.875 C 20.3125,16.875 8.166604,17.513063 4.15625,19.625 3.3042101,20.073702 2.6682424,20.465607 2.6682424,21.067227 2.6682424,22.447227 5.4923214,24.09375 8.84375,24.09375 12.195179,24.09375 14.84375,22.59875 14.84375,21.21875 14.84375,20.904411 14.663819,20.589696 14.40625,20.3125 L 23.03125,18.5 20.3125,16.875 z"
       id="path7953"
       style="color:#000000;fill:#888a85;fill-opacity:1;fill-rule:nonzero;stroke:none;stroke-width:1;marker:none;visibility:visible;display:block;overflow:visible" />
    <path
       d="M 24.553211,14.482118 20.635909,17.275103 C 20.635909,17.275104 14.191167,17.710137 9.3867322,18.590468 4.582297,19.4708 3.16662,20.423893 3.04162,21.603294 L 3.267739,38.194718 C 3.5637007,39.3558 6.4977958,40.267861 9.496312,40.267861 12.494828,40.267861 14.9977,38.6683 15.293662,37.507218 L 41.781643,37.632218 C 43.242971,37.662792 43.513492,36.931125 43.513492,36.279599 L 43.513492,19.602477 C 43.513492,18.890493 40.671858,17.738265 39.834182,17.64519 L 36.900777,17.70769 33.660467,14.482118 24.553211,14.482118 z"
       id="path2683"
       style="opacity:0.4177215;color:#000000;fill:none;stroke:url(#linearGradient1469);stroke-width:1;stroke-linecap:butt;stroke-linejoin:miter;stroke-miterlimit:4;stroke-opacity:1;stroke-dasharray:none;stroke-dashoffset:0;marker:none;visibility:visible;display:block;overflow:visible" />
    <path
       d="M 40.714286,33.57143 A 10.142858,10.142858 0 1 1 20.428571,33.57143 10.142858,10.142858 0 1 1 40.714286,33.57143 z"
       transform="matrix(1.082923,0,0,1.082923,-3.050891,-1.56885)"
       id="path8415"
       style="color:#000000;fill:#2e3436;fill-opacity:1;fill-rule:nonzero;stroke:none;stroke-width:1;marker:none;visibility:visible;display:block;overflow:visible" />
    <path
       d="M 19.875,22.5625 A 4.125,4.1875 0 1 1 11.625,22.5625 4.125,4.1875 0 1 1 19.875,22.5625 z"
       transform="matrix(1.676984,0,0,1.676984,3.488419,-3.050526)"
       id="path2589"
       style="color:#000000;fill:url(#radialGradient1431);fill-opacity:1;fill-rule:nonzero;stroke:url(#linearGradient1433);stroke-width:0.59630877;stroke-linecap:butt;stroke-linejoin:miter;stroke-miterlimit:4;stroke-opacity:1;stroke-dashoffset:0;marker:none;visibility:visible;display:inline;overflow:visible;font-family:Bitstream Vera Sans" />
    <path
       d="M 16.5,22.6875 A 1.75,1.8125 0 1 1 13,22.6875 1.75,1.8125 0 1 1 16.5,22.6875 z"
       transform="matrix(1.676984,0,0,1.676984,5.499948,-3.195174)"
       id="path2599"
       style="opacity:0.60759499;color:#000000;fill:#ffffff;fill-opacity:0.52866247;fill-rule:nonzero;stroke:none;stroke-width:1;marker:none;visibility:visible;display:inline;overflow:visible;font-family:Bitstream Vera Sans" />
    <path
       d="M 16.5,22.6875 A 1.75,1.8125 0 1 1 13,22.6875 1.75,1.8125 0 1 1 16.5,22.6875 z"
       transform="matrix(1.673245,0,0,1.673245,3.33394,-5.000547)"
       id="path2601"
       style="opacity:0.37341769;color:#000000;fill:#ffffff;fill-opacity:1;fill-rule:nonzero;stroke:none;stroke-width:1;marker:none;visibility:visible;display:inline;overflow:visible;font-family:Bitstream Vera Sans" />
    <path
       d="M 16.5,22.6875 A 1.75,1.8125 0 1 1 13,22.6875 1.75,1.8125 0 1 1 16.5,22.6875 z"
       transform="matrix(0.41273,0,0,0.41273,27.45136,28.98197)"
       id="path8405"
       style="color:#000000;fill:url(#radialGradient2824);fill-opacity:1;fill-rule:nonzero;stroke:none;stroke-width:1;marker:none;visibility:visible;display:inline;overflow:visible;font-family:Bitstream Vera Sans" />
    <path
       d="M 22.223356,15.574103 25.152798,13.452783 26.061935,11.028417 32.425896,11.028417 33.739095,13.95786 36.567522,16.382225 34.042141,5.4725778 24.142646,5.4725778 22.223356,15.574103 z"
       id="path1507"
       style="color:#000000;fill:url(#linearGradient1461);fill-opacity:1;fill-rule:nonzero;stroke:none;stroke-width:1;marker:none;visibility:visible;display:block;overflow:visible" />
    <rect
       width="9.328516"
       height="4.5837932"
       rx="1.5035444"
       ry="1.5035454"
       x="24.478594"
       y="4.6366777"
       id="rect3297"
       style="color:#000000;fill:url(#linearGradient1456);fill-opacity:1;fill-rule:nonzero;stroke:url(#linearGradient1458);stroke-width:1.00000036;stroke-linecap:butt;stroke-linejoin:miter;stroke-miterlimit:4;stroke-opacity:1;stroke-dashoffset:0;marker:none;visibility:visible;display:inline;overflow:visible;font-family:Bitstream Vera Sans" />
    <path
       d="M 14.857143,38.214287 A 6.0714288,2.5 0 1 1 2.7142854,38.214287 6.0714288,2.5 0 1 1 14.857143,38.214287 z"
       transform="matrix(0.359444,0,0,0.554344,7.698551,0.07305544)"
       id="path2288"
       style="color:#000000;fill:#2f302e;fill-opacity:1;fill-rule:nonzero;stroke:none;stroke-width:1;marker:none;visibility:visible;display:block;overflow:visible" />
    <path
       d="M 2.7034271,21.250564 C 2.5678753,23.036228 5.1472726,25.130768 8.8987966,25.132037 12.712821,25.133306 14.748227,22.948217 14.950257,21.028927 L 19.495944,19.311668 14.344166,20.32182 C 14.445182,22.24111 12.642329,24.152278 8.9038729,24.092824 4.8175065,24.026843 3.3284271,22.438064 2.7034271,21.250564 z"
       id="path2312"
       style="color:#000000;fill:#c4c6c3;fill-opacity:1;fill-rule:nonzero;stroke:none;stroke-width:1;marker:none;visibility:visible;display:block;overflow:visible" />
    <rect
       width="4.1362314"
       height="4.3902278"
       rx="0.69542336"
       ry="0.69542354"
       x="17.562916"
       y="18.317474"
       id="rect2282"
       style="color:#000000;fill:url(#linearGradient1451);fill-opacity:1;fill-rule:nonzero;stroke:#464646;stroke-width:0.9999997;stroke-linecap:butt;stroke-linejoin:miter;stroke-miterlimit:4;stroke-opacity:1;stroke-dashoffset:0;marker:none;visibility:visible;display:inline;overflow:visible;font-family:Bitstream Vera Sans" />
    <path
       d="M 16.5,22.6875 A 1.75,1.8125 0 1 1 13,22.6875 1.75,1.8125 0 1 1 16.5,22.6875 z"
       transform="matrix(0.389835,0,0,0.389835,4.452477,12.38659)"
       id="path2612"
       style="opacity:0.43037971;color:#000000;fill:#ffffff;fill-opacity:1;fill-rule:nonzero;stroke:none;stroke-width:1;marker:none;visibility:visible;display:inline;overflow:visible;font-family:Bitstream Vera Sans" />
    <path
       d="M 16.5,22.6875 A 1.75,1.8125 0 1 1 13,22.6875 1.75,1.8125 0 1 1 16.5,22.6875 z"
       transform="matrix(0.45611,0,0,0.45611,20.30269,21.39326)"
       id="path2629"
       style="color:#000000;fill:#ffffff;fill-opacity:1;fill-rule:nonzero;stroke:none;stroke-width:1;marker:none;visibility:visible;display:inline;overflow:visible;font-family:Bitstream Vera Sans" />
    <path
       d="M 42.25,20.5625 A 1.625,0.6875 0 1 1 39,20.5625 1.625,0.6875 0 1 1 42.25,20.5625 z"
       transform="matrix(1.038462,0,0,1.636364,-1.1875,-12.71023)"
       id="path2641"
       style="color:#000000;fill:#c5c5c5;fill-opacity:0.52866247;fill-rule:nonzero;stroke:none;stroke-width:2;marker:none;visibility:visible;display:block;overflow:visible" />
    <path
       d="M 42.25,20.5625 A 1.625,0.6875 0 1 1 39,20.5625 1.625,0.6875 0 1 1 42.25,20.5625 z"
       transform="matrix(1.038462,0,0,1.636364,-1.125,-12.33523)"
       id="path2639"
       style="color:#000000;fill:#565656;fill-opacity:1;fill-rule:nonzero;stroke:none;stroke-width:2;marker:none;visibility:visible;display:block;overflow:visible" />
    <path
       d="M 23.271357,28.422173 C 25.874096,25.054531 32.027018,24.22946 35.546276,27.380934"
       id="path2650"
       style="color:#000000;fill:none;stroke:#777777;stroke-width:1.00000072;stroke-linecap:butt;stroke-linejoin:miter;stroke-miterlimit:4;stroke-opacity:1;stroke-dasharray:none;stroke-dashoffset:0;marker:none;visibility:visible;display:block;overflow:visible" />
    <path
       d="M 30.219981,31.818049 C 28.600014,31.818049 27.309626,33.185948 27.309626,34.863771 27.309626,35.247616 27.556343,35.506933 27.681881,35.84517 27.808561,35.862524 27.889059,35.980535 28.020294,35.980535 29.636648,35.980535 30.930649,34.642736 30.930649,32.968655 30.930649,32.575045 30.656499,32.298592 30.524554,31.953415 30.409594,31.939221 30.338611,31.818049 30.219981,31.818049 z"
       id="path2668"
       style="opacity:0.67088611;color:#000000;fill:#ffffff;fill-opacity:1;fill-rule:nonzero;stroke:none;stroke-width:1;marker:none;visibility:visible;display:inline;overflow:visible;font-family:Bitstream Vera Sans" />
  </g>
</svg>
