<?xml version="1.0" encoding="UTF-8" standalone="no"?>
<!-- Created with Inkscape (http://www.inkscape.org/) -->

<svg
   xmlns:dc="http://purl.org/dc/elements/1.1/"
   xmlns:cc="http://creativecommons.org/ns#"
   xmlns:rdf="http://www.w3.org/1999/02/22-rdf-syntax-ns#"
   xmlns:svg="http://www.w3.org/2000/svg"
   xmlns="http://www.w3.org/2000/svg"
   xmlns:sodipodi="http://sodipodi.sourceforge.net/DTD/sodipodi-0.dtd"
   xmlns:inkscape="http://www.inkscape.org/namespaces/inkscape"
   width="96.262344"
   height="61.452911"
   id="svg2"
   version="1.1"
   inkscape:version="0.48.1 "
   sodipodi:docname="New document 1">
  <defs
     id="defs4" />
  <sodipodi:namedview
     id="base"
     pagecolor="#ffffff"
     bordercolor="#666666"
     borderopacity="1.0"
     inkscape:pageopacity="0.0"
     inkscape:pageshadow="2"
     inkscape:zoom="2.5703125"
     inkscape:cx="25.999358"
     inkscape:cy="36.082973"
     inkscape:document-units="px"
     inkscape:current-layer="layer1"
     showgrid="false"
     fit-margin-top="0"
     fit-margin-left="0"
     fit-margin-right="0"
     fit-margin-bottom="0" />
  <metadata
     id="metadata7">
    <rdf:RDF>
      <cc:Work
         rdf:about="">
        <dc:format>image/svg+xml</dc:format>
        <dc:type
           rdf:resource="http://purl.org/dc/dcmitype/StillImage" />
        <dc:title></dc:title>
      </cc:Work>
    </rdf:RDF>
  </metadata>
  <g
     inkscape:label="Layer 1"
     inkscape:groupmode="layer"
     id="layer1"
     transform="translate(-126.40535,-425.78593)">
    <path
       style="fill:#000000"
       d="M 222.66278,445.52276 C 222.59488,447.54509 221.81241,449.467 220.30067,450.61845 218.2432,452.18556 211.06609,453.22148 197.29276,453.94517 L 187.29919,454.47322 187.29919,459.4369 C 187.29919,463.93209 187.08315,464.54673 185.16421,466.19594 183.78704,467.37955 182.88817,469.08615 182.57496,471.08041 181.83941,475.76372 180.33314,477.94507 177.82802,477.94507 175.93112,477.94507 175.67032,478.25185 175.67032,480.3741 175.67032,481.70549 174.97707,483.79657 174.14857,485.02095 172.81064,486.99819 172.14021,487.24402 168.15243,487.23876 159.50573,487.22736 150.70526,483.89098 137.89919,475.78006 136.11558,474.6504 133.64073,473.72066 132.40273,473.72066 129.53593,473.72066 127.84705,472.27537 126.97441,469.07382 125.90257,465.14151 126.45783,444.97784 127.70121,442.7241 128.37202,441.50819 129.97704,440.52825 132.28916,439.95183 134.73951,439.34096 136.89416,437.98054 139.21653,435.59541 143.78024,430.90835 149.08791,427.48251 153.61634,426.30172 157.02672,425.41247 157.97215,425.55879 163.79161,427.64825 167.32015,428.91517 172.34519,431.33108 174.94352,433.03437 L 179.66775,436.12346 198.58738,436.57231 C 215.1778,436.94922 217.78619,437.17267 219.52844,438.49969 221.67279,440.13298 222.75009,442.92263 222.66278,445.52276 z M 218.50637,445.07392 C 218.53816,444.07306 218.01535,443.01508 216.91649,442.30165 215.7974,441.5751 192.04015,440.6291 198.38296,440.79671 L 181.46204,440.34787 181.48476,445.20593 181.48476,450.064 187.8443,450.064 C 196.72506,450.05233 214.57116,448.4856 216.73478,447.52936 217.87229,447.02662 218.47458,446.07478 218.50637,445.07392 z M 184.44279,459.24895 C 184.32848,456.69333 181.3928,454.61711 180.37895,454.61711 180.60336,457.28192 180.45969,457.69835 180.5358,458.58608 180.67202,460.17515 180.86408,460.90843 180.62224,461.94297 180.38042,462.97752 180.82761,463.25475 180.24119,465.03608 184.79084,465.13836 184.60303,462.83131 184.44279,459.24895 z M 179.09992,468.80979 C 179.10059,468.58353 179.09688,468.41012 179.0545,468.28174 178.68004,467.14736 165.09637,464.40213 159.9986,464.42697 157.97989,464.43681 155.93575,464.89905 155.45606,465.45667 154.97638,466.01429 154.59298,467.2833 154.59298,468.28174 154.59298,469.95539 155.34471,470.23524 164.22314,471.92529 176.82337,474.3238 177.69851,474.30297 178.62297,471.47645 178.92759,470.54507 179.09795,469.48859 179.09992,468.80979 z M 178.03244,441.06074 175.94287,439.34457 C 172.51905,436.53583 166.90442,433.47336 161.70204,431.60863 157.20125,429.99538 156.54102,429.95333 153.27565,431.08058 149.65464,432.33061 145.42083,435.48263 140.602,440.47988 139.09559,442.04206 136.41539,443.71248 134.56043,444.25544 132.29227,444.91936 131.03737,445.81603 130.65385,447.02771 129.04281,452.11769 129.4488,465.59747 131.28981,468.17613 131.72579,468.78681 133.54934,469.47084 135.35538,469.70748 137.46034,469.98328 140.06123,471.25896 142.60071,473.21902 144.77954,474.90071 146.708,476.25531 146.87068,476.25531 147.03337,476.25531 147.34956,475.3178 147.59749,474.16951 147.84542,473.0212 148.71059,471.68047 149.50535,471.18602 150.50339,470.56511 150.95896,469.43283 150.95896,467.48967 150.95896,465.94229 151.57302,463.76621 152.32172,462.658 153.07042,461.5498 153.79804,459.03402 153.95703,457.08707 L 154.25229,453.54913 151.95831,455.18609 C 148.85682,457.41434 145.87133,457.39796 145.87133,455.13328 145.87133,454.10718 146.55604,453.11173 147.59749,452.65145 150.04558,451.56947 154.4586,446.89917 155.72862,444.04422 156.70008,441.86042 157.14735,441.63732 160.58912,441.64159 166.80651,441.64931 169.19684,443.92036 170.39166,447.24456 170.95935,448.82394 170.93069,451.80802 170.93658,453.33316 170.94985,456.76654 171.62321,463.4404 176.89744,464.97172 178.79403,465.52238 178.90564,464.9633 178.70992,456.77521 178.6612,454.73687 178.14959,451.00221 178.46436,447.47655 z M 172.03629,479.55562 C 172.03629,477.68183 171.73179,477.6033 161.24779,475.80646 153.50092,474.47875 152.21211,474.41282 151.64034,475.46323 150.00471,478.46814 150.98411,479.17322 160.40743,481.72063 168.46285,483.89826 172.03629,483.22675 172.03629,479.55562 z M 169.65147,460.65141 C 169.73842,460.59612 169.42391,459.14924 168.97009,457.4303 L 168.15243,454.2884 163.9506,454.2884 C 161.11333,454.2884 157.21036,454.50281 156.43641,455.4025 155.80823,456.13271 156.00059,457.87187 156.00059,458.71884 156.00059,460.05547 158.2919,460.07644 163.49634,460.38739 166.79422,460.58442 169.56452,460.70671 169.65147,460.65141 z M 167.67547,448.74387 C 167.67547,447.23519 166.85445,446.77216 163.15565,446.18283 160.17297,445.70759 159.84771,445.85492 158.09073,448.53265 L 156.20559,451.38412 161.92917,450.61845 C 165.79871,450.09457 167.67547,449.48532 167.67547,448.74387 z"
       id="path2996"
       inkscape:connector-curvature="0"
       sodipodi:nodetypes="ssccssssssssssssssscccsssscccccssscszcscsssssscccssssssssssssscccssssssssccssssscccsssscsscccs" />
    <path
       style="opacity:0.81700021;fill:#ffd5e5;fill-opacity:1;fill-rule:nonzero;stroke:#764921;stroke-width:0.1;stroke-linecap:round;stroke-linejoin:round;stroke-miterlimit:4;stroke-opacity:1;stroke-dasharray:none;stroke-dashoffset:0"
       d="M 145.77683,475.27247 C 145.4635,474.97016 143.76587,473.76465 142.00432,472.59355 139.64512,471.02514 137.95424,470.2374 135.58487,469.60289 133.81572,469.12911 132.07263,468.47895 131.71134,468.15808 129.61577,466.29697 129.22445,449.47999 131.20509,446.40222 131.4968,445.94893 132.9204,445.10369 134.36866,444.52392 137.62296,443.22113 138.65437,442.51923 142.09468,439.26617 148.12288,433.56606 152.17351,431.10251 156.02287,430.79518 158.13285,430.62673 158.89822,430.78129 162.13115,432.02876 168.57192,434.51399 177.37131,439.84363 177.85802,441.55424 177.95417,441.89216 178.15434,447.19882 178.30285,453.34682 178.60676,465.92815 178.6723,465.64218 175.81866,464.18635 172.68186,462.58608 171.53289,459.76514 171.11414,452.6359 170.86114,448.32843 170.66995,447.27831 169.87727,445.84244 168.84196,443.96706 167.05193,442.578 164.90032,441.98034 163.097,441.47943 158.01607,441.4696 157.08996,441.96524 156.69925,442.17435 155.85821,443.26857 155.221,444.39685 153.72392,447.04765 150.83561,450.24552 148.56092,451.77073 146.27766,453.30169 145.79072,453.91961 145.79072,455.28606 145.79072,457.49918 148.57423,457.46818 152.12634,455.2155 L 153.96094,454.05203 153.95519,455.3079 C 153.94692,457.11355 152.92176,461.20711 152.04979,462.9163 151.63878,463.72195 151.20034,465.02951 151.07548,465.82199 150.95063,466.61447 150.75838,467.84695 150.64827,468.56085 150.53816,469.27474 149.92965,470.4395 149.29603,471.14919 148.66242,471.85889 147.85334,473.20063 147.49809,474.13084 146.79213,475.97939 146.62464,476.09047 145.77683,475.27247 z"
       id="path3038"
       inkscape:connector-curvature="0" />
    <path
       style="opacity:0.81700021;fill:#ffd5e5;fill-opacity:1;fill-rule:nonzero;stroke:#764921;stroke-width:0.1;stroke-linecap:round;stroke-linejoin:round;stroke-miterlimit:4;stroke-opacity:1;stroke-dasharray:none;stroke-dashoffset:0"
       d="M 181.58404,445.12318 181.58404,440.4911 187.90623,440.6573 C 195.93144,440.86827 207.87465,441.5074 212.8758,441.99353 217.22852,442.41663 218.15547,442.92552 218.15547,444.89204 218.15547,446.79873 217.12989,447.4253 213.02585,448.02596 206.99452,448.9087 194.72506,449.75526 187.96259,449.75526 L 181.58404,449.75526 181.58404,445.12318 z"
       id="path3040"
       inkscape:connector-curvature="0" />
    <path
       style="opacity:0.81700021;fill:#ffd5e5;fill-opacity:1;fill-rule:nonzero;stroke:#764921;stroke-width:0.1;stroke-linecap:round;stroke-linejoin:round;stroke-miterlimit:4;stroke-opacity:1;stroke-dasharray:none;stroke-dashoffset:0"
       d="M 157.74908,449.32484 C 159.78353,446.37524 160.24695,446.10861 162.86369,446.38212 164.12783,446.51424 165.60852,446.82574 166.15411,447.07433 167.27159,447.58349 167.78599,448.53568 167.23904,449.08263 166.76649,449.55518 162.66631,450.41793 159.25333,450.76297 L 156.57004,451.03424 157.74908,449.32484 z"
       id="path3042"
       inkscape:connector-curvature="0" />
    <path
       style="opacity:0.81700021;fill:#ffd5e5;fill-opacity:1;fill-rule:nonzero;stroke:#764921;stroke-width:0.1;stroke-linecap:round;stroke-linejoin:round;stroke-miterlimit:4;stroke-opacity:1;stroke-dasharray:none;stroke-dashoffset:0"
       d="M 180.61139,459.93476 180.61139,454.88339 181.70817,455.52905 C 183.43619,456.54632 184.30744,458.29598 184.30744,460.74896 184.30744,463.2426 183.56691,464.41763 181.77857,464.76162 L 180.61139,464.98613 180.61139,459.93476 z"
       id="path3044"
       inkscape:connector-curvature="0" />
    <path
       style="opacity:0.81700021;fill:#ffd5e5;fill-opacity:1;fill-rule:nonzero;stroke:#764921;stroke-width:0.1;stroke-linecap:round;stroke-linejoin:round;stroke-miterlimit:4;stroke-opacity:1;stroke-dasharray:none;stroke-dashoffset:0"
       d="M 163.68738,460.17883 C 156.65284,459.80844 156.29528,459.67116 156.29528,457.3406 156.29528,455.7692 156.41465,455.52642 157.36519,455.16449 157.95364,454.94044 160.56499,454.65625 163.16819,454.53296 L 167.90128,454.3088 168.31661,455.82534 C 169.0546,458.52003 169.50427,460.4098 169.41544,460.44323 169.36774,460.46118 166.79012,460.3422 163.68738,460.17883 z"
       id="path3046"
       inkscape:connector-curvature="0" />
    <path
       style="opacity:0.81700021;fill:#ffd5e5;fill-opacity:1;fill-rule:nonzero;stroke:#764921;stroke-width:0.1;stroke-linecap:round;stroke-linejoin:round;stroke-miterlimit:4;stroke-opacity:1;stroke-dasharray:none;stroke-dashoffset:0"
       d="M 170.69042,472.89628 C 165.28556,472.05271 157.49308,470.39856 156.01537,469.78113 154.71356,469.2372 154.65046,469.12669 154.86984,467.7748 154.99754,466.98791 155.35216,466.09395 155.65789,465.78822 157.17628,464.26983 163.10869,464.4587 171.84666,466.30361 178.98942,467.81172 179.08902,467.87208 178.65674,470.43075 178.12889,473.55508 177.05029,473.8889 170.69042,472.89628 z"
       id="path3048"
       inkscape:connector-curvature="0" />
    <path
       style="opacity:0.81700021;fill:#ffd5e5;fill-opacity:1;fill-rule:nonzero;stroke:#764921;stroke-width:0.1;stroke-linecap:round;stroke-linejoin:round;stroke-miterlimit:4;stroke-opacity:1;stroke-dasharray:none;stroke-dashoffset:0"
       d="M 163.42183,482.21953 C 159.59239,481.37972 154.34207,479.78467 152.82632,479.00061 151.32576,478.22441 150.9148,477.15212 151.61585,475.8422 152.21731,474.71835 154.29316,474.79187 162.48371,476.22709 170.55985,477.64227 171.85759,478.09869 171.85759,479.5239 171.85759,482.55166 169.04074,483.45178 163.42183,482.21953 z"
       id="path3050"
       inkscape:connector-curvature="0" />
  </g>
</svg>
