<?xml version="1.0" encoding="UTF-8" standalone="no"?>
<!-- Created with Inkscape (http://www.inkscape.org/) -->

<svg
   xmlns:dc="http://purl.org/dc/elements/1.1/"
   xmlns:cc="http://creativecommons.org/ns#"
   xmlns:rdf="http://www.w3.org/1999/02/22-rdf-syntax-ns#"
   xmlns:svg="http://www.w3.org/2000/svg"
   xmlns="http://www.w3.org/2000/svg"
   xmlns:sodipodi="http://sodipodi.sourceforge.net/DTD/sodipodi-0.dtd"
   xmlns:inkscape="http://www.inkscape.org/namespaces/inkscape"
   width="96.262344"
   height="61.452911"
   id="svg2"
   version="1.1"
   inkscape:version="0.48.1 "
   sodipodi:docname="hand-right.svg">
  <defs
     id="defs4" />
  <sodipodi:namedview
     id="base"
     pagecolor="#ffffff"
     bordercolor="#666666"
     borderopacity="1.0"
     inkscape:pageopacity="0.0"
     inkscape:pageshadow="2"
     inkscape:zoom="2.5703125"
     inkscape:cx="25.999358"
     inkscape:cy="36.082973"
     inkscape:document-units="px"
     inkscape:current-layer="layer1"
     showgrid="false"
     fit-margin-top="0"
     fit-margin-left="0"
     fit-margin-right="0"
     fit-margin-bottom="0" />
  <metadata
     id="metadata7">
    <rdf:RDF>
      <cc:Work
         rdf:about="">
        <dc:format>image/svg+xml</dc:format>
        <dc:type
           rdf:resource="http://purl.org/dc/dcmitype/StillImage" />
        <dc:title></dc:title>
      </cc:Work>
    </rdf:RDF>
  </metadata>
  <g
     inkscape:label="Layer 1"
     inkscape:groupmode="layer"
     id="layer1"
     transform="translate(-126.40535,-425.78593)">
    <path
       style="fill:#000000"
       d="M 126.41026,445.52276 C 126.47816,447.54509 127.26063,449.467 128.77237,450.61845 130.82984,452.18556 138.00695,453.22148 151.78028,453.94517 L 161.77385,454.47322 161.77385,459.4369 C 161.77385,463.93209 161.98989,464.54673 163.90883,466.19594 165.286,467.37955 166.18487,469.08615 166.49808,471.08041 167.23363,475.76372 168.7399,477.94507 171.24502,477.94507 173.14192,477.94507 173.40272,478.25185 173.40272,480.3741 173.40272,481.70549 174.09597,483.79657 174.92447,485.02095 176.2624,486.99819 176.93283,487.24402 180.92061,487.23876 189.56731,487.22736 198.36778,483.89098 211.17385,475.78006 212.95746,474.6504 215.43231,473.72066 216.67031,473.72066 219.53711,473.72066 221.22599,472.27537 222.09863,469.07382 223.17047,465.14151 222.61521,444.97784 221.37183,442.7241 220.70102,441.50819 219.096,440.52825 216.78388,439.95183 214.33353,439.34096 212.17888,437.98054 209.85651,435.59541 205.2928,430.90835 199.98513,427.48251 195.4567,426.30172 192.04632,425.41247 191.10089,425.55879 185.28143,427.64825 181.75289,428.91517 176.72785,431.33108 174.12952,433.03437 L 169.40529,436.12346 150.48566,436.57231 C 133.89524,436.94922 131.28685,437.17267 129.5446,438.49969 127.40025,440.13298 126.32295,442.92263 126.41026,445.52276 z M 130.56667,445.07392 C 130.53488,444.07306 131.05769,443.01508 132.15655,442.30165 133.27564,441.5751 157.03289,440.6291 150.69008,440.79671 L 167.611,440.34787 167.58828,445.20593 167.58828,450.064 161.22874,450.064 C 152.34798,450.05233 134.50188,448.4856 132.33826,447.52936 131.20075,447.02662 130.59846,446.07478 130.56667,445.07392 z M 164.63025,459.24895 C 164.74456,456.69333 167.68024,454.61711 168.69409,454.61711 168.46968,457.28192 168.61335,457.69835 168.53724,458.58608 168.40102,460.17515 168.20896,460.90843 168.4508,461.94297 168.69262,462.97752 168.24543,463.25475 168.83185,465.03608 164.2822,465.13836 164.47001,462.83131 164.63025,459.24895 z M 169.97312,468.80979 C 169.97245,468.58353 169.97616,468.41012 170.01854,468.28174 170.393,467.14736 183.97667,464.40213 189.07444,464.42697 191.09315,464.43681 193.13729,464.89905 193.61698,465.45667 194.09666,466.01429 194.48006,467.2833 194.48006,468.28174 194.48006,469.95539 193.72833,470.23524 184.8499,471.92529 172.24967,474.3238 171.37453,474.30297 170.45007,471.47645 170.14545,470.54507 169.97509,469.48859 169.97312,468.80979 z M 171.0406,441.06074 173.13017,439.34457 C 176.55399,436.53583 182.16862,433.47336 187.371,431.60863 191.87179,429.99538 192.53202,429.95333 195.79739,431.08058 199.4184,432.33061 203.65221,435.48263 208.47104,440.47988 209.97745,442.04206 212.65765,443.71248 214.51261,444.25544 216.78077,444.91936 218.03567,445.81603 218.41919,447.02771 220.03023,452.11769 219.62424,465.59747 217.78323,468.17613 217.34725,468.78681 215.5237,469.47084 213.71766,469.70748 211.6127,469.98328 209.01181,471.25896 206.47233,473.21902 204.2935,474.90071 202.36504,476.25531 202.20236,476.25531 202.03967,476.25531 201.72348,475.3178 201.47555,474.16951 201.22762,473.0212 200.36245,471.68047 199.56769,471.18602 198.56965,470.56511 198.11408,469.43283 198.11408,467.48967 198.11408,465.94229 197.50002,463.76621 196.75132,462.658 196.00262,461.5498 195.275,459.03402 195.11601,457.08707 L 194.82075,453.54913 197.11473,455.18609 C 200.21622,457.41434 203.20171,457.39796 203.20171,455.13328 203.20171,454.10718 202.517,453.11173 201.47555,452.65145 199.02746,451.56947 194.61444,446.89917 193.34442,444.04422 192.37296,441.86042 191.92569,441.63732 188.48392,441.64159 182.26653,441.64931 179.8762,443.92036 178.68138,447.24456 178.11369,448.82394 178.14235,451.80802 178.13646,453.33316 178.12319,456.76654 177.44983,463.4404 172.1756,464.97172 170.27901,465.52238 170.1674,464.9633 170.36312,456.77521 170.41184,454.73687 170.92345,451.00221 170.60868,447.47655 z M 177.03675,479.55562 C 177.03675,477.68183 177.34125,477.6033 187.82525,475.80646 195.57212,474.47875 196.86093,474.41282 197.4327,475.46323 199.06833,478.46814 198.08893,479.17322 188.66561,481.72063 180.61019,483.89826 177.03675,483.22675 177.03675,479.55562 z M 179.42157,460.65141 C 179.33462,460.59612 179.64913,459.14924 180.10295,457.4303 L 180.92061,454.2884 185.12244,454.2884 C 187.95971,454.2884 191.86268,454.50281 192.63663,455.4025 193.26481,456.13271 193.07245,457.87187 193.07245,458.71884 193.07245,460.05547 190.78114,460.07644 185.5767,460.38739 182.27882,460.58442 179.50852,460.70671 179.42157,460.65141 z M 181.39757,448.74387 C 181.39757,447.23519 182.21859,446.77216 185.91739,446.18283 188.90007,445.70759 189.22533,445.85492 190.98231,448.53265 L 192.86745,451.38412 187.14387,450.61845 C 183.27433,450.09457 181.39757,449.48532 181.39757,448.74387 z"
       id="path2996"
       inkscape:connector-curvature="0"
       sodipodi:nodetypes="ssccssssssssssssssscccsssscccccssscszcscsssssscccssssssssssssscccssssssssccssssscccsssscsscccs" />
    <path
       style="opacity:0.81700021;fill:#ffd5e5;fill-opacity:1;fill-rule:nonzero;stroke:#764921;stroke-width:0.1;stroke-linecap:round;stroke-linejoin:round;stroke-miterlimit:4;stroke-opacity:1;stroke-dasharray:none;stroke-dashoffset:0"
       d="M 203.29621,475.27247 C 203.60954,474.97016 205.30717,473.76465 207.06872,472.59355 209.42792,471.02514 211.1188,470.2374 213.48817,469.60289 215.25732,469.12911 217.00041,468.47895 217.3617,468.15808 219.45727,466.29697 219.84859,449.47999 217.86795,446.40222 217.57624,445.94893 216.15264,445.10369 214.70438,444.52392 211.45008,443.22113 210.41867,442.51923 206.97836,439.26617 200.95016,433.56606 196.89953,431.10251 193.05017,430.79518 190.94019,430.62673 190.17482,430.78129 186.94189,432.02876 180.50112,434.51399 171.70173,439.84363 171.21502,441.55424 171.11887,441.89216 170.9187,447.19882 170.77019,453.34682 170.46628,465.92815 170.40074,465.64218 173.25438,464.18635 176.39118,462.58608 177.54015,459.76514 177.9589,452.6359 178.2119,448.32843 178.40309,447.27831 179.19577,445.84244 180.23108,443.96706 182.02111,442.578 184.17272,441.98034 185.97604,441.47943 191.05697,441.4696 191.98308,441.96524 192.37379,442.17435 193.21483,443.26857 193.85204,444.39685 195.34912,447.04765 198.23743,450.24552 200.51212,451.77073 202.79538,453.30169 203.28232,453.91961 203.28232,455.28606 203.28232,457.49918 200.49881,457.46818 196.9467,455.2155 L 195.1121,454.05203 195.11785,455.3079 C 195.12612,457.11355 196.15128,461.20711 197.02325,462.9163 197.43426,463.72195 197.8727,465.02951 197.99756,465.82199 198.12241,466.61447 198.31466,467.84695 198.42477,468.56085 198.53488,469.27474 199.14339,470.4395 199.77701,471.14919 200.41062,471.85889 201.2197,473.20063 201.57495,474.13084 202.28091,475.97939 202.4484,476.09047 203.29621,475.27247 z"
       id="path3038"
       inkscape:connector-curvature="0" />
    <path
       style="opacity:0.81700021;fill:#ffd5e5;fill-opacity:1;fill-rule:nonzero;stroke:#764921;stroke-width:0.1;stroke-linecap:round;stroke-linejoin:round;stroke-miterlimit:4;stroke-opacity:1;stroke-dasharray:none;stroke-dashoffset:0"
       d="M 167.489,445.12318 167.489,440.4911 161.16681,440.6573 C 153.1416,440.86827 141.19839,441.5074 136.19724,441.99353 131.84452,442.41663 130.91757,442.92552 130.91757,444.89204 130.91757,446.79873 131.94315,447.4253 136.04719,448.02596 142.07852,448.9087 154.34798,449.75526 161.11045,449.75526 L 167.489,449.75526 167.489,445.12318 z"
       id="path3040"
       inkscape:connector-curvature="0" />
    <path
       style="opacity:0.81700021;fill:#ffd5e5;fill-opacity:1;fill-rule:nonzero;stroke:#764921;stroke-width:0.1;stroke-linecap:round;stroke-linejoin:round;stroke-miterlimit:4;stroke-opacity:1;stroke-dasharray:none;stroke-dashoffset:0"
       d="M 191.32396,449.32484 C 189.28951,446.37524 188.82609,446.10861 186.20935,446.38212 184.94521,446.51424 183.46452,446.82574 182.91893,447.07433 181.80145,447.58349 181.28705,448.53568 181.834,449.08263 182.30655,449.55518 186.40673,450.41793 189.81971,450.76297 L 192.503,451.03424 191.32396,449.32484 z"
       id="path3042"
       inkscape:connector-curvature="0" />
    <path
       style="opacity:0.81700021;fill:#ffd5e5;fill-opacity:1;fill-rule:nonzero;stroke:#764921;stroke-width:0.1;stroke-linecap:round;stroke-linejoin:round;stroke-miterlimit:4;stroke-opacity:1;stroke-dasharray:none;stroke-dashoffset:0"
       d="M 168.46165,459.93476 168.46165,454.88339 167.36487,455.52905 C 165.63685,456.54632 164.7656,458.29598 164.7656,460.74896 164.7656,463.2426 165.50613,464.41763 167.29447,464.76162 L 168.46165,464.98613 168.46165,459.93476 z"
       id="path3044"
       inkscape:connector-curvature="0" />
    <path
       style="opacity:0.81700021;fill:#ffd5e5;fill-opacity:1;fill-rule:nonzero;stroke:#764921;stroke-width:0.1;stroke-linecap:round;stroke-linejoin:round;stroke-miterlimit:4;stroke-opacity:1;stroke-dasharray:none;stroke-dashoffset:0"
       d="M 185.38566,460.17883 C 192.4202,459.80844 192.77776,459.67116 192.77776,457.3406 192.77776,455.7692 192.65839,455.52642 191.70785,455.16449 191.1194,454.94044 188.50805,454.65625 185.90485,454.53296 L 181.17176,454.3088 180.75643,455.82534 C 180.01844,458.52003 179.56877,460.4098 179.6576,460.44323 179.7053,460.46118 182.28292,460.3422 185.38566,460.17883 z"
       id="path3046"
       inkscape:connector-curvature="0" />
    <path
       style="opacity:0.81700021;fill:#ffd5e5;fill-opacity:1;fill-rule:nonzero;stroke:#764921;stroke-width:0.1;stroke-linecap:round;stroke-linejoin:round;stroke-miterlimit:4;stroke-opacity:1;stroke-dasharray:none;stroke-dashoffset:0"
       d="M 178.38262,472.89628 C 183.78748,472.05271 191.57996,470.39856 193.05767,469.78113 194.35948,469.2372 194.42258,469.12669 194.2032,467.7748 194.0755,466.98791 193.72088,466.09395 193.41515,465.78822 191.89676,464.26983 185.96435,464.4587 177.22638,466.30361 170.08362,467.81172 169.98402,467.87208 170.4163,470.43075 170.94415,473.55508 172.02275,473.8889 178.38262,472.89628 z"
       id="path3048"
       inkscape:connector-curvature="0" />
    <path
       style="opacity:0.81700021;fill:#ffd5e5;fill-opacity:1;fill-rule:nonzero;stroke:#764921;stroke-width:0.1;stroke-linecap:round;stroke-linejoin:round;stroke-miterlimit:4;stroke-opacity:1;stroke-dasharray:none;stroke-dashoffset:0"
       d="M 185.65121,482.21953 C 189.48065,481.37972 194.73097,479.78467 196.24672,479.00061 197.74728,478.22441 198.15824,477.15212 197.45719,475.8422 196.85573,474.71835 194.77988,474.79187 186.58933,476.22709 178.51319,477.64227 177.21545,478.09869 177.21545,479.5239 177.21545,482.55166 180.0323,483.45178 185.65121,482.21953 z"
       id="path3050"
       inkscape:connector-curvature="0" />
  </g>
</svg>
