<?xml version="1.0" encoding="UTF-8" standalone="no"?>
<!-- Created with Inkscape (http://www.inkscape.org/) -->

<svg
   xmlns:dc="http://purl.org/dc/elements/1.1/"
   xmlns:cc="http://creativecommons.org/ns#"
   xmlns:rdf="http://www.w3.org/1999/02/22-rdf-syntax-ns#"
   xmlns:svg="http://www.w3.org/2000/svg"
   xmlns="http://www.w3.org/2000/svg"
   xmlns:xlink="http://www.w3.org/1999/xlink"
   version="1.1"
   width="110.0647"
   height="110.125"
   id="svg2">
  <defs
     id="defs4">
    <linearGradient
       id="linearGradient4264">
      <stop
         id="stop4266"
         style="stop-color:#512905;stop-opacity:1"
         offset="0" />
      <stop
         id="stop4268"
         style="stop-color:#603510;stop-opacity:1"
         offset="0.14805166" />
      <stop
         id="stop4270"
         style="stop-color:#532c07;stop-opacity:1"
         offset="0.30659348" />
      <stop
         id="stop4272"
         style="stop-color:#623c1a;stop-opacity:1"
         offset="0.38830769" />
      <stop
         id="stop4274"
         style="stop-color:#624023;stop-opacity:1"
         offset="0.50294286" />
      <stop
         id="stop4276"
         style="stop-color:#7c4b20;stop-opacity:1"
         offset="0.66262537" />
      <stop
         id="stop4278"
         style="stop-color:#764921;stop-opacity:1"
         offset="0.79732645" />
      <stop
         id="stop4280"
         style="stop-color:#573009;stop-opacity:1"
         offset="1" />
    </linearGradient>
    <linearGradient
       id="linearGradient3938">
      <stop
         id="stop3940"
         style="stop-color:#904a1a;stop-opacity:1"
         offset="0" />
      <stop
         id="stop3942"
         style="stop-color:#ffe6d5;stop-opacity:0"
         offset="1" />
    </linearGradient>
    <linearGradient
       id="linearGradient3034">
      <stop
         id="stop3036"
         style="stop-color:#512905;stop-opacity:1"
         offset="0" />
      <stop
         id="stop3836"
         style="stop-color:#300b02;stop-opacity:1"
         offset="0.14805166" />
      <stop
         id="stop3834"
         style="stop-color:#532c07;stop-opacity:1"
         offset="0.27025855" />
      <stop
         id="stop3832"
         style="stop-color:#824f22;stop-opacity:1"
         offset="0.38830769" />
      <stop
         id="stop3830"
         style="stop-color:#885527;stop-opacity:1"
         offset="0.50294286" />
      <stop
         id="stop3828"
         style="stop-color:#7c4b20;stop-opacity:1"
         offset="0.66262537" />
      <stop
         id="stop3826"
         style="stop-color:#855325;stop-opacity:1"
         offset="0.79732645" />
      <stop
         id="stop3038"
         style="stop-color:#573009;stop-opacity:1"
         offset="1" />
    </linearGradient>
    <filter
       x="-0.15000001"
       y="-0.15000001"
       width="1.3"
       height="1.3"
       color-interpolation-filters="sRGB"
       id="filter4220">
      <feTurbulence
         id="feTurbulence4222"
         type="fractalNoise"
         baseFrequency="0.04"
         numOctaves="5"
         seed="0"
         result="result4" />
      <feDisplacementMap
         in2="result4"
         scale="10"
         xChannelSelector="R"
         yChannelSelector="G"
         in="SourceGraphic"
         result="result3"
         id="feDisplacementMap4224" />
      <feDiffuseLighting
         id="feDiffuseLighting4226"
         lighting-color="#e9e6d7"
         diffuseConstant="1"
         surfaceScale="2"
         result="result1"
         in="result4">
        <feDistantLight
           id="feDistantLight4228"
           azimuth="235"
           elevation="40" />
      </feDiffuseLighting>
      <feComposite
         in2="result1"
         operator="in"
         in="result3"
         result="result2"
         id="feComposite4230" />
      <feComposite
         in2="result1"
         operator="arithmetic"
         k1="1.7"
         k2="0"
         k3="0"
         k4="0"
         result="result5"
         id="feComposite4232" />
      <feBlend
         in2="result3"
         mode="normal"
         in="result5"
         id="feBlend4234" />
    </filter>
    <linearGradient
       x1="233.97481"
       y1="252.31931"
       x2="315.62582"
       y2="329.85349"
       id="linearGradient4256"
       xlink:href="#linearGradient3034"
       gradientUnits="userSpaceOnUse"
       gradientTransform="translate(0.6861433,0.34307115)" />
    <linearGradient
       x1="233.97481"
       y1="252.31931"
       x2="315.62582"
       y2="329.85349"
       id="linearGradient4262"
       xlink:href="#linearGradient4264"
       gradientUnits="userSpaceOnUse"
       gradientTransform="translate(0.6861433,0.34307115)" />
    <linearGradient
       x1="233.97481"
       y1="252.31931"
       x2="315.62582"
       y2="329.85349"
       id="linearGradient4292"
       xlink:href="#linearGradient4264"
       gradientUnits="userSpaceOnUse"
       gradientTransform="translate(0.6861433,0.34307115)" />
  </defs>
  <metadata
     id="metadata7">
    <rdf:RDF>
      <cc:Work
         rdf:about="">
        <dc:format>image/svg+xml</dc:format>
        <dc:type
           rdf:resource="http://purl.org/dc/dcmitype/StillImage" />
        <dc:title></dc:title>
      </cc:Work>
    </rdf:RDF>
  </metadata>
  <g
     transform="translate(-222.87279,-234.3125)"
     id="layer1">
    <g
       id="g4284">
      <path
         d="M 271.875,250.53125 C 246.1903,253.45753 229.15674,286.83042 243.71875,308.875 247.85357,316.19902 255.12208,321.84255 262.31895,325.95271 265.07225,327.52513 265.43841,325.61116 267.04324,326.03117 281.59865,329.84057 298.27006,326.08973 307.34375,313.46875 322.17402,295.32283 316.40779,262.81792 293.57836,254.36194 286.73155,251.60515 279.23932,250.49447 271.875,250.53125 z"
         transform="matrix(1.0712483,0,0,1.1422437,-20.246391,-40.764025)"
         id="path3018"
         style="fill:#351b05;fill-opacity:1;fill-rule:evenodd;stroke:none" />
      <path
         d="M 277.89437,234.80767 C 272.95696,234.80767 266.8001,235.72134 262.25088,236.95154 261.36424,237.1913 261.51575,237.96747 260.6476,238.25022 259.96807,238.47154 259.63746,237.93393 258.96992,238.18092 238.97905,245.57751 224.49906,264.35289 223.39915,286.63786 223.35447,287.54302 223.58917,288.02512 223.58917,288.94133 223.58917,289.57189 223.34257,290.62879 223.36381,291.25418 223.57299,297.41393 224.80399,303.31519 226.89258,308.79372 227.13195,309.42162 227.55412,309.35782 227.81578,309.97436 228.04308,310.50996 228.10717,311.72733 228.35094,312.25401 230.27643,316.41418 232.71057,320.29115 235.57346,323.80504 235.86893,324.1677 236.25473,323.92611 236.47347,324.88131 236.57194,325.3113 237.05202,325.54729 237.3472,325.87493 240.23221,329.07717 243.491,331.93611 247.05471,334.38289 247.37871,334.60534 248.24128,334.76006 248.57028,334.97565 248.88261,335.18032 248.66113,335.44621 248.97787,335.64461 256.29553,340.22811 265.52769,343.12417 274.62751,343.78691 275.31067,343.83666 275.18252,343.68085 275.87241,343.7052 276.52214,343.72813 276.59581,343.93267 277.25111,343.93267 282.72365,343.93267 288.03647,343.08599 293.06684,341.5205 293.65536,341.33735 294.2829,340.71552 294.86349,340.51289 295.53582,340.27826 295.68809,340.84549 296.34922,340.58533 315.62469,333.00028 330.48181,314.31812 332.41419,293.19134 332.48894,292.3741 331.93877,292.49171 331.97619,291.66451 332.01287,290.85365 332.42562,290.18983 332.42562,289.37017 332.42562,283.89328 331.61902,278.60444 330.11809,273.6163 329.93551,273.00952 329.48535,272.57873 329.28242,271.98105 329.13094,271.53489 329.23114,270.91979 329.06852,270.47889 327.71258,266.80281 325.97229,263.31282 323.89638,260.05781 323.67666,259.71329 323.02434,259.50006 322.79716,259.16087 322.58269,258.84064 322.79375,258.39417 322.57273,258.07879 320.06712,254.50357 317.14374,251.24275 313.87338,248.3674 313.67677,248.19454 313.13584,248.36614 312.93674,248.19608 312.64318,247.94534 312.68999,247.35458 312.39109,247.11001 308.74193,244.12415 304.69878,241.60209 300.35137,239.63389 300.1261,239.5319 299.68559,239.86024 299.4587,239.76124 299.22918,239.6611 299.21327,239.13364 298.98212,239.03658 294.74485,237.2573 290.23532,235.99802 285.53314,235.33864 284.98357,235.26158 284.08829,235.62155 283.53359,235.561 282.9699,235.49947 282.7467,235.0177 282.17797,234.97349 280.76457,234.86363 279.33602,234.80767 277.89437,234.80767 z M 277.29332,250.53305 C 298.45942,249.52617 316.02873,265.76789 317.26264,286.20683 317.28393,286.55952 317.51478,286.97778 317.52628,287.3329 317.53958,287.74393 317.33187,288.0922 317.33187,288.50629 317.33187,310.0115 299.52951,327.44379 277.55062,327.44379 255.57173,327.44379 237.48082,310.97576 237.48082,289.47055 237.48082,272.38639 248.60909,257.92182 264.173,252.42743 268.20064,251.00559 272.84542,250.74464 277.29332,250.53305 z"
         id="path4251"
         style="fill:url(#linearGradient4292);fill-opacity:1;fill-rule:evenodd;stroke:#2b1100;stroke-width:1px;stroke-linecap:butt;stroke-linejoin:miter;stroke-opacity:1" />
      <path
         d="M 283.49352,235.1816 273.30602,248.8066 C 273.35756,248.80268 272.74176,250.20264 272.79336,250.19896 L 283.55602,235.21285 C 283.53401,235.21046 283.51554,235.18397 283.49352,235.1816 z M 260.58863,238.22678 C 260.07805,239.1369 260.25544,238.75786 260.08863,238.81187 L 223.62272,287.42413 C 223.60632,287.81763 223.54557,287.6108 223.53755,288.00641 223.53961,288.06878 224.11528,287.48822 224.11648,287.55065 z M 298.87285,240.00438 290.67601,251.1467 C 290.69795,251.1526 290.14563,251.999 290.16756,252.00493 L 298.81833,239.90698 C 298.80559,239.9015 298.92848,240.52445 298.87285,240.00438 z M 312.59525,248.06756 304.39977,258.7441 C 304.42221,258.76249 304.43988,258.78816 304.46227,258.8066 L 312.24055,248.31323 C 312.22928,248.30374 312.26345,248.54876 312.59525,248.06756 z M 322.46295,259.54361 313.93102,270.77535 C 313.94139,270.79626 313.95195,270.81693 313.96227,270.83785 L 322.15113,259.91793 C 322.14297,259.90585 322.2567,260.0703 322.46295,259.54361 z M 328.54145,272.3707 318.72379,285.98912 317.98611,287.01238 C 317.74456,287.88209 317.25734,288.02457 317.25835,288.04523 z M 237.27477,297.0566 227.80602,309.71285 C 227.85714,309.82688 227.91039,309.94298 227.96227,310.0566 L 237.33727,297.4316 C 237.32932,297.38954 237.5702,297.17733 237.56332,297.13506 237.54812,297.05294 237.28938,297.1388 237.27477,297.0566 z M 244.9762,312.81458 236.43102,323.1816 C 236.47479,323.23196 236.51207,323.28765 236.55602,323.33785 L 245.06995,312.97083 C 245.06995,312.97083 244.97197,312.76395 244.9762,312.81458 z M 255.89977,323.71285 248.52477,333.58785 C 248.58859,333.62814 248.64827,333.67282 248.71227,333.71285 L 256.08727,323.8066 C 256.02727,323.7713 255.95958,323.74844 255.89977,323.71285 z M 270.33727,329.15035 262.36852,339.8066 C 262.44129,339.82771 262.51438,339.84828 262.58727,339.8691 L 271.55398,327.72355 C 271.49196,327.71203 270.39925,329.16213 270.33727,329.15035 z M 285.96227,329.3066 C 285.89942,329.31421 285.83722,329.32721 285.77477,329.33785 L 276.36852,341.9316 C 276.45265,341.93347 276.53429,341.93011 276.61852,341.9316 L 288.4372,326.43717 C 288.41684,326.44077 285.98279,329.30411 285.96227,329.3066 z"
         id="path3856"
         style="fill:none;stroke:#5d351a;stroke-width:0.5;stroke-linecap:round;stroke-linejoin:miter;stroke-miterlimit:4;stroke-opacity:1;stroke-dasharray:none" />
      <path
         d="M 284.4375,234.96875 274.4375,248.34375 C 274.48967,248.34217 273.086,250.10386 273.13822,250.10252 L 284.53125,234.96875 C 284.50043,234.96461 284.46833,234.97284 284.4375,234.96875 z M 262.78125,236.40625 C 262.63525,236.44615 260.54498,238.85363 260.39947,238.89471 247.61253,257.9193 245.417,260.00496 223.92984,287.45443 222.65625,290.17537 223.74546,288.1499 223.75224,288.50399 L 248.61187,255.3202 z M 299.8125,239.375 290.9375,251.25 C 290.95955,251.25662 290.00761,252.54818 290.02964,252.55484 L 299.84375,239.40625 C 299.83116,239.40049 299.8251,239.38075 299.8125,239.375 z M 313.1875,248.0625 304.9375,259.125 C 304.95384,259.13939 304.56901,259.64101 304.58532,259.65543 L 313.21875,248.09375 C 313.2077,248.08402 313.19856,248.07222 313.1875,248.0625 z M 323.09375,259.59375 314.125,271.59375 C 314.13856,271.62391 314.14278,271.65732 314.15625,271.6875 L 323.125,259.625 C 323.11723,259.61289 323.10153,259.60585 323.09375,259.59375 z M 328.73172,272.61759 317.375,288.125 C 317.37524,288.14591 317.40603,288.10595 317.40625,288.12686 z M 331.71875,291.125 294.65625,340.71875 C 294.75017,340.68706 294.84381,340.65718 294.9375,340.625 L 331.6875,291.25 C 331.68917,291.20835 331.71718,291.16667 331.71875,291.125 z M 237.1875,298.21875 227.74932,310.54059 C 229.34426,308.68196 227.68216,310.77072 227.73404,310.88434 L 237.85038,297.47877 C 237.82092,297.35448 237.21557,298.34326 237.1875,298.21875 z M 245.12364,312.84511 236.03125,324.78125 C 236.07502,324.83161 236.1123,324.8873 236.15625,324.9375 L 245.21739,313.00136 C 245.21739,313.00136 245.24585,312.80721 245.12364,312.84511 z M 256.5625,323.90625 248.125,335.1875 C 248.18882,335.22779 248.2485,335.27247 248.3125,335.3125 L 257.23336,322.97079 C 257.18024,322.9415 256.61549,323.93576 256.5625,323.90625 z M 287.34375,328.5625 C 287.26959,328.579 287.19926,328.60892 287.125,328.625 L 288.54928,326.68429 275.96875,343.53125 C 276.05288,343.53312 276.13452,343.52976 276.21875,343.53125 z M 271.25,328.96875 261.96875,341.40625 C 262.04152,341.42736 262.11461,341.44793 262.1875,341.46875 L 272.19651,327.78706 C 272.1241,327.77583 271.32236,328.98033 271.25,328.96875 z"
         id="path3838"
         style="fill:none;stroke:#2b1100;stroke-width:0.40000001;stroke-linecap:round;stroke-linejoin:round;stroke-miterlimit:4;stroke-opacity:1;stroke-dasharray:none" />
      <path
         d="M 272.44196,250.72121 C 245.92501,253.64609 227.65337,286.48837 242.68724,308.52238 246.95603,315.84288 254.6316,319.93989 262.06166,324.04808 264.90417,325.61974 265.11066,325.25051 266.76749,325.67032 281.79453,329.47789 298.49153,326.07192 307.85923,313.45699 318.48304,300.872 320.14602,282.06949 311.66456,268.38836 307.92272,262.35253 301.37749,256.62279 294.16241,254.03545 287.09375,251.27999 280.04489,250.68445 272.44196,250.72121 z"
         id="path4260"
         style="fill:none;stroke:#3c1800;stroke-width:0.99999988px;stroke-linecap:butt;stroke-linejoin:miter;stroke-opacity:1" />
      <path
         d="M 331.67855,291.87252 295.2272,340.5458"
         id="path4282"
         style="fill:none;stroke:#000000;stroke-width:0.1;stroke-linecap:round;stroke-linejoin:round;stroke-miterlimit:4;stroke-opacity:1;stroke-dasharray:none" />
    </g>
  </g>
  <rect
     width="49.946636"
     height="16.341988"
     rx="1.2"
     ry="0.80000001"
     x="29.69178"
     y="46.828571"
     id="rect3022"
     style="opacity:0.81700021;fill:#00ff00;fill-opacity:1;fill-rule:nonzero;stroke:#764921;stroke-width:0.1;stroke-linecap:round;stroke-linejoin:round;stroke-miterlimit:4;stroke-opacity:1;stroke-dasharray:none;stroke-dashoffset:0" />
</svg>
