<?xml version="1.0" encoding="UTF-8" standalone="no"?>
<!-- Created with Inkscape (http://www.inkscape.org/) -->
<svg
   xmlns:svg="http://www.w3.org/2000/svg"
   xmlns="http://www.w3.org/2000/svg"
   xmlns:xlink="http://www.w3.org/1999/xlink"
   version="1.0"
   width="48"
   height="48"
   id="svg11300">
  <defs
     id="defs3">
    <linearGradient
       id="linearGradient2790">
      <stop
         id="stop2792"
         style="stop-color:#edd400;stop-opacity:1"
         offset="0" />
      <stop
         id="stop2794"
         style="stop-color:#fce94f;stop-opacity:1"
         offset="1" />
    </linearGradient>
    <linearGradient
       id="linearGradient1913">
      <stop
         id="stop1915"
         style="stop-color:#73d216;stop-opacity:1"
         offset="0" />
      <stop
         id="stop1917"
         style="stop-color:#8ae234;stop-opacity:1"
         offset="1" />
    </linearGradient>
    <linearGradient
       id="linearGradient5891">
      <stop
         id="stop5893"
         style="stop-color:#ffffff;stop-opacity:1"
         offset="0" />
      <stop
         id="stop5895"
         style="stop-color:#ffffff;stop-opacity:0"
         offset="1" />
    </linearGradient>
    <linearGradient
       id="linearGradient5132">
      <stop
         id="stop5134"
         style="stop-color:#ffffff;stop-opacity:1"
         offset="0" />
      <stop
         id="stop5136"
         style="stop-color:#ffffff;stop-opacity:0"
         offset="1" />
    </linearGradient>
    <linearGradient
       id="linearGradient8662">
      <stop
         id="stop8664"
         style="stop-color:#000000;stop-opacity:1"
         offset="0" />
      <stop
         id="stop8666"
         style="stop-color:#000000;stop-opacity:0"
         offset="1" />
    </linearGradient>
    <radialGradient
       cx="24.837126"
       cy="36.421127"
       r="15.644737"
       fx="24.837126"
       fy="36.421127"
       id="radialGradient8668"
       xlink:href="#linearGradient8662"
       gradientUnits="userSpaceOnUse"
       gradientTransform="matrix(1,0,0,0.536723,0,16.87306)" />
    <linearGradient
       x1="21.55229"
       y1="29.205048"
       x2="18.072493"
       y2="55.692348"
       id="linearGradient5138"
       xlink:href="#linearGradient5132"
       gradientUnits="userSpaceOnUse" />
    <linearGradient
       x1="15.456784"
       y1="8.734375"
       x2="25.561066"
       y2="13.526372"
       id="linearGradient5897"
       xlink:href="#linearGradient5891"
       gradientUnits="userSpaceOnUse"
       gradientTransform="matrix(-1.4306351,0,0,1.4301566,50.645952,2.3547655)" />
    <linearGradient
       x1="13.1875"
       y1="35.9375"
       x2="17.9375"
       y2="38.875"
       id="linearGradient1919"
       xlink:href="#linearGradient1913"
       gradientUnits="userSpaceOnUse" />
    <radialGradient
       cx="24.837126"
       cy="36.421127"
       r="15.644737"
       fx="24.837126"
       fy="36.421127"
       id="radialGradient2782"
       xlink:href="#linearGradient8662"
       gradientUnits="userSpaceOnUse"
       gradientTransform="matrix(1,0,0,0.536723,0,16.87306)" />
    <linearGradient
       x1="25.445534"
       y1="20.6875"
       x2="25.445534"
       y2="16.375"
       id="linearGradient2784"
       xlink:href="#linearGradient2790"
       gradientUnits="userSpaceOnUse" />
    <linearGradient
       x1="21.67729"
       y1="29.705048"
       x2="18.072493"
       y2="55.692348"
       id="linearGradient2786"
       xlink:href="#linearGradient5132"
       gradientUnits="userSpaceOnUse" />
    <linearGradient
       x1="15.456784"
       y1="8.734375"
       x2="25.561066"
       y2="13.526372"
       id="linearGradient2788"
       xlink:href="#linearGradient5891"
       gradientUnits="userSpaceOnUse"
       gradientTransform="matrix(-1.430635,0,0,1.430157,50.64595,2.354766)" />
    <linearGradient
       x1="23.643002"
       y1="12.818464"
       x2="28.443289"
       y2="25.232374"
       id="linearGradient355"
       xlink:href="#linearGradient356"
       gradientUnits="userSpaceOnUse"
       gradientTransform="matrix(0.806859,0,0,1.239374,-0.25,0)" />
    <linearGradient
       x1="32.827568"
       y1="7.9206076"
       x2="60.071049"
       y2="7.8678756"
       id="linearGradient320"
       xlink:href="#linearGradient311"
       gradientUnits="userSpaceOnUse"
       gradientTransform="scale(0.750458,1.33252)" />
    <linearGradient
       id="linearGradient235">
      <stop
         id="stop236"
         style="stop-color:#59594a;stop-opacity:1"
         offset="0" />
      <stop
         id="stop237"
         style="stop-color:#a2a491;stop-opacity:1"
         offset="1" />
    </linearGradient>
    <linearGradient
       id="linearGradient311">
      <stop
         id="stop312"
         style="stop-color:#ffb380;stop-opacity:1"
         offset="0" />
      <stop
         id="stop335"
         style="stop-color:#ff9955;stop-opacity:1"
         offset="0.32673267" />
      <stop
         id="stop313"
         style="stop-color:#cfcfc4;stop-opacity:0"
         offset="1" />
    </linearGradient>
    <linearGradient
       id="linearGradient356">
      <stop
         id="stop357"
         style="stop-color:#ffb380;stop-opacity:1"
         offset="0" />
      <stop
         id="stop358"
         style="stop-color:#d45500;stop-opacity:1"
         offset="1" />
    </linearGradient>
    <linearGradient
       x1="25.850664"
       y1="37.625"
       x2="24.996323"
       y2="25.25"
       id="linearGradient2345"
       xlink:href="#linearGradient2339"
       gradientUnits="userSpaceOnUse"
       gradientTransform="translate(-0.125,1)" />
    <linearGradient
       id="linearGradient2339">
      <stop
         id="stop2341"
         style="stop-color:#ffffff;stop-opacity:1"
         offset="0" />
      <stop
         id="stop2343"
         style="stop-color:#ffffff;stop-opacity:0"
         offset="1" />
    </linearGradient>
    <linearGradient
       id="linearGradient4734">
      <stop
         id="stop4736"
         style="stop-color:#cccdbc;stop-opacity:1"
         offset="0" />
      <stop
         id="stop4738"
         style="stop-color:#b9baa4;stop-opacity:1"
         offset="1" />
    </linearGradient>
  </defs>
  <g
     id="layer1">
    <g
       transform="translate(-7.9945747,-1.2423376)"
       id="g3219">
      <g
         id="g3221"
         style="display:inline" />
      <g
         id="layer2"
         style="display:inline">
        <g
           transform="matrix(0.216083,0,0,0.263095,-0.893233,-10.24236)"
           id="g1197">
          <path
             d="M 32.706693,164.36026 C 22.319193,164.36026 13.956693,172.72276 13.956693,183.11026 C 13.956693,193.49776 22.319193,201.86026 32.706693,201.86026 L 205.20669,201.86026 C 215.59419,201.86026 223.95669,193.49776 223.95669,183.11026 C 223.95669,172.72276 215.59419,164.36026 205.20669,164.36026 L 32.706693,164.36026 z"
             id="path1196"
             style="opacity:0.04787233;fill-rule:evenodd;stroke-width:3pt" />
          <path
             d="M 32.706693,165.61026 C 23.011693,165.61026 15.206693,173.41526 15.206693,183.11026 C 15.206693,192.80526 23.011693,200.61026 32.706693,200.61026 L 205.20669,200.61026 C 214.90169,200.61026 222.70669,192.80526 222.70669,183.11026 C 222.70669,173.41526 214.90169,165.61026 205.20669,165.61026 L 32.706693,165.61026 z"
             id="path1195"
             style="opacity:0.04787233;fill-rule:evenodd;stroke-width:3pt" />
          <path
             d="M 32.706694,166.86026 C 23.704194,166.86026 16.456694,174.10776 16.456694,183.11026 C 16.456694,192.11276 23.704194,199.36026 32.706694,199.36026 L 205.20669,199.36026 C 214.20919,199.36026 221.45669,192.11276 221.45669,183.11026 C 221.45669,174.10776 214.20919,166.86026 205.20669,166.86026 L 32.706694,166.86026 z"
             id="path1194"
             style="opacity:0.04787233;fill-rule:evenodd;stroke-width:3pt" />
          <path
             d="M 32.706694,168.11026 C 24.396694,168.11026 17.706694,174.80026 17.706694,183.11026 C 17.706694,191.42026 24.396694,198.11026 32.706694,198.11026 L 205.20669,198.11026 C 213.51669,198.11026 220.20669,191.42026 220.20669,183.11026 C 220.20669,174.80026 213.51669,168.11026 205.20669,168.11026 L 32.706694,168.11026 z"
             id="path1193"
             style="opacity:0.04787233;fill-rule:evenodd;stroke-width:3pt" />
          <path
             d="M 32.707764,169.36026 C 25.090264,169.36026 18.957764,175.49276 18.957764,183.11026 C 18.957764,190.72776 25.090264,196.86026 32.707764,196.86026 L 205.20618,196.86026 C 212.82368,196.86026 218.95618,190.72776 218.95618,183.11026 C 218.95618,175.49276 212.82368,169.36026 205.20618,169.36026 L 32.707764,169.36026 z"
             id="path1192"
             style="opacity:0.04787233;fill-rule:evenodd;stroke-width:3pt" />
          <path
             d="M 32.706694,170.61026 C 25.781694,170.61026 20.206694,176.18526 20.206694,183.11026 C 20.206694,190.03526 25.781694,195.61026 32.706694,195.61026 L 205.20669,195.61026 C 212.13169,195.61026 217.70669,190.03526 217.70669,183.11026 C 217.70669,176.18526 212.13169,170.61026 205.20669,170.61026 L 32.706694,170.61026 z"
             id="path1191"
             style="opacity:0.04787233;fill-rule:evenodd;stroke-width:3pt" />
          <path
             d="M 32.706694,171.86026 C 26.474194,171.86026 21.456694,176.87776 21.456694,183.11026 C 21.456694,189.34276 26.474194,194.36026 32.706694,194.36026 L 205.20669,194.36026 C 211.43919,194.36026 216.45669,189.34276 216.45669,183.11026 C 216.45669,176.87776 211.43919,171.86026 205.20669,171.86026 L 32.706694,171.86026 z"
             id="path1190"
             style="opacity:0.04787233;fill-rule:evenodd;stroke-width:3pt" />
          <path
             d="M 32.706694,173.11026 C 27.166694,173.11026 22.706694,177.57026 22.706694,183.11026 C 22.706694,188.65026 27.166694,193.11026 32.706694,193.11026 L 205.20669,193.11026 C 210.74669,193.11026 215.20669,188.65026 215.20669,183.11026 C 215.20669,177.57026 210.74669,173.11026 205.20669,173.11026 L 32.706694,173.11026 z"
             id="path1189"
             style="opacity:0.04787233;fill-rule:evenodd;stroke-width:3pt" />
        </g>
        <path
           d="M 5.4186638,5.45611 C 4.9536872,5.45611 4.6035534,5.6913368 4.6035534,6.182833 L 4.6035534,39.203794 C 4.6035534,39.93094 5.0906584,40.415354 5.7526104,40.415354 L 43.489564,40.415354 C 44.155366,40.415354 44.419872,39.962588 44.419872,39.328794 L 44.419872,10.425912 C 44.419872,9.8829469 44.019585,9.589354 43.520814,9.589354 L 24.41149,9.589354 C 24.074477,9.589354 23.71481,9.390928 23.517009,9.118067 L 20.914778,5.918058 C 20.696913,5.617519 20.272703,5.456125 19.9015,5.456125 L 5.4186638,5.45611 z"
           id="path895"
           style="fill:#ff9955;fill-opacity:1;fill-rule:evenodd;stroke:#ff6600;stroke-width:1;stroke-miterlimit:4;stroke-opacity:1" />
        <g
           transform="matrix(0.186703,0,0,0.186703,-21.1073,57.62299)"
           id="g891" />
        <path
           d="M 5.0625,7.90625 L 5.0625,36.15625 L 6.03125,31.78125 L 6.25,9.15625 C 6.25,8.4058274 6.7614657,8.03125 7.4869586,8.03125 L 19.09375,8.03125 C 20.655346,8.03125 22.108598,11.21875 24.411417,11.21875 C 30.383036,11.21875 43.749813,11.306338 43.75,11.21875 L 43.75,10.1875 L 24.21875,10.0625 C 22.362615,10.050621 21.088324,6.90625 19.65625,6.90625 L 6.2838336,6.90625 C 5.4685048,6.90625 5.0625,7.2604161 5.0625,7.90625 z"
           id="path315"
           style="opacity:1;fill:url(#linearGradient320);fill-opacity:1;fill-rule:evenodd;stroke:none;stroke-width:0.25pt;stroke-linecap:butt;stroke-linejoin:miter;marker:none;marker-start:none;marker-mid:none;marker-end:none;stroke-miterlimit:4;stroke-dasharray:none;stroke-dashoffset:0;stroke-opacity:1;visibility:visible;display:inline;overflow:visible" />
        <path
           d="M 7.686454,17.296282 L 15.619799,17.296282 C 16.361533,17.296282 16.987769,16.915471 17.306966,16.414278 C 17.443709,16.199569 18.574948,14.28855 18.66464,14.158052 C 18.963427,13.723328 19.437557,13.399136 20.006622,13.399136 L 43.048855,13.399136 C 43.851692,13.399136 44.498018,14.042925 44.498018,14.84261 L 44.498018,39.915459 C 44.498018,40.715143 43.851692,41.358932 43.048855,41.358932 L 6.1279084,41.358932 C 5.3250725,41.358932 4.6787461,40.715143 4.6787461,39.915459 L 4.6787461,20.481904 C 4.6787461,18.507539 5.8190623,17.296282 7.686454,17.296282 z"
           id="rect337"
           style="fill:#ff9955;fill-opacity:1;fill-rule:evenodd;stroke:#ff6600;stroke-width:0.99999988;stroke-linecap:butt;stroke-linejoin:round;marker:none;marker-start:none;marker-mid:none;marker-end:none;stroke-miterlimit:4;stroke-dashoffset:0;stroke-opacity:1;visibility:visible;display:inline;overflow:visible" />
        <path
           d="M 20.25,13.75 C 19.603581,13.75 19.24096,14.031698 18.875,14.5 C 18.50904,14.968302 18.093502,15.671815 17.8125,16.21875 C 17.531498,16.765685 17.243409,17.272919 16.96875,17.625 C 16.694091,17.977081 16.479167,18.125 16.25,18.125 C 15,18.125 7.0928301,18.125 6.5928301,18.125 C 6.1344968,18.125 5.7573599,18.355519 5.4365801,18.65625 C 5.1158003,18.956981 4.8428301,19.3625 4.8428301,19.875 C 4.8428302,20.499998 4.8428301,39.25 4.8428301,39.25 L 5.8428301,39.25 C 5.8428301,39.25 5.8428302,20.500002 5.8428301,19.875 C 5.8428301,19.7625 5.9448599,19.543019 6.1240801,19.375 C 6.3033003,19.206981 6.5511635,19.125 6.5928301,19.125 C 7.0928301,19.125 15,19.125 16.25,19.125 C 16.895833,19.125 17.384731,18.718232 17.75,18.25 C 18.115269,17.781768 18.406559,17.203065 18.6875,16.65625 C 18.968441,16.109435 19.318667,15.477011 19.59375,15.125 C 19.868833,14.772989 20.019189,14.75 20.25,14.75 C 21.466667,14.75 43.5,14.875 43.5,14.875 L 43.5,13.875 C 43.5,13.875 21.533333,13.75 20.25,13.75 z"
           id="path349"
           style="opacity:1;fill:url(#linearGradient355);fill-opacity:1;fill-rule:evenodd;stroke:none;stroke-width:0.25pt;stroke-linecap:butt;stroke-linejoin:miter;marker:none;marker-start:none;marker-mid:none;marker-end:none;stroke-miterlimit:4;stroke-dasharray:none;stroke-dashoffset:0;stroke-opacity:1;visibility:visible;display:inline;overflow:visible" />
        <rect
           width="37.95816"
           height="23.625"
           rx="0.43750021"
           ry="0.4375"
           x="5.4131637"
           y="16.75"
           id="rect2337"
           style="opacity:0.2857143;fill:none;fill-opacity:1;fill-rule:evenodd;stroke:url(#linearGradient2345);stroke-width:1.00000024;stroke-linecap:square;stroke-linejoin:round;marker:none;marker-start:none;marker-mid:none;marker-end:none;stroke-miterlimit:4;stroke-dasharray:none;stroke-dashoffset:0;stroke-opacity:1;visibility:visible;display:inline;overflow:visible" />
      </g>
    </g>
    <g
       transform="matrix(-0.4804784,-0.2768212,-0.3096864,0.5375225,41.795679,19.225297)"
       id="g2776">
      <path
         d="M 40.481863,36.421127 A 15.644737,8.3968935 0 1 1 9.1923885,36.421127 A 15.644737,8.3968935 0 1 1 40.481863,36.421127 z"
         transform="matrix(1.47967,0,0,-0.872353,-13.55145,72.5668)"
         id="path8660"
         style="opacity:0.12999998;fill:url(#radialGradient2782);fill-opacity:1;fill-rule:evenodd;stroke:none;stroke-width:1;stroke-linecap:butt;stroke-linejoin:miter;marker:none;marker-start:none;marker-mid:none;marker-end:none;stroke-miterlimit:10;stroke-dasharray:none;stroke-dashoffset:0;stroke-opacity:1;visibility:visible;display:inline;overflow:visible" />
      <path
         d="M 17.424821,41.893434 C 0.283744,32.442251 9.935604,12.409146 26.422371,12.56649 L 26.422371,4.4999994 L 42.5,18.558177 L 26.422371,33.301549 C 26.422371,33.301549 26.422371,24.572517 26.422371,24.572517 C 16.187754,24.157353 11.680698,31.839537 20.650045,37.935965 C 23.217139,39.680812 21.438823,44.106661 17.424821,41.893434 z"
         id="path1432"
         style="opacity:1;fill:url(#linearGradient2784);fill-opacity:1;fill-rule:nonzero;stroke:#c4a000;stroke-width:0.99999887;stroke-linecap:butt;stroke-linejoin:miter;marker:none;marker-start:none;marker-mid:none;marker-end:none;stroke-miterlimit:4;stroke-dasharray:none;stroke-dashoffset:0;stroke-opacity:1;visibility:visible;display:block;overflow:visible" />
      <path
         d="M 27.4375,6.6875 L 27.4375,12.5625 C 27.429067,13.111254 26.986254,13.554067 26.4375,13.5625 C 18.60766,13.487775 12.455124,18.243926 10.28125,24 C 8.1073762,29.756074 9.7034903,36.491213 17.9375,41.03125 C 18.787678,41.500018 19.403324,41.546979 19.8125,41.46875 C 20.221676,41.390521 20.480107,41.171685 20.65625,40.875 C 21.008536,40.281629 20.95643,39.367611 20.09375,38.78125 C 17.736506,37.179041 16.184817,35.430234 15.40625,33.625 C 14.627683,31.819766 14.666426,29.952664 15.4375,28.375 C 16.979649,25.219673 21.09153,23.344375 26.46875,23.5625 C 27.005266,23.587284 27.429756,24.025468 27.4375,24.5625 C 27.4375,24.5625 27.4375,28.496601 27.4375,31 L 41,18.5625 L 27.4375,6.6875 z"
         id="path4247"
         style="opacity:0.61797755;fill:none;fill-opacity:1;fill-rule:nonzero;stroke:url(#linearGradient2786);stroke-width:0.99999893;stroke-linecap:butt;stroke-linejoin:miter;marker:none;marker-start:none;marker-mid:none;marker-end:none;stroke-miterlimit:4;stroke-dashoffset:0;stroke-opacity:1;visibility:visible;display:block;overflow:visible" />
      <path
         d="M 41.660227,18.605336 C 23.110128,15.475328 12.765166,20.754837 8.865084,29.04107 C 8.711319,16.398198 21.828491,12.721185 26.954933,13.108518 L 26.939308,5.6020321 L 41.660227,18.605336 z"
         id="path4920"
         style="opacity:0.45;fill:url(#linearGradient2788);fill-opacity:1;fill-rule:evenodd;stroke:none;stroke-width:1px;stroke-linecap:butt;stroke-linejoin:miter;stroke-opacity:1" />
    </g>
  </g>
</svg>
