<?xml version="1.0" encoding="UTF-8" standalone="no"?>
<!-- Created with Inkscape (http://www.inkscape.org/) -->

<svg
   xmlns:dc="http://purl.org/dc/elements/1.1/"
   xmlns:cc="http://creativecommons.org/ns#"
   xmlns:rdf="http://www.w3.org/1999/02/22-rdf-syntax-ns#"
   xmlns:svg="http://www.w3.org/2000/svg"
   xmlns="http://www.w3.org/2000/svg"
   xmlns:xlink="http://www.w3.org/1999/xlink"
   xmlns:sodipodi="http://sodipodi.sourceforge.net/DTD/sodipodi-0.dtd"
   xmlns:inkscape="http://www.inkscape.org/namespaces/inkscape"
   version="1.1"
   width="200"
   height="200"
   id="svg2"
   inkscape:version="0.48.1 "
   sodipodi:docname="noimage.svg">
  <sodipodi:namedview
     pagecolor="#ffffff"
     bordercolor="#666666"
     borderopacity="1"
     objecttolerance="10"
     gridtolerance="10"
     guidetolerance="10"
     inkscape:pageopacity="0"
     inkscape:pageshadow="2"
     inkscape:window-width="640"
     inkscape:window-height="480"
     id="namedview21"
     showgrid="false"
     inkscape:zoom="2.0327344"
     inkscape:cx="100"
     inkscape:cy="100"
     inkscape:current-layer="svg2" />
  <defs
     id="defs4">
    <linearGradient
       id="linearGradient3755">
      <stop
         id="stop3757"
         style="stop-color:#009c9c;stop-opacity:1"
         offset="0" />
      <stop
         id="stop3759"
         style="stop-color:#006969;stop-opacity:1"
         offset="1" />
    </linearGradient>
    <linearGradient
       x1="104.4898"
       y1="0.2063244"
       x2="102.19331"
       y2="201.14824"
       id="linearGradient3761"
       xlink:href="#linearGradient3755"
       gradientUnits="userSpaceOnUse" />
    <filter
       color-interpolation-filters="sRGB"
       id="filter3843">
      <feGaussianBlur
         id="feGaussianBlur3845"
         stdDeviation="2.5778654" />
    </filter>
    <linearGradient
       inkscape:collect="always"
       xlink:href="#linearGradient3755"
       id="linearGradient3007"
       gradientUnits="userSpaceOnUse"
       x1="104.4898"
       y1="0.2063244"
       x2="102.19331"
       y2="201.14824" />
  </defs>
  <metadata
     id="metadata7">
    <rdf:RDF>
      <cc:Work
         rdf:about="">
        <dc:format>image/svg+xml</dc:format>
        <dc:type
           rdf:resource="http://purl.org/dc/dcmitype/StillImage" />
        <dc:title></dc:title>
      </cc:Work>
    </rdf:RDF>
  </metadata>
  <rect
     style="fill:url(#linearGradient3007);fill-opacity:1;fill-rule:nonzero;stroke:none"
     id="rect2985"
     y="0.20632437"
     x="-1.6254585e-008"
     height="199.79369"
     width="202.09016" />
  <text
     sodipodi:linespacing="100%"
     style="font-size:36px;font-style:normal;font-variant:normal;font-weight:normal;font-stretch:normal;text-align:start;line-height:100%;letter-spacing:0px;word-spacing:0px;writing-mode:lr-tb;text-anchor:start;fill:#000000;fill-opacity:1;stroke:none;font-family:ReservoirGrunge;-inkscape-font-specification:ReservoirGrunge"
     xml:space="preserve"
     id="text3767"
     y="120.77147"
     x="68.894371"><tspan
       id="tspan3769"
       y="120.77147"
       x="68.894371" /></text>
  <g
     style="font-size:36px;font-style:normal;font-variant:normal;font-weight:normal;font-stretch:normal;text-align:start;line-height:100%;letter-spacing:0px;word-spacing:0px;writing-mode:lr-tb;text-anchor:start;fill:#000000;fill-opacity:1;stroke:#ff0000;stroke-opacity:1;font-family:ReservoirGrunge;-inkscape-font-specification:ReservoirGrunge"
     id="text3002">
    <path
       d="M 19.486143,78.33255 C 21.454157,78.501008 23.686211,78.585236 26.18231,78.585236 L 28.486143,78.585236 C 28.294238,78.585236 28.558276,78.573151 29.278257,78.548981 29.278246,78.548981 29.542284,78.548981 30.070371,78.548981 L 30.538389,78.117218 C 30.681931,71.781044 30.753709,67.173016 30.753721,64.293121 L 30.753721,50.43277 C 30.633592,50.120787 30.477586,49.904723 30.285703,49.784576 L 19.73773,49.53299 C 19.545834,49.676573 19.389828,49.904356 19.269712,50.216339 19.269711,51.656308 19.233823,53.822443 19.162046,56.714752 19.090268,59.607106 19.05438,61.773241 19.05438,63.213165 L 19.05438,77.6492 C 19.126157,77.816926 19.270078,78.044709 19.486143,78.33255 z"
       id="path3790"
       inkscape:connector-curvature="0" />
    <path
       d="M 39.803301,78.40506 C 42.107491,78.40506 43.355537,78.201081 43.547441,77.793121 43.643378,77.601228 43.679267,77.360994 43.655107,77.072418 43.606757,76.496737 43.582587,76.244784 43.582598,76.316559 43.582587,76.412509 43.642646,73.880529 43.762774,68.720612 43.762763,68.384441 43.774848,67.760418 43.799028,66.848541 43.870795,65.5529 44.482733,64.520919 45.634844,63.752594 46.666813,63.104417 47.866885,62.78032 49.235064,62.780304 51.29901,62.78032 52.643003,63.764328 53.267046,65.73233 53.579037,66.716718 53.735043,68.552897 53.735064,71.240875 53.735043,71.840736 53.693112,72.746741 53.60927,73.958893 53.525387,75.171055 53.483456,76.07706 53.483477,76.67691 53.483456,77.348543 53.783383,77.900422 54.383257,78.33255 L 57.191362,78.33255 C 56.543146,78.332551 57.490899,78.392609 60.034624,78.512726 61.235035,78.561066 62.135181,78.453034 62.735064,78.188629 63.550951,77.829011 63.95891,77.133211 63.958941,76.101227 L 63.958941,66.848541 64.319292,66.021271 C 65.255295,63.860641 67.031416,62.78032 69.647661,62.780304 71.447183,62.78032 72.671059,63.476486 73.319292,64.868805 73.75138,65.804853 73.967445,67.292767 73.967485,69.33255 73.967445,70.196817 73.92533,71.474892 73.841143,73.166779 73.756873,74.858677 73.714759,76.136752 73.7148,77.001007 73.714759,77.288851 73.942908,77.660921 74.399248,78.117218 75.311071,78.117219 76.661106,78.153108 78.449358,78.224884 80.237519,78.296662 81.587554,78.332551 82.499468,78.33255 83.554837,78.332551 84.082547,78.032624 84.082598,77.43277 L 84.082598,65.300568 C 84.082547,61.820848 83.014677,59.313038 80.878984,57.77713 79.031038,56.456596 76.307164,55.796318 72.707354,55.796295 69.442913,55.796318 66.034957,56.708549 62.483477,58.53299 L 62.015459,58.53299 C 59.231497,56.732719 55.775568,55.832573 51.647661,55.83255 49.487,55.832573 47.278751,56.360649 45.022905,57.416779 44.663275,57.584525 44.32746,57.668387 44.015459,57.668365 43.823554,57.668387 43.661506,57.476492 43.529314,57.092682 43.397102,56.708915 43.270942,56.517021 43.150835,56.516998 L 34.150835,56.516998 C 34.054887,56.517021 33.898881,56.744804 33.682817,57.200348 33.682817,59.312672 33.646928,62.462816 33.575151,66.650787 33.503374,70.838784 33.467485,73.988927 33.467485,76.101227 33.467485,77.564607 33.839189,78.308381 34.582598,78.33255 35.61531,78.38089 37.355543,78.40506 39.803301,78.40506 z"
       style=""
       id="path3792" />
    <path
       d="M 84.79561,71.528717 C 84.79561,74.360997 86.151322,76.42496 88.862749,77.720612 90.90327,78.704987 93.507393,79.197174 96.675127,79.197174 99.147036,79.197174 102.08697,78.525177 105.49495,77.181183 105.92706,77.012728 106.23907,76.928499 106.43099,76.928497 106.69537,76.928499 107.04949,77.156465 107.49336,77.612396 107.93719,78.06833 108.31512,78.296296 108.62715,78.296295 L 118.09517,78.296295 C 118.69499,78.296296 118.99492,77.084505 118.99495,74.660919 118.99492,73.724889 118.81511,73.160925 118.45552,72.969025 117.83147,72.657019 117.41142,72.332923 117.19539,71.996735 117.19536,71.084877 117.15343,69.728983 117.0696,67.929047 116.9857,66.129133 116.94377,64.772872 116.9438,63.86026 116.94377,60.356372 115.08342,57.968679 111.36275,56.697174 109.10687,55.928887 105.78314,55.544732 101.39156,55.544708 99.759706,55.544732 98.199649,55.60479 96.711382,55.724884 95.487494,55.820854 93.771431,56.108696 91.563189,56.588409 88.707471,57.212455 87.279616,57.776419 87.279619,58.280304 87.279616,58.520559 87.351394,58.748708 87.494951,58.964752 88.455152,60.476489 89.511304,61.976488 90.663408,63.464752 90.735179,63.488938 90.951244,63.501023 91.311602,63.501007 91.671214,63.501023 93.099069,63.189011 95.595171,62.564972 96.843205,62.252977 98.919253,62.096971 101.82332,62.096954 104.72735,62.096971 106.17938,62.469041 106.1794,63.213165 106.17938,63.309128 106.16729,63.405075 106.14314,63.501007 L 105.92671,63.681183 C 103.33539,63.728806 100.74371,63.860641 98.15169,64.076691 94.527656,64.388717 92.439523,64.592696 91.887285,64.688629 89.415356,65.144942 87.615431,66.021101 86.487505,67.317108 85.359574,68.613139 84.79561,70.017007 84.79561,71.528717 z M 96.026934,70.736603 C 96.026922,69.464396 98.331119,68.828288 102.93953,68.828278 L 104.30733,68.828278 C 104.9555,68.828288 105.6513,68.912516 106.39473,69.080963 L 106.61116,69.512726 106.61116,69.656647 C 106.61114,70.712807 105.66302,71.528724 103.7668,72.104401 102.47113,72.488929 101.09125,72.681189 99.627153,72.681183 97.226994,72.681189 96.026922,72.032996 96.026934,70.736603 z"
       style=""
       id="path3794" />
    <path
       d="M 120.17269,81.788849 C 120.17268,82.412869 121.44453,83.060695 123.98824,83.73233 126.19648,84.308741 127.78071,84.596949 128.74092,84.596954 129.07636,84.596949 130.12006,84.657007 131.87203,84.77713 132.56855,84.824732 134.16486,84.848535 136.66097,84.848541 141.07672,84.848535 144.38873,84.452662 146.597,83.660919 150.02837,82.437039 152.03227,80.04898 152.60872,76.496735 L 152.82405,76.245148 C 152.82402,76.052524 152.82402,75.704257 152.82405,75.200348 152.84819,74.576329 152.86027,74.096593 152.86031,73.761139 152.86027,73.761144 152.86027,72.933142 152.86031,71.27713 152.86027,64.31694 152.77641,59.60088 152.60872,57.128937 152.56035,56.529106 152.3322,56.229179 151.92427,56.229156 L 143.1407,56.229156 C 142.94879,56.229179 142.77484,56.457145 142.61885,56.913055 142.46282,57.36901 142.19256,57.596976 141.80806,57.596954 142.6723,57.596976 142.57049,57.447013 141.50264,57.147064 140.43475,56.84716 139.06073,56.541191 137.38057,56.229156 135.60443,55.917168 134.3443,55.761162 133.60018,55.761139 129.64069,55.761162 126.425,56.625053 123.95308,58.352814 121.1208,60.32085 119.70467,63.212815 119.70467,67.028717 119.70467,70.701089 121.25264,73.401159 124.34859,75.128937 126.79634,76.497103 130.0124,77.181185 133.99678,77.181183 135.8205,77.181185 137.36847,77.025179 138.6407,76.713165 139.24054,76.544711 139.82867,76.37662 140.40511,76.208893 141.12506,76.017001 141.73699,75.921054 142.24092,75.921051 L 142.24092,76.245148 C 142.14495,76.412875 141.83294,76.74869 141.30489,77.252594 140.46478,78.044343 139.26471,78.560334 137.70467,78.800568 136.93634,78.920685 135.60443,78.980743 133.70894,78.980743 130.94843,78.980743 128.32014,78.596589 125.82405,77.828278 125.65632,77.780671 125.15242,77.552888 124.31233,77.144928 123.71248,76.857088 123.19649,76.713168 122.76436,76.713165 122.26045,76.713168 121.6844,77.433138 121.03621,78.873077 120.46053,80.168731 120.17268,81.140653 120.17269,81.788849 z M 130.97225,66.596954 C 130.97223,65.157027 131.63251,64.077072 132.95308,63.357086 134.00849,62.780686 135.31622,62.492479 136.8763,62.492462 138.36456,62.492479 139.62469,62.792405 140.65669,63.392242 141.88055,64.136398 142.49249,65.204634 142.49251,66.596954 142.49249,67.724895 141.95855,68.714762 140.8907,69.566559 139.82281,70.418374 138.70074,70.844277 137.52449,70.844269 135.77252,70.844277 134.33258,70.56852 133.20467,70.016998 131.71637,69.297037 130.97223,68.157024 130.97225,66.596954 z"
       style=""
       id="path3796" />
    <path
       d="M 155.03708,67.53299 C 155.03708,68.589152 155.19308,69.621134 155.50509,70.628937 156.58468,74.108678 158.73251,76.532626 161.94857,77.900787 164.37288,78.93277 167.69697,79.448761 171.92086,79.448761 176.26484,79.448761 179.72077,79.028717 182.28866,78.188629 183.56085,77.780671 184.74884,77.036531 185.85263,75.956207 187.07647,74.756504 187.68841,73.544714 187.68844,72.320831 187.68841,72.104774 187.60455,71.996742 187.43686,71.996735 L 176.85263,71.996735 C 176.46882,71.996742 175.68897,72.224708 174.51309,72.680634 173.33717,73.136572 172.42512,73.364538 171.77694,73.364532 170.60066,73.364538 169.55659,73.184729 168.64474,72.825104 167.37251,72.344642 166.7364,71.612587 166.73642,70.628937 L 169.43686,70.30484 186.75241,70.30484 C 187.32879,70.304849 187.78472,70.040811 188.12021,69.512726 188.12017,69.70463 188.13226,69.440592 188.15646,68.720612 188.15643,68.720622 188.15643,68.456584 188.15646,67.928497 188.15643,64.304489 186.81243,61.376635 184.12448,59.144928 181.70087,57.152762 178.60492,56.036552 174.83664,55.796295 174.45283,55.772881 173.39668,55.761162 171.66818,55.761139 166.70088,55.761162 162.90914,56.469047 160.29293,57.884796 156.78903,59.756886 155.03708,62.972947 155.03708,67.53299 z M 166.48483,64.00528 C 166.48482,63.381272 167.1927,62.805222 168.60849,62.27713 169.78474,61.845018 170.76875,61.628954 171.56051,61.628937 172.54487,61.628954 173.60102,61.808764 174.72897,62.168365 176.16889,62.624681 176.88886,63.236985 176.88888,64.00528 176.88886,64.148849 176.80463,64.256515 176.6362,64.328278 175.00434,64.496749 173.42048,64.580978 171.88461,64.580963 L 168.32064,64.580963 C 167.09676,64.580978 166.48482,64.389083 166.48483,64.00528 z"
       id="path3798"
       inkscape:connector-curvature="0" />
  </g>
  <g
     style="font-size:36px;font-style:normal;font-variant:normal;font-weight:normal;font-stretch:normal;text-align:start;line-height:100%;letter-spacing:0px;word-spacing:0px;writing-mode:lr-tb;text-anchor:start;fill:#000000;fill-opacity:1;stroke:#ff0000;stroke-opacity:1;font-family:ReservoirGrunge;-inkscape-font-specification:ReservoirGrunge"
     id="text3006">
    <path
       d="M 24.933832,122.82432 58.665155,122.82432 C 58.809408,122.82432 58.959554,122.68022 59.115595,122.39201 59.271565,122.1038 59.349568,121.87583 59.349603,121.70811 L 59.349603,116.52366 C 59.349568,116.09227 59.193562,115.79234 58.881586,115.62388 57.609336,115.62389 55.701195,115.588 53.15716,115.51621 50.613066,115.44444 48.705292,115.40856 47.433832,115.40855 L 38.397577,115.37229 C 36.909283,115.32396 36.165143,114.85594 36.165155,113.96824 36.165143,112.67186 36.46507,112.02367 37.064935,112.02366 L 53.265375,112.02366 C 53.673304,112.02367 53.901454,111.79589 53.949823,111.34031 54.093348,110.13988 54.165125,108.32787 54.165155,105.90428 L 54.165155,105.25608 53.733392,104.82432 C 50.541472,104.68005 45.585544,104.60791 38.865595,104.60789 38.001323,104.60791 37.317242,104.49988 36.813349,104.28379 36.525494,104.16369 36.381574,103.55176 36.381586,102.44798 36.381574,101.91992 36.465436,101.55994 36.633173,101.36802 36.70567,101.29627 38.037944,101.26038 40.629999,101.26036 L 48.189691,101.26036 C 51.165494,101.26038 54.285242,101.17615 57.548944,101.00767 L 57.765375,100.75608 C 57.933066,99.748294 58.016928,98.41639 58.016962,96.760359 58.016928,95.53651 57.933066,94.696423 57.765375,94.240095 57.669394,93.976453 57.357383,93.832532 56.82934,93.808333 56.301231,93.784192 52.677212,93.724134 45.957269,93.628157 42.597632,93.579847 39.621805,93.555677 37.029779,93.555647 L 31.952997,93.555647 C 28.016958,93.555677 25.785271,93.687879 25.257929,93.952254 25.16198,93.99989 25.053948,94.095837 24.933832,94.240095 24.59765,96.92811 24.417474,100.19214 24.393305,104.03221 24.417474,100.16797 24.429559,103.43201 24.429559,113.82432 L 24.429559,118.97251 C 24.429559,119.11607 24.429559,119.35594 24.429559,119.69212 24.453729,120.10008 24.465814,120.42418 24.465814,120.66441 24.465814,120.66441 24.465814,121.22837 24.465814,122.3563 z"
       id="path3779"
       inkscape:connector-curvature="0" />
    <path
       d="M 61.027835,121.98363 C 61.219729,122.2722 61.399539,122.56041 61.567264,122.84825 61.73572,123.01598 62.08362,123.09984 62.610965,123.09984 L 70.243167,123.09984 C 70.363275,123.09984 70.561395,122.98595 70.837528,122.75816 71.11364,122.53038 71.28759,122.34435 71.359378,122.20006 L 71.359378,110.96764 C 71.359368,110.10413 71.635307,109.36035 72.187198,108.73631 72.739066,108.11231 73.435049,107.80029 74.27515,107.80028 75.331287,107.80029 76.135486,108.19617 76.687747,108.9879 77.04735,109.49182 77.37108,110.3678 77.658939,111.61583 77.947496,111.7843 78.391709,111.86853 78.99158,111.86852 79.903426,111.86853 81.223249,111.7843 82.951053,111.61583 84.799662,111.39978 86.071877,111.1958 86.767704,111.00389 87.007179,110.93213 87.199073,110.76404 87.343387,110.49962 87.34336,110.66809 87.355445,110.41614 87.379642,109.74376 87.379615,109.74377 87.379615,109.49182 87.379642,108.9879 87.379615,106.08387 86.743508,103.95984 85.471317,102.61583 84.199076,101.27186 82.123029,100.59986 79.243167,100.59984 77.539537,100.59986 75.63158,100.97193 73.51929,101.71605 L 71.467044,102.43565 C 71.323479,102.43568 71.161614,102.24378 70.981449,101.85997 70.801263,101.4762 70.627313,101.28431 70.459598,101.28429 L 61.459598,101.28429 61.027835,101.75231 z"
       id="path3781"
       inkscape:connector-curvature="0" />
    <path
       d="M 90.065941,122.47558 C 90.257835,122.76415 90.437644,123.05236 90.60537,123.3402 90.773826,123.50793 91.121726,123.59179 91.649071,123.59179 L 99.281273,123.59179 C 99.40138,123.59179 99.5995,123.4779 99.875633,123.25011 100.15175,123.02233 100.3257,122.8363 100.39748,122.69201 L 100.39748,111.45959 C 100.39747,110.59608 100.67341,109.8523 101.2253,109.22826 101.77717,108.60426 102.47315,108.29224 103.31326,108.29223 104.36939,108.29224 105.17359,108.68812 105.72585,109.47985 106.08546,109.98377 106.40919,110.85975 106.69704,112.10778 106.9856,112.27625 107.42981,112.36048 108.02969,112.36047 108.94153,112.36048 110.26135,112.27625 111.98916,112.10778 113.83777,111.89173 115.10998,111.68775 115.80581,111.49584 116.04528,111.42408 116.23718,111.25599 116.38149,110.99157 116.38147,111.16004 116.39355,110.90809 116.41775,110.23571 116.41772,110.23572 116.41772,109.98377 116.41775,109.47985 116.41772,106.57582 115.78161,104.45179 114.50942,103.10778 113.23718,101.76381 111.16113,101.09181 108.28127,101.09179 106.57764,101.09181 104.66969,101.46388 102.5574,102.208 L 100.50515,102.9276 C 100.36158,102.92763 100.19972,102.73573 100.01955,102.35192 99.839368,101.96815 99.665418,101.77626 99.497704,101.77624 L 90.497704,101.77624 90.065941,102.24426 z"
       style=""
       id="path3783" />
    <path
       d="M 117.13625,112.21545 C 117.13625,117.11169 119.27199,120.45996 123.54348,122.26025 126.37575,123.45995 130.62379,124.05981 136.28762,124.05981 137.80005,124.05981 138.91626,124.04772 139.63625,124.02355 140.95605,123.97594 142.5758,123.5321 144.49551,122.69201 149.05553,120.67566 151.33556,116.97949 151.33559,111.60351 151.33556,110.66749 151.14367,109.74354 150.75991,108.83166 149.82384,106.59999 148.77978,104.96815 147.62771,103.93615 146.47558,102.90419 144.75952,102.09999 142.47952,101.52355 141.83203,101.35585 140.12805,101.05592 137.36758,100.62377 137.15149,100.55202 136.85157,100.48024 136.4678,100.40844 135.74781,100.38429 134.93189,100.37221 134.02004,100.37218 122.76418,100.37221 117.13625,104.31996 117.13625,112.21545 z M 128.36758,112.21545 C 128.36757,110.48768 128.94361,109.15577 130.09573,108.21972 131.15186,107.35621 132.568,106.92445 134.34414,106.92443 L 136.03603,106.92443 C 136.44397,106.92445 136.98377,107.16432 137.65542,107.64404 139.14368,108.72437 139.88782,110.24818 139.88784,112.21545 139.88782,113.82386 139.36578,115.14404 138.32174,116.17602 137.27765,117.20801 135.95179,117.724 134.34414,117.72399 132.568,117.724 131.12788,117.24408 130.02377,116.28423 128.91963,115.3244 128.36757,113.96814 128.36758,112.21545 z"
       style=""
       id="path3785" />
    <path
       d="M 154.04936,122.47558 C 154.24125,122.76415 154.42106,123.05236 154.58878,123.3402 154.75724,123.50793 155.10514,123.59179 155.63249,123.59179 L 163.26469,123.59179 C 163.3848,123.59179 163.58292,123.4779 163.85905,123.25011 164.13516,123.02233 164.30911,122.8363 164.3809,122.69201 L 164.3809,111.45959 C 164.38089,110.59608 164.65683,109.8523 165.20872,109.22826 165.76059,108.60426 166.45657,108.29224 167.29667,108.29223 168.35281,108.29224 169.15701,108.68812 169.70927,109.47985 170.06887,109.98377 170.3926,110.85975 170.68046,112.10778 170.96902,112.27625 171.41323,112.36048 172.0131,112.36047 172.92495,112.36048 174.24477,112.27625 175.97257,112.10778 177.82118,111.89173 179.0934,111.68775 179.78922,111.49584 180.0287,111.42408 180.22059,111.25599 180.36491,110.99157 180.36488,111.16004 180.37697,110.90809 180.40116,110.23571 180.40114,110.23572 180.40114,109.98377 180.40116,109.47985 180.40114,106.57582 179.76503,104.45179 178.49284,103.10778 177.2206,101.76381 175.14455,101.09181 172.26469,101.09179 170.56106,101.09181 168.6531,101.46388 166.54081,102.208 L 164.48856,102.9276 C 164.345,102.92763 164.18313,102.73573 164.00297,102.35192 163.82278,101.96815 163.64883,101.77626 163.48112,101.77624 L 154.48112,101.77624 154.04936,102.24426 z"
       id="path3787"
       inkscape:connector-curvature="0" />
  </g>
</svg>
