<?xml version="1.0" encoding="UTF-8" standalone="no"?>
<!-- Created with Inkscape (http://www.inkscape.org/) -->

<svg
   xmlns:dc="http://purl.org/dc/elements/1.1/"
   xmlns:cc="http://creativecommons.org/ns#"
   xmlns:rdf="http://www.w3.org/1999/02/22-rdf-syntax-ns#"
   xmlns:svg="http://www.w3.org/2000/svg"
   xmlns="http://www.w3.org/2000/svg"
   xmlns:xlink="http://www.w3.org/1999/xlink"
   version="1.1"
   width="200"
   height="200"
   id="svg2">
  <defs
     id="defs4">
    <linearGradient
       id="linearGradient3755">
      <stop
         id="stop3757"
         style="stop-color:#009c9c;stop-opacity:1"
         offset="0" />
      <stop
         id="stop3759"
         style="stop-color:#006969;stop-opacity:1"
         offset="1" />
    </linearGradient>
    <linearGradient
       x1="104.4898"
       y1="0.2063244"
       x2="102.19331"
       y2="201.14824"
       id="linearGradient3761"
       xlink:href="#linearGradient3755"
       gradientUnits="userSpaceOnUse" />
    <filter
       color-interpolation-filters="sRGB"
       id="filter3843">
      <feGaussianBlur
         id="feGaussianBlur3845"
         stdDeviation="2.5778654" />
    </filter>
  </defs>
  <metadata
     id="metadata7">
    <rdf:RDF>
      <cc:Work
         rdf:about="">
        <dc:format>image/svg+xml</dc:format>
        <dc:type
           rdf:resource="http://purl.org/dc/dcmitype/StillImage" />
        <dc:title></dc:title>
      </cc:Work>
    </rdf:RDF>
  </metadata>
  <g
     transform="translate(0,-852.36218)"
     id="layer1">
    <rect
       width="202.09016"
       height="199.79369"
       x="-1.6254585e-008"
       y="0.20632437"
       transform="translate(0,852.36218)"
       id="rect2985"
       style="fill:url(#linearGradient3761);fill-opacity:1;fill-rule:nonzero;stroke:none" />
    <text
       x="68.894371"
       y="120.77147"
       transform="translate(0,852.36218)"
       id="text3767"
       xml:space="preserve"
       style="font-size:36px;font-style:normal;font-variant:normal;font-weight:normal;font-stretch:normal;text-align:start;line-height:100%;letter-spacing:0px;word-spacing:0px;writing-mode:lr-tb;text-anchor:start;fill:#000000;fill-opacity:1;stroke:none;font-family:ReservoirGrunge;-inkscape-font-specification:ReservoirGrunge"><tspan
         x="68.894371"
         y="120.77147"
         id="tspan3769"></tspan></text>
    <path
       d="M 23.253814,1042.1256 C 25.412003,1036.0549 28.858458,1030.6467 31.497824,1029.1891 32.393806,1028.6943 39.445187,1026.8963 47.167566,1025.1937 54.889952,1023.4909 62.757479,1021.429 64.650976,1020.6115 70.898986,1017.9139 74.559196,1014.9396 74.571738,1012.55 74.583682,1010.2734 70.947589,1002.0769 67.924229,997.5651 67.016876,996.21106 65.53552,992.77398 64.632325,989.92714 63.256892,985.59186 62.302737,984.33483 58.7583,982.18848 54.027045,979.32344 52.66417,977.32628 52.663391,973.25695 52.663091,971.73189 50.947885,967.60367 48.851813,964.08315 44.551365,956.86017 44.402108,955.86245 46.64556,949.33551 48.151352,944.95468 48.151352,944.193 46.64556,937.11199 44.722218,928.06744 44.582897,913.45851 46.348681,905.98209 48.733806,895.88329 58.640591,875.4544 61.15277,875.4544 61.577957,875.4544 63.808876,873.7552 66.11037,871.6784 68.411873,869.60159 72.398079,866.63905 74.968622,865.09494 79.462126,862.39574 80.315122,862.25646 97.092078,861.4825 113.39118,860.73058 114.77976,860.80407 118.15011,862.59693 120.13464,863.6526 124.7054,865.27225 128.30732,866.19615 137.70322,868.6062 141.71433,872.14501 147.21433,882.87685 L 151.73769,891.703 151.68754,905.4897 C 151.65997,913.07239 151.3208,921.27054 150.93384,923.70783 150.38416,927.16987 150.63589,928.99482 152.08458,932.05029 155.48062,939.21301 155.65549,941.20509 153.70065,950.46014 151.52763,960.74811 148.98212,967.09153 144.9255,972.32785 143.05671,974.74008 141.02933,979.4436 139.40742,985.12977 137.99725,990.07354 135.70086,995.84207 134.3043,997.94869 130.56255,1003.5931 130.83584,1008.3137 135.19282,1013.2969 139.50644,1018.2306 142.81346,1020.334 156.45166,1026.8189 162.47235,1029.6817 169.0218,1033.1341 171.006,1034.4908 174.80848,1037.091 178.95204,1044.0671 178.08334,1046.4063 177.64876,1047.5766 165.60555,1047.7881 99.405509,1047.7881 L 21.2408,1047.7881 23.253814,1042.1256 z"
       id="path3821"
       style="fill:#000000;fill-opacity:1;fill-rule:nonzero;stroke:none;filter:url(#filter3843)" />
    <path
       d="M 19.253814,1038.1256 C 21.412003,1032.0549 24.858458,1026.6467 27.497824,1025.1891 28.393806,1024.6943 35.445187,1022.8963 43.167566,1021.1937 50.889952,1019.4909 58.757479,1017.429 60.650976,1016.6115 66.898986,1013.9139 70.559196,1010.9396 70.571738,1008.55 70.583682,1006.2734 66.947589,998.07689 63.924229,993.5651 63.016876,992.21106 61.53552,988.77398 60.632325,985.92714 59.256892,981.59186 58.302737,980.33483 54.7583,978.18848 50.027045,975.32344 48.66417,973.32628 48.663391,969.25695 48.663091,967.73189 46.947885,963.60367 44.851813,960.08315 40.551365,952.86017 40.402108,951.86245 42.64556,945.33551 44.151352,940.95468 44.151352,940.193 42.64556,933.11199 40.722218,924.06744 40.582897,909.45851 42.348681,901.98209 44.733806,891.88329 54.640591,871.4544 57.15277,871.4544 57.577957,871.4544 59.808876,869.7552 62.11037,867.6784 64.411873,865.60159 68.398079,862.63905 70.968622,861.09494 75.462126,858.39574 76.315122,858.25646 93.092078,857.4825 109.39118,856.73058 110.77976,856.80407 114.15011,858.59693 116.13464,859.6526 120.7054,861.27225 124.30732,862.19615 133.70322,864.6062 137.71433,868.14501 143.21433,878.87685 L 147.73769,887.703 147.68754,901.4897 C 147.65997,909.07239 147.3208,917.27054 146.93384,919.70783 146.38416,923.16987 146.63589,924.99482 148.08458,928.05029 151.48062,935.21301 151.65549,937.20509 149.70065,946.46014 147.52763,956.74811 144.98212,963.09153 140.9255,968.32785 139.05671,970.74008 137.02933,975.4436 135.40742,981.12977 133.99725,986.07354 131.70086,991.84207 130.3043,993.94869 126.56255,999.59306 126.83584,1004.3137 131.19282,1009.2969 135.50644,1014.2306 138.81346,1016.334 152.45166,1022.8189 158.47235,1025.6817 165.0218,1029.1341 167.006,1030.4908 170.80848,1033.091 174.95204,1040.0671 174.08334,1042.4063 173.64876,1043.5766 161.60555,1043.7881 95.405509,1043.7881 L 17.2408,1043.7881 19.253814,1038.1256 z"
       id="path3819"
       style="fill:#333333;fill-opacity:1;fill-rule:nonzero;stroke:none" />
    <g
       transform="scale(0.95949401,1.042216)"
       id="text3763"
       style="font-size:31.23659897px;font-style:normal;font-variant:normal;font-weight:normal;font-stretch:normal;text-align:start;line-height:100%;letter-spacing:0px;word-spacing:0px;writing-mode:lr-tb;text-anchor:start;fill:#000000;fill-opacity:1;stroke:#ffffff;stroke-opacity:1;font-family:ReservoirGrunge;-inkscape-font-specification:ReservoirGrunge">
      <path
         d="M 14.694772,915.1507 41.246072,915.1507 C 41.641331,915.1507 41.838975,914.76526 41.839003,913.99439 L 41.839003,909.68372 C 41.838975,909.30941 41.703929,909.04917 41.433865,908.903 41.100195,908.903 40.615777,908.87186 39.980612,908.80958 39.345394,908.7473 38.861294,908.71616 38.528313,908.71616 36.945868,908.71616 34.571922,908.68486 31.406467,908.62226 28.240976,908.55967 25.86703,908.52837 24.284622,908.52836 L 23.878531,908.12227 23.878531,891.34861 C 23.87852,890.70296 23.753642,890.30704 23.503897,890.16085 L 14.320139,890.16085 13.914048,890.56694 C 13.788852,894.19064 13.726254,898.28268 13.726255,902.84309 13.726254,903.8847 13.695114,905.44662 13.632835,907.52886 13.570554,909.61112 13.539414,911.17304 13.539415,912.21464 13.539414,913.50536 13.601694,914.28609 13.726255,914.55681 13.91373,914.95274 14.236568,915.1507 14.694772,915.1507 z"
         id="path3772"
         style="stroke:#ffffff;stroke-opacity:1" />
      <path
         d="M 42.457671,905.09184 C 42.457671,909.34023 44.310817,912.24546 48.017115,913.80755 50.474625,914.84851 54.16058,915.36899 59.074993,915.36899 60.387303,915.36899 61.35582,915.35851 61.980546,915.33754 63.125714,915.29623 64.531144,914.91111 66.196838,914.18218 70.153497,912.43262 72.131839,909.22552 72.131869,904.56087 72.131839,903.7487 71.965335,902.94701 71.632358,902.15578 70.820147,900.2194 69.914228,898.80348 68.914598,897.90803 67.914915,897.01262 66.425916,896.31483 64.447597,895.81466 63.885784,895.66915 62.407271,895.40891 60.012053,895.03394 59.82456,894.97168 59.564319,894.9094 59.231329,894.8471 58.606606,894.82615 57.898648,894.81566 57.107453,894.81564 47.340927,894.81566 42.457671,898.24106 42.457671,905.09184 z M 52.202903,905.09184 C 52.202893,903.59268 52.702721,902.43701 53.70239,901.62481 54.618783,900.87556 55.847541,900.50093 57.388667,900.50091 L 58.856695,900.50091 C 59.210657,900.50093 59.679028,900.70906 60.261808,901.1253 61.553146,902.06269 62.198824,903.38487 62.198844,905.09184 62.198824,906.48743 61.745864,907.63294 60.839964,908.52836 59.934026,909.4238 58.783595,909.87152 57.388667,909.87151 55.847541,909.87152 54.59797,909.4551 53.639951,908.62226 52.681908,907.78943 52.202893,906.61263 52.202903,905.09184 z"
         id="path3774"
         style="stroke:#ffffff;stroke-opacity:1" />
      <path
         d="M 72.779138,909.05933 C 72.779138,911.51685 73.955466,913.30772 76.308126,914.43193 78.078652,915.28606 80.338207,915.71312 83.086796,915.71312 85.23163,915.71312 87.782566,915.13004 90.73961,913.96388 91.114543,913.81772 91.38527,913.74463 91.551792,913.74463 91.781192,913.74463 92.088461,913.94243 92.4736,914.33804 92.858699,914.73364 93.186622,914.93145 93.45737,914.93145 L 101.67261,914.93145 C 102.19306,914.93145 102.45331,913.88 102.45333,911.77709 102.45331,910.96491 102.29729,910.47557 101.98528,910.30906 101.4438,910.03834 101.07933,909.75713 100.89189,909.46542 100.89186,908.67422 100.85548,907.49773 100.78274,905.93596 100.70994,904.3742 100.67356,903.1974 100.67359,902.40554 100.67356,899.36527 99.059366,897.29351 95.831001,896.19025 93.873608,895.52362 90.989665,895.19029 87.179164,895.19027 85.763234,895.19029 84.409599,895.24241 83.118254,895.34661 82.056307,895.42988 80.567308,895.67964 78.651252,896.09588 76.173394,896.63735 74.934468,897.12669 74.934471,897.5639 74.934468,897.77237 74.996748,897.97033 75.121311,898.15779 75.954461,899.4695 76.870866,900.77102 77.870528,902.06236 77.932803,902.08335 78.120278,902.09383 78.432955,902.09382 78.744984,902.09383 79.98391,901.82311 82.149736,901.28164 83.232635,901.01093 85.033987,900.87556 87.553798,900.87555 90.073578,900.87556 91.333476,901.1984 91.333495,901.84407 91.333476,901.92733 91.32299,902.01058 91.302037,902.09382 L 91.114244,902.25016 C 88.865792,902.29148 86.617041,902.40587 84.367985,902.59333 81.223471,902.86407 79.411634,903.04106 78.932466,903.1243 76.787614,903.52024 75.22585,904.28046 74.247167,905.40499 73.26848,906.52953 72.779138,907.74765 72.779138,909.05933 z M 82.52437,908.37203 C 82.52436,907.26815 84.523673,906.71621 88.522315,906.7162 L 89.709131,906.7162 C 90.271539,906.71621 90.875273,906.7893 91.520335,906.93546 L 91.708128,907.31009 91.708128,907.43497 C 91.708109,908.35138 90.885442,909.05934 89.240124,909.55884 88.115891,909.89249 86.918591,910.05931 85.64822,910.05931 83.565642,910.05931 82.52436,909.49689 82.52437,908.37203 z"
         id="path3776"
         style="stroke:#ffffff;stroke-opacity:1" />
      <path
         d="M 115.93823,915.55679 C 116.14666,915.55679 116.75071,915.5463 117.75038,915.52533 118.12532,915.52533 118.85425,915.29623 119.93718,914.83803 121.02007,914.37982 121.8529,914.15072 122.43568,914.15072 122.74833,914.35917 123.00858,914.61941 123.21641,914.93145 L 130.83872,914.93145 C 131.0465,914.93145 131.23366,914.80657 131.40019,914.55681 131.5673,913.16187 131.65087,911.12125 131.6509,908.43494 L 131.6509,902.71821 C 131.65087,903.0722 131.6299,900.54192 131.58798,895.12736 131.56698,893.4204 131.50439,891.69213 131.40019,889.94255 L 131.02556,889.56791 123.81029,889.56791 C 123.6641,889.56794 123.45582,889.63562 123.18543,889.77096 122.915,889.90635 122.75882,890.02614 122.7169,890.13034 L 122.7169,896.37709 C 122.71688,896.66881 122.5294,896.81466 122.15447,896.81464 122.21673,896.81466 121.13382,896.48133 118.90574,895.81466 118.30199,895.7524 117.45867,895.55476 116.37578,895.22173 116.50096,895.22175 116.303,895.21127 115.78189,895.19027 115.78188,895.19029 115.59472,895.19029 115.22042,895.19027 111.6177,895.19029 108.74393,896.03361 106.59909,897.72024 104.24579,899.55307 103.06914,902.2292 103.06914,905.74864 103.06914,906.49792 103.07963,907.0184 103.1006,907.31009 103.18385,908.60145 103.74596,909.95509 104.78693,911.371 105.99503,913.03667 107.66102,914.19235 109.7849,914.83803 111.36731,915.3172 113.41842,915.55679 115.93823,915.55679 z M 112.65899,905.56085 C 112.65898,904.35275 113.11703,903.33753 114.03313,902.51516 114.9492,901.69283 116.02178,901.28165 117.25087,901.28164 118.22954,901.28165 119.32262,901.56287 120.53011,902.12528 121.92567,902.77033 122.62346,903.5304 122.62348,904.40549 L 122.62348,906.74766 C 122.62346,907.55985 121.95713,908.24716 120.62448,908.80958 119.54155,909.26778 118.52092,909.49689 117.56259,909.49688 116.29219,909.49689 115.18863,909.16356 114.2519,908.4969 113.18995,907.74765 112.65898,906.76896 112.65899,905.56085 z"
         id="path3778"
         style="stroke:#ffffff;stroke-opacity:1" />
      <path
         d="M 139.94717,915.18215 C 140.5922,915.18215 140.95635,915.0363 141.03961,914.74461 141.31033,913.80723 141.44569,911.63093 141.4457,908.21569 141.44569,907.36221 141.38341,903.4265 141.25886,896.40855 L 140.85277,896.00246 C 139.31165,895.87728 138.23923,895.81468 137.6355,895.81466 L 133.04362,895.81466 C 132.66867,895.81468 132.46054,896.17915 132.41923,896.90806 132.43957,897.24172 132.44973,897.73106 132.44973,898.37609 L 132.26289,913.40145 C 132.26289,913.96388 132.27306,914.30738 132.2934,914.43193 132.39762,914.78591 132.6477,914.9629 133.04362,914.9629 133.81386,914.9629 134.96429,914.99945 136.49492,915.07253 138.02554,915.14561 139.17629,915.18215 139.94717,915.18215 z M 132.85583,894.06542 C 136.56275,894.21161 138.92653,894.28469 139.94717,894.28467 140.07172,894.28469 140.37359,894.27421 140.85277,894.25321 L 141.25886,893.87858 141.25886,890.16085 C 141.25885,889.74461 140.7174,889.49486 139.6345,889.41158 139.48896,889.39063 138.79117,889.38015 137.54113,889.38012 136.95836,889.38015 136.20877,889.40112 135.29237,889.44304 133.91776,889.50534 133.2098,889.54697 133.1685,889.56791 132.66899,889.73444 132.41923,890.29655 132.41923,891.25424 132.41923,891.33752 132.41923,891.49385 132.41923,891.72325 132.43957,891.994 132.44973,892.20213 132.44973,892.34764 132.44973,892.34766 132.44973,892.72261 132.44973,893.47249 132.57493,893.78455 132.71029,893.98219 132.85583,894.06542 z"
         id="path3780"
         style="stroke:#ffffff;stroke-opacity:1" />
      <path
         d="M 142.08534,913.55779 C 142.08534,914.49453 142.34558,914.9629 142.86607,914.9629 L 149.7067,914.9629 C 150.08164,914.9629 150.35237,914.87965 150.51888,914.71315 150.9148,914.29689 151.11276,912.4018 151.11277,909.02787 151.11276,908.25764 151.10227,907.41432 151.08131,906.49791 L 151.04985,905.21767 C 151.04984,904.13477 151.57032,903.22885 152.6113,902.49991 153.54867,901.83328 154.58995,901.49995 155.73515,901.49994 156.79707,901.49995 157.69251,901.75002 158.42145,902.25016 159.23362,902.81196 159.63971,903.60317 159.63973,904.62379 L 159.63973,914.18218 C 159.63971,914.43194 159.77507,914.6299 160.04582,914.77606 161.75341,914.90062 163.0238,914.9629 163.85697,914.9629 L 167.66813,914.9629 C 168.33411,914.71315 168.66712,913.4326 168.66715,911.12124 168.66712,910.51688 168.6255,908.47594 168.54227,904.99842 168.54224,904.41567 168.5111,903.37439 168.44885,901.87457 168.26135,899.75071 167.11584,898.09521 165.01233,896.90806 163.28435,895.92939 161.25422,895.44005 158.92192,895.44003 157.5886,895.44005 156.34936,895.57541 155.20418,895.84612 152.83054,896.63735 151.58113,897.03295 151.45594,897.03294 151.24749,897.03295 151.08607,896.86645 150.97168,896.53342 150.85728,896.20044 150.69586,896.03393 150.48742,896.03391 L 142.86607,896.03391 C 142.51209,896.03393 142.31413,896.36694 142.27218,897.03294 142.29316,896.76223 142.30364,897.23091 142.30364,898.439 L 142.30364,900.87555 C 142.30364,902.29148 142.26726,904.40502 142.19449,907.21619 142.12173,910.02738 142.08534,912.14124 142.08534,913.55779 z"
         id="path3782"
         style="stroke:#ffffff;stroke-opacity:1" />
      <path
         d="M 169.60896,917.96188 C 169.60896,918.50333 170.71253,919.06544 172.91965,919.6482 174.83571,920.14834 176.21032,920.39842 177.04348,920.39842 177.33454,920.39842 178.24014,920.45053 179.76029,920.55476 180.36465,920.59606 181.74974,920.61671 183.91557,920.61672 187.74704,920.61671 190.62082,920.27322 192.5369,919.58624 195.51424,918.5243 197.253,916.45222 197.75317,913.37 L 197.94001,913.1517 C 197.93998,912.98456 197.93998,912.68238 197.94001,912.24514 197.96095,911.70369 197.97144,911.28743 197.97147,910.99637 197.97144,910.99637 197.97144,910.27793 197.97147,908.84103 197.97144,902.80179 197.89867,898.70975 197.75317,896.56488 197.7112,896.04442 197.51324,895.78418 197.15929,895.78416 L 189.53793,895.78416 C 189.37141,895.78418 189.22047,895.98198 189.08513,896.37757 188.94974,896.77319 188.71524,896.97099 188.38162,896.97097 189.1315,896.97099 189.04316,896.84087 188.11661,896.58061 187.19002,896.32039 185.9978,896.0549 184.53996,895.78416 182.99883,895.51345 181.90544,895.37809 181.25977,895.37807 177.8242,895.37809 175.03399,896.12767 172.88915,897.62682 170.43163,899.33445 169.20287,901.84376 169.20287,905.15476 169.20287,908.34121 170.54602,910.68402 173.23233,912.18318 175.35619,913.37032 178.14672,913.96388 181.6039,913.96388 183.18631,913.96388 184.52946,913.82852 185.63335,913.55779 186.15382,913.41162 186.66413,913.26578 187.1643,913.12024 187.78899,912.95374 188.31995,912.87049 188.7572,912.87049 L 188.7572,913.1517 C 188.67393,913.29723 188.40321,913.58861 187.94502,914.02584 187.21607,914.71283 186.17479,915.16055 184.82117,915.36899 184.15451,915.47322 182.99883,915.52533 181.35415,915.52533 178.9589,915.52533 176.67837,915.192 174.51256,914.52535 174.36702,914.48405 173.92979,914.2864 173.20087,913.93242 172.68038,913.68267 172.23266,913.55779 171.85772,913.55779 171.42048,913.55779 170.92065,914.1825 170.35823,915.43191 169.85872,916.55613 169.60896,917.39945 169.60896,917.96188 z M 178.97956,904.78012 C 178.97955,903.53072 179.55246,902.59366 180.6983,901.96894 181.61406,901.46881 182.74876,901.21874 184.10241,901.21872 185.39375,901.21874 186.48714,901.47898 187.3826,901.99945 188.44451,902.64514 188.97548,903.57203 188.9755,904.78012 188.97548,905.75882 188.5122,906.61771 187.58564,907.3568 186.65905,908.0959 185.68545,908.46545 184.66484,908.46545 183.14468,908.46545 181.89527,908.22618 180.9166,907.74764 179.62523,907.12294 178.97955,906.13377 178.97956,904.78012 z"
         id="path3784"
         style="stroke:#ffffff;stroke-opacity:1" />
    </g>
  </g>
</svg>
