<?xml version="1.0" encoding="UTF-8" standalone="no"?>
<!-- Created with Inkscape (http://www.inkscape.org/) -->

<svg
   xmlns:dc="http://purl.org/dc/elements/1.1/"
   xmlns:cc="http://creativecommons.org/ns#"
   xmlns:rdf="http://www.w3.org/1999/02/22-rdf-syntax-ns#"
   xmlns:svg="http://www.w3.org/2000/svg"
   xmlns="http://www.w3.org/2000/svg"
   xmlns:xlink="http://www.w3.org/1999/xlink"
   xmlns:sodipodi="http://sodipodi.sourceforge.net/DTD/sodipodi-0.dtd"
   xmlns:inkscape="http://www.inkscape.org/namespaces/inkscape"
   version="1.1"
   width="200"
   height="200"
   id="svg2"
   inkscape:version="0.48.1 "
   sodipodi:docname="noimage.svg">
  <sodipodi:namedview
     pagecolor="#ffffff"
     bordercolor="#666666"
     borderopacity="1"
     objecttolerance="10"
     gridtolerance="10"
     guidetolerance="10"
     inkscape:pageopacity="0"
     inkscape:pageshadow="2"
     inkscape:window-width="640"
     inkscape:window-height="480"
     id="namedview21"
     showgrid="false"
     inkscape:zoom="1.18"
     inkscape:cx="100"
     inkscape:cy="100"
     inkscape:current-layer="svg2" />
  <defs
     id="defs4">
    <linearGradient
       id="linearGradient3755">
      <stop
         id="stop3757"
         style="stop-color:#009c9c;stop-opacity:1"
         offset="0" />
      <stop
         id="stop3759"
         style="stop-color:#006969;stop-opacity:1"
         offset="1" />
    </linearGradient>
    <linearGradient
       x1="104.4898"
       y1="0.2063244"
       x2="102.19331"
       y2="201.14824"
       id="linearGradient3761"
       xlink:href="#linearGradient3755"
       gradientUnits="userSpaceOnUse" />
    <filter
       color-interpolation-filters="sRGB"
       id="filter3843">
      <feGaussianBlur
         id="feGaussianBlur3845"
         stdDeviation="2.5778654" />
    </filter>
    <linearGradient
       inkscape:collect="always"
       xlink:href="#linearGradient3755"
       id="linearGradient3007"
       gradientUnits="userSpaceOnUse"
       x1="104.4898"
       y1="0.2063244"
       x2="102.19331"
       y2="201.14824" />
  </defs>
  <metadata
     id="metadata7">
    <rdf:RDF>
      <cc:Work
         rdf:about="">
        <dc:format>image/svg+xml</dc:format>
        <dc:type
           rdf:resource="http://purl.org/dc/dcmitype/StillImage" />
        <dc:title />
      </cc:Work>
    </rdf:RDF>
  </metadata>
  <rect
     style="fill:url(#linearGradient3007);fill-opacity:1;fill-rule:nonzero;stroke:none"
     id="rect2985"
     y="0.20632437"
     x="-1.6254585e-008"
     height="199.79369"
     width="202.09016" />
  <text
     sodipodi:linespacing="100%"
     style="font-size:36px;font-style:normal;font-variant:normal;font-weight:normal;font-stretch:normal;text-align:start;line-height:100%;letter-spacing:0px;word-spacing:0px;writing-mode:lr-tb;text-anchor:start;fill:#000000;fill-opacity:1;stroke:none;font-family:ReservoirGrunge;-inkscape-font-specification:ReservoirGrunge"
     xml:space="preserve"
     id="text3767"
     y="120.77147"
     x="68.894371"><tspan
       id="tspan3769"
       y="120.77147"
       x="68.894371" /></text>
  <path
     inkscape:connector-curvature="0"
     style="fill:#000000;fill-opacity:1;fill-rule:nonzero;stroke:none;filter:url(#filter3843)"
     id="path3821"
     d="M 23.253814,189.76342 C 25.412003,183.69272 28.858458,178.28452 31.497824,176.82692 32.393806,176.33212 39.445187,174.53412 47.167566,172.83152 54.889952,171.12872 62.757479,169.06682 64.650976,168.24932 70.898986,165.55172 74.559196,162.57742 74.571738,160.18782 74.583682,157.91122 70.947589,149.71472 67.924229,145.20292 67.016876,143.84888 65.53552,140.4118 64.632325,137.56496 63.256892,133.22968 62.302737,131.97265 58.7583,129.8263 54.027045,126.96126 52.66417,124.9641 52.663391,120.89477 52.663091,119.36971 50.947885,115.24149 48.851813,111.72097 44.551365,104.49799 44.402108,103.50027 46.64556,96.97333 48.151352,92.5925 48.151352,91.83082 46.64556,84.74981 44.722218,75.70526 44.582897,61.09633 46.348681,53.61991 48.733806,43.52111 58.640591,23.09222 61.15277,23.09222 61.577957,23.09222 63.808876,21.39302 66.11037,19.31622 68.411873,17.23941 72.398079,14.27687 74.968622,12.73276 79.462126,10.03356 80.315122,9.89428 97.092078,9.12032 113.39118,8.3684 114.77976,8.44189 118.15011,10.23475 120.13464,11.29042 124.7054,12.91007 128.30732,13.83397 137.70322,16.24402 141.71433,19.78283 147.21433,30.51467 L 151.73769,39.34082 151.68754,53.12752 C 151.65997,60.71021 151.3208,68.90836 150.93384,71.34565 150.38416,74.80769 150.63589,76.63264 152.08458,79.68811 155.48062,86.85083 155.65549,88.84291 153.70065,98.09796 151.52763,108.38593 148.98212,114.72935 144.9255,119.96567 143.05671,122.3779 141.02933,127.08142 139.40742,132.76759 137.99725,137.71136 135.70086,143.47989 134.3043,145.58651 130.56255,151.23092 130.83584,155.95152 135.19282,160.93472 139.50644,165.86842 142.81346,167.97182 156.45166,174.45672 162.47235,177.31952 169.0218,180.77192 171.006,182.12862 174.80848,184.72882 178.95204,191.70492 178.08334,194.04412 177.64876,195.21442 165.60555,195.42592 99.405509,195.42592 L 21.2408,195.42592 23.253814,189.76342 z" />
  <path
     inkscape:connector-curvature="0"
     style="fill:#333333;fill-opacity:1;fill-rule:nonzero;stroke:none"
     id="path3819"
     d="M 19.253814,185.76342 C 21.412003,179.69272 24.858458,174.28452 27.497824,172.82692 28.393806,172.33212 35.445187,170.53412 43.167566,168.83152 50.889952,167.12872 58.757479,165.06682 60.650976,164.24932 66.898986,161.55172 70.559196,158.57742 70.571738,156.18782 70.583682,153.91122 66.947589,145.71471 63.924229,141.20292 63.016876,139.84888 61.53552,136.4118 60.632325,133.56496 59.256892,129.22968 58.302737,127.97265 54.7583,125.8263 50.027045,122.96126 48.66417,120.9641 48.663391,116.89477 48.663091,115.36971 46.947885,111.24149 44.851813,107.72097 40.551365,100.49799 40.402108,99.50027 42.64556,92.97333 44.151352,88.5925 44.151352,87.83082 42.64556,80.74981 40.722218,71.70526 40.582897,57.09633 42.348681,49.61991 44.733806,39.52111 54.640591,19.09222 57.15277,19.09222 57.577957,19.09222 59.808876,17.39302 62.11037,15.31622 64.411873,13.23941 68.398079,10.27687 70.968622,8.73276 75.462126,6.03356 76.315122,5.89428 93.092078,5.12032 109.39118,4.3684 110.77976,4.44189 114.15011,6.23475 116.13464,7.29042 120.7054,8.91007 124.30732,9.83397 133.70322,12.24402 137.71433,15.78283 143.21433,26.51467 L 147.73769,35.34082 147.68754,49.12752 C 147.65997,56.71021 147.3208,64.90836 146.93384,67.34565 146.38416,70.80769 146.63589,72.63264 148.08458,75.68811 151.48062,82.85083 151.65549,84.84291 149.70065,94.09796 147.52763,104.38593 144.98212,110.72935 140.9255,115.96567 139.05671,118.3779 137.02933,123.08142 135.40742,128.76759 133.99725,133.71136 131.70086,139.47989 130.3043,141.58651 126.56255,147.23088 126.83584,151.95152 131.19282,156.93472 135.50644,161.86842 138.81346,163.97182 152.45166,170.45672 158.47235,173.31952 165.0218,176.77192 167.006,178.12862 170.80848,180.72882 174.95204,187.70492 174.08334,190.04412 173.64876,191.21442 161.60555,191.42592 95.405509,191.42592 L 17.2408,191.42592 19.253814,185.76342 z" />
  <g
     style="font-size:36px;font-style:normal;font-variant:normal;font-weight:normal;font-stretch:normal;text-align:start;line-height:100%;letter-spacing:0px;word-spacing:0px;writing-mode:lr-tb;text-anchor:start;fill:#000000;fill-opacity:1;stroke:#ffffff;stroke-opacity:1;font-family:ReservoirGrunge;-inkscape-font-specification:ReservoirGrunge"
     id="text3847">
    <path
       d="M 58.455677,84.527893 C 59.607774,84.672181 60.711899,84.744324 61.768055,84.744324 62.488021,84.744324 64.755963,84.672181 68.571888,84.527893 68.643654,84.456116 68.835548,84.228333 69.147572,83.844543 L 69.147572,70.559875 C 69.14756,70.392166 69.33982,70.308303 69.724354,70.308289 69.796119,70.308303 69.867896,70.320388 69.939686,70.344543 L 80.055897,82.475647 C 80.991908,83.580141 81.736048,84.264222 82.288319,84.527893 85.551962,84.696351 88.947833,84.780579 92.475941,84.780579 93.556227,84.780579 94.144361,84.396424 94.240345,83.628113 94.263746,82.355899 94.287549,81.047795 94.311756,79.703796 94.311719,79.032172 94.335889,77.544258 94.384266,75.240051 94.431836,73.080151 94.45564,71.592238 94.455677,70.776306 L 94.455677,56.808289 C 94.45564,56.088347 94.227857,55.728362 93.772327,55.728333 93.171706,55.728362 92.289504,55.686248 91.125721,55.60199 89.96187,55.517791 89.080035,55.475677 88.480213,55.475647 L 83.871449,55.475647 C 83.344079,56.003752 83.080407,56.387907 83.080433,56.628113 L 83.080433,69.084412 C 82.864343,69.084428 82.612024,69.120316 82.323475,69.192078 L 82.179554,69.119568 C 82.131922,69.071977 81.640101,68.508012 80.70409,67.427673 80.104214,66.515827 78.400236,64.451864 75.592152,61.235779 72.592136,57.803677 70.924047,55.967864 70.587879,55.728333 69.36399,55.728362 67.527994,55.686248 65.079884,55.60199 62.631758,55.517791 60.795762,55.475677 59.571888,55.475647 58.660021,55.475677 58.131946,55.775969 57.987659,56.376526 57.964221,57.192472 57.940418,58.560268 57.916248,60.479919 57.940418,61.632043 57.904163,64.380087 57.807484,68.72406 L 57.772327,69.840271 57.772327,83.628113 C 57.772327,83.891786 58.00011,84.191712 58.455677,84.527893 z"
       style=""
       id="path3021" />
    <path
       d="M 95.178577,71.171814 C 95.178577,73.355908 95.77843,75.552073 96.978138,77.760315 98.826034,81.168278 101.81395,83.400331 105.94188,84.456482 108.36619,85.080505 112.23044,85.392517 117.53466,85.392517 125.26241,85.392517 130.49409,82.692446 133.22972,77.292297 134.40595,74.963938 134.99409,72.503736 134.99413,69.911682 134.99409,59.832118 128.03426,54.792328 114.11461,54.792297 108.33066,54.792328 103.81858,56.040373 100.57836,58.536438 96.978502,61.344567 95.178577,65.556355 95.178577,71.171814 z M 107.7777,70.991638 C 107.77769,68.615678 108.35373,66.647663 109.50585,65.087585 110.80222,63.312217 112.59042,62.424522 114.87047,62.4245 115.27841,62.424522 115.48239,62.424522 115.48241,62.4245 116.0339,62.44796 116.23788,62.459678 116.09435,62.459656 116.38217,62.652305 116.79013,62.820396 117.31823,62.963928 118.10995,63.180015 118.5538,63.300132 118.64977,63.32428 119.89779,63.804037 120.85799,64.77596 121.53038,66.240051 122.10604,67.463946 122.39388,68.832109 122.39391,70.344543 122.39388,72.215894 121.75814,73.895702 120.48668,75.383972 119.1661,76.968209 117.59396,77.760322 115.77025,77.760315 113.56198,77.760322 111.71408,77.196358 110.22655,76.06842 108.59397,74.844554 107.77769,73.152295 107.7777,70.991638 z"
       style=""
       id="path3023" />
  </g>
  <g
     style="font-size:36px;font-style:normal;font-variant:normal;font-weight:normal;font-stretch:normal;text-align:start;line-height:100%;letter-spacing:0px;word-spacing:0px;writing-mode:lr-tb;text-anchor:start;fill:#000000;fill-opacity:1;stroke:#ffffff;stroke-opacity:1;font-family:ReservoirGrunge;-inkscape-font-specification:ReservoirGrunge"
     id="text3851">
    <path
       d="M 12.27451,131.60565 C 14.242525,131.77411 16.474579,131.85834 18.970677,131.85834 L 21.27451,131.85834 C 21.082606,131.85834 21.346644,131.84625 22.066625,131.82208 22.066614,131.82208 22.330652,131.82208 22.858739,131.82208 L 23.326756,131.39032 C 23.470299,125.05415 23.542076,120.44612 23.542089,117.56622 L 23.542089,103.70587 C 23.421959,103.39389 23.265954,103.17782 23.074071,103.05768 L 12.526097,102.80609 C 12.334202,102.94968 12.178196,103.17746 12.05808,103.48944 12.058079,104.92941 12.022191,107.09555 11.950414,109.98785 11.878636,112.88021 11.842747,115.04634 11.842748,116.48627 L 11.842748,130.9223 C 11.914525,131.09003 12.058445,131.31781 12.27451,131.60565 z"
       style=""
       id="path3010" />
    <path
       d="M 24.28806,131.35406 24.756078,131.82208 C 26.123507,131.82208 26.807222,131.82208 26.807225,131.82208 L 28.859471,131.85834 C 31.499845,131.85834 33.575892,131.77411 35.087621,131.60565 L 35.304051,131.35406 C 35.471764,126.98591 35.555627,124.28584 35.555638,123.25385 L 35.555638,119.00543 C 35.555627,118.0218 35.699547,116.52181 35.987401,114.50543 L 36.203832,114.50543 C 36.419884,114.79402 36.599693,115.19026 36.74326,115.69415 36.983482,116.53426 37.103599,116.9543 37.103612,116.95428 L 41.855199,129.80609 C 42.239702,130.81391 42.648027,131.40167 43.080174,131.5694 43.151933,131.59357 43.94368,131.64154 45.455419,131.71332 46.8719,131.78583 47.855907,131.82208 48.407445,131.82208 49.391794,131.82208 50.423776,131.74994 51.503392,131.60565 51.863716,131.36542 52.163642,130.90949 52.403172,130.23785 L 56.903172,118.32208 C 57.023257,118.10603 57.179262,117.78194 57.37119,117.34979 57.635561,116.46211 57.827821,115.88606 57.947972,115.62164 58.28412,114.90169 58.619935,114.44576 58.955419,114.25385 58.955384,114.59004 58.991455,115.08809 59.063634,115.74799 59.135742,116.40791 59.171814,116.90596 59.171849,117.24213 59.171814,117.6501 59.099671,117.93794 58.955419,118.10565 58.955384,119.498 58.955384,120.19416 58.955419,120.19415 58.955384,120.48201 58.943299,120.87788 58.919164,121.38177 58.919129,121.78974 58.919129,122.07759 58.919164,122.2453 58.919129,125.58149 59.003357,128.5456 59.171849,131.13763 L 59.603612,131.60565 69.28806,131.60565 C 69.720143,131.60565 70.02007,131.44965 70.18784,131.13763 70.187794,129.60175 70.223683,127.31586 70.295506,124.27997 70.367237,121.24409 70.403126,118.9582 70.403172,117.4223 70.403126,117.3022 70.44524,117.11617 70.529515,116.8642 70.613697,116.61226 70.655811,116.42622 70.655858,116.30609 L 70.655858,104.35406 C 70.655811,103.15365 70.199879,102.55344 69.28806,102.55341 L 62.735814,102.55341 C 61.367613,102.55344 58.079408,102.63766 52.87119,102.80609 L 52.403172,103.02142 C 51.971748,103.76559 51.671822,104.36581 51.503392,104.82208 51.071236,106.04599 50.42341,107.87008 49.559911,110.29437 48.479564,113.24605 47.71162,114.72188 47.256078,114.72186 47.087598,114.40987 46.859448,113.95394 46.57163,113.35406 L 43.18784,103.9223 C 42.923417,103.17819 42.623491,102.80612 42.28806,102.80609 41.807574,102.80612 41.093463,102.76401 40.145726,102.67975 39.197957,102.59555 38.483846,102.55344 38.003392,102.55341 38.31539,102.55344 35.399621,102.61349 29.256078,102.73358 28.58371,102.73361 27.383638,102.75778 25.655858,102.80609 25.151951,102.83029 24.852024,102.97421 24.756078,103.23785 24.58762,103.64584 24.503392,104.61776 24.503392,106.15363 L 24.503392,117.63763 24.28806,118.10565 z"
       style=""
       id="path3012" />
    <path
       d="M 71.829198,131.82208 C 77.060881,132.01398 80.16891,132.10992 81.153295,132.10992 82.065149,132.10992 82.712975,131.94183 83.096776,131.60565 83.553062,130.33344 83.997276,129.57758 84.429418,129.33807 85.365438,129.33808 86.775349,129.29596 88.659154,129.21173 90.542923,129.12751 91.952834,129.08539 92.88889,129.08539 95.121288,129.08539 96.381419,129.2414 96.669286,129.55341 96.765207,129.72187 97.040964,130.15399 97.496556,130.84979 97.856881,131.42548 98.228951,131.74957 98.612767,131.82208 99.093208,131.82208 99.933295,131.83417 101.13303,131.85834 L 108.98057,132.07367 C 109.72467,132.07367 110.09674,131.8338 110.09678,131.35406 L 103.11277,114.72186 C 102.65717,113.71407 101.85334,111.82992 100.70127,109.0694 99.812812,106.8619 98.972725,104.9902 98.181005,103.45428 97.964913,103.02218 97.580758,102.80612 97.028539,102.80609 L 92.528539,102.76984 C 89.888871,102.7457 87.189167,102.82956 84.429418,103.02142 84.21334,103.23752 83.997276,103.46567 83.781224,103.70587 L 71.829198,129.80609 C 71.541356,130.43012 71.397435,130.90985 71.397435,131.2453 L 71.397435,131.35406 C 71.469212,131.45001 71.613133,131.60602 71.829198,131.82208 z M 87.56162,120.95001 C 87.561603,120.37361 87.885333,119.22151 88.532811,117.49371 89.229326,115.62166 89.781572,114.68563 90.189549,114.68561 90.477372,114.68563 91.017166,115.59767 91.808934,117.42175 92.600661,119.24586 92.996534,120.40986 92.996556,120.91376 92.996534,121.27412 92.336623,121.46601 91.01682,121.48944 92.144729,121.46601 91.352981,121.4543 88.641576,121.45428 88.569049,121.4543 88.448748,121.4662 88.280675,121.48999 88.112567,121.5138 87.992633,121.52571 87.920873,121.5257 87.681354,121.52571 87.561603,121.33381 87.56162,120.95001 z"
       style=""
       id="path3014" />
    <path
       d="M 110.84275,116.88177 C 110.84275,122.68989 112.82248,126.86579 116.78196,129.40948 120.02218,131.47345 124.71444,132.50543 130.85874,132.50543 134.77058,132.50543 138.03461,132.01361 140.65085,131.02997 140.79438,130.98163 141.38215,130.70551 142.41416,130.2016 143.37433,129.74604 143.87824,129.51825 143.92588,129.51825 144.23786,129.51825 144.56799,129.89618 144.9163,130.65204 145.26453,131.4079 145.60638,131.78583 145.94187,131.78583 L 150.01011,131.78583 C 150.60992,131.78583 150.90985,131.55768 150.90989,131.10138 L 151.12632,116.7016 C 151.12628,116.41377 151.0122,116.15578 150.78409,115.92761 150.5559,115.69948 150.29791,115.5854 150.01011,115.58539 L 134.24253,115.58539 C 134.17073,115.63374 133.94258,115.93404 133.55808,116.48627 L 133.55808,121.2016 C 133.55806,121.29756 133.61812,121.48359 133.73826,121.7597 133.85835,122.03584 133.9543,122.1977 134.0261,122.2453 L 137.62632,122.2453 C 137.9383,122.24531 138.09431,122.42549 138.09433,122.78583 138.09431,123.60175 137.25422,124.21369 135.57407,124.62164 134.39851,124.90949 133.19844,125.05341 131.97385,125.05341 129.52608,125.05341 127.55843,124.45356 126.0709,123.25385 124.46248,121.9582 123.65829,120.1103 123.6583,117.71014 123.65829,115.43013 124.34237,113.52803 125.71055,112.00385 127.07869,110.4797 128.8907,109.71761 131.14658,109.71759 132.53816,109.71761 133.71406,109.98165 134.67429,110.5097 135.46601,110.94185 136.37788,111.73397 137.40989,112.88605 138.56196,113.07796 140.21796,113.17391 142.3779,113.17389 142.59394,113.17391 142.96601,113.17391 143.49411,113.17389 144.16644,113.14974 144.68244,113.13765 145.04209,113.13763 145.04205,113.13765 145.9422,113.13765 147.74253,113.13763 149.25421,113.13765 150.08221,113.12557 150.22654,113.10138 150.68206,113.02962 150.90985,112.81392 150.90989,112.45428 150.90985,111.56588 150.51397,110.48556 149.72226,109.21332 148.138,106.66964 145.47418,104.74997 141.73081,103.45428 138.68244,102.39816 135.37043,101.87009 131.79477,101.87006 124.85872,101.87009 119.45858,103.39389 115.59433,106.44147 113.86655,107.80966 112.58261,109.80184 111.74253,112.41803 111.14267,114.29012 110.84275,115.77803 110.84275,116.88177 z"
       style=""
       id="path3016" />
    <path
       d="M 152.30295,131.82208 186.03428,131.82208 C 186.17853,131.82208 186.32867,131.67798 186.48472,131.38977 186.64069,131.10156 186.71869,130.8736 186.71872,130.70587 L 186.71872,125.52142 C 186.71869,125.09003 186.56268,124.79011 186.25071,124.62164 184.97846,124.62165 183.07032,124.58576 180.52628,124.51398 177.98219,124.44221 176.07441,124.40632 174.80295,124.40631 L 165.7667,124.37006 C 164.2784,124.32172 163.53426,123.85371 163.53428,122.966 163.53426,121.66963 163.83419,121.02143 164.43406,121.02142 L 180.6345,121.02142 C 181.04243,121.02143 181.27057,120.79365 181.31894,120.33807 181.46247,119.13765 181.53425,117.32564 181.53428,114.90204 L 181.53428,114.25385 181.10251,113.82208 C 177.91059,113.67781 172.95466,113.60567 166.23472,113.60565 165.37044,113.60567 164.68636,113.49764 164.18247,113.28156 163.89462,113.16146 163.75069,112.54952 163.75071,111.44574 163.75069,110.91768 163.83456,110.5577 164.00229,110.36578 164.07479,110.29403 165.40706,110.25814 167.99912,110.25812 L 175.55881,110.25812 C 178.53462,110.25814 181.65436,110.17391 184.91807,110.00543 L 185.1345,109.75385 C 185.30219,108.74606 185.38605,107.41415 185.38608,105.75812 185.38605,104.53427 185.30219,103.69418 185.1345,103.23785 185.03851,102.97421 184.7265,102.83029 184.19846,102.80609 183.67035,102.78195 180.04633,102.72189 173.32639,102.62592 169.96675,102.57761 166.99093,102.55344 164.3989,102.55341 L 159.32212,102.55341 C 155.38608,102.55344 153.15439,102.68564 152.62705,102.95001 152.5311,102.99765 152.42307,103.0936 152.30295,103.23785 151.96677,105.92587 151.7866,109.1899 151.76243,113.02997 151.7866,109.16573 151.79868,112.42977 151.79868,122.82208 L 151.79868,127.97028 C 151.79868,128.11383 151.79868,128.3537 151.79868,128.68988 151.82285,129.09784 151.83493,129.42194 151.83494,129.66217 151.83493,129.66217 151.83493,130.22614 151.83494,131.35406 z"
       style=""
       id="path3018" />
  </g>
</svg>
